<svg id="icn_phone_coins" xmlns="http://www.w3.org/2000/svg" viewBox="0 0 24 24"><defs><style>.a{fill:currentColor;}</style></defs><title>icn_phone_coins</title><path class="a" d="M9.5,19h-3a.5.5,0,0,0,0,1h3a.5.5,0,0,0,0-1Z"/><path class="a" d="M22,13.9C22,12,19.23,11,16.5,11a10.7,10.7,0,0,0-2.5.29V4.88A2.8,2.8,0,0,0,11.3,2H4.7A2.8,2.8,0,0,0,2,4.88V19.12A2.8,2.8,0,0,0,4.7,22H16.5c2.73,0,5.5-1,5.5-2.9,0,0,0-.06,0-.09s0,0,0,0V13.9ZM16.5,12c2.49,0,4.5.85,4.5,1.9s-2,1.9-4.5,1.9S12,15,12,13.9,14,12,16.5,12ZM21,16.43c0,1.05-2,1.9-4.5,1.9s-4.5-.85-4.5-1.9a1,1,0,0,1,.27-.62,8.48,8.48,0,0,0,4.23,1,8.48,8.48,0,0,0,4.23-1A1,1,0,0,1,21,16.43ZM10.5,21H4.7A1.79,1.79,0,0,1,3,19.12V4.88A1.79,1.79,0,0,1,4.7,3h6.6A1.79,1.79,0,0,1,13,4.88v6.74c-1.18.48-2,1.25-2,2.28h0V19s0,0,0,0,0,.06,0,.09A2.27,2.27,0,0,0,12.25,21Zm6,0C14,21,12,20.15,12,19.1a1.06,1.06,0,0,1,.34-.71,8.61,8.61,0,0,0,4.16.94,8.61,8.61,0,0,0,4.16-.94,1.06,1.06,0,0,1,.34.71C21,20.15,19,21,16.5,21Z"/></svg>