<svg id="icn_document_bop" xmlns="http://www.w3.org/2000/svg" viewBox="0 0 24 24"><defs><style>.a{fill:currentColor;}</style></defs><title>icn_document_bop</title><path class="a" d="M18.85,6.15l-4-4A.47.47,0,0,0,14.5,2H7A2,2,0,0,0,5,4V20a2,2,0,0,0,2,2H17a2,2,0,0,0,2-2V6.5A.47.47,0,0,0,18.85,6.15ZM18,20a1,1,0,0,1-1,1H7a1,1,0,0,1-1-1V4A1,1,0,0,1,7,3h7a.66.66,0,0,0,0,.15V6.5a.5.5,0,0,0,.5.5h3.35A.66.66,0,0,0,18,7Z"/><path class="a" d="M7.5,7h4a.5.5,0,0,0,0-1h-4a.5.5,0,0,0,0,1Z"/><path class="a" d="M7.5,9h4a.5.5,0,0,0,0-1h-4a.5.5,0,0,0,0,1Z"/><path class="a" d="M16.5,10h-9a.5.5,0,0,0,0,1h9a.5.5,0,0,0,0-1Z"/><path class="a" d="M9.59,16a.81.81,0,0,0,.4-.32.9.9,0,0,0,.14-.52,1,1,0,0,0-.38-.82A2,2,0,0,0,8.62,14H7.25V18H8.8a1.67,1.67,0,0,0,1.06-.29,1.1,1.1,0,0,0,.35-.88.89.89,0,0,0-.16-.54A.75.75,0,0,0,9.59,16Zm-1.42-1.2h.45a.68.68,0,0,1,.45.11.4.4,0,0,1,.14.36.42.42,0,0,1-.13.33.67.67,0,0,1-.43.11H8.17Zm1,2.36a.56.56,0,0,1-.38.12H8.17v-.95h.65c.32,0,.47.17.47.5A.42.42,0,0,1,9.16,17.12Z"/><path class="a" d="M11.94,15a1.44,1.44,0,0,0-.73.18,1.18,1.18,0,0,0-.48.53,1.75,1.75,0,0,0-.16.78v.15a1.48,1.48,0,0,0,.4,1,1.43,1.43,0,0,0,2,0,1.53,1.53,0,0,0,.37-1.09v0a1.58,1.58,0,0,0-.37-1.11A1.27,1.27,0,0,0,11.94,15Zm.48,1.58q0,.75-.48.75a.39.39,0,0,1-.36-.19,1,1,0,0,1-.13-.6v-.16c0-.45.18-.68.48-.68s.48.26.48.79Z"/><path class="a" d="M16,14.19a1.71,1.71,0,0,0-.77-.16H13.74V18h.92V16.63h.59a1.63,1.63,0,0,0,1.1-.34,1.16,1.16,0,0,0,.4-.93,1.23,1.23,0,0,0-.19-.69A1.15,1.15,0,0,0,16,14.19Zm-.37,1.57a.56.56,0,0,1-.4.14h-.61V14.76h.62a.51.51,0,0,1,.39.17.63.63,0,0,1,.14.44A.49.49,0,0,1,15.67,15.76Z"/></svg>