<svg id="icn_product_stanlib" xmlns="http://www.w3.org/2000/svg" viewBox="0 0 24 24"><defs><style>.a{fill:currentColor;}</style></defs><title>icn_product_stanlib</title><path class="a" d="M5.2,14.3A5.06,5.06,0,0,0,9.1,16H20.9c1.2,0,2.2,1,3.1,3-.3-.8-1.5-1.3-3.5-1.3H8.3C7.1,17.4,6.1,16.3,5.2,14.3ZM0,5A5.06,5.06,0,0,0,3.9,6.7H15.7c1.2,0,2.2,1,3.1,3-.3-.8-1.5-1.3-3.5-1.3H3.1C1.9,8.1.9,7,0,5ZM2.6,9.7a5.06,5.06,0,0,0,3.9,1.7H18.3c1.2,0,2.2,1,3.1,3-.3-.8-1.5-1.3-3.5-1.3H5.7C4.5,12.8,3.5,11.6,2.6,9.7Z"/></svg>