<svg id="icn_cash_deposit" xmlns="http://www.w3.org/2000/svg" viewBox="0 0 24 24"><defs><style>.a{fill:currentColor;}</style></defs><title>icn_cash_deposit</title><path class="a" d="M12,17.5a.5.5,0,0,1-.5.5h-3a.5.5,0,0,1,0-1h3A.5.5,0,0,1,12,17.5ZM11.5,6h-3a.5.5,0,0,0,0,1h3a.5.5,0,0,0,0-1ZM13,12a3,3,0,1,1-3-3A3,3,0,0,1,13,12Zm-1,0a2,2,0,1,0-2,2A2,2,0,0,0,12,12Zm0,5.5a.5.5,0,0,1-.5.5h-3a.5.5,0,0,1,0-1h3A.5.5,0,0,1,12,17.5Zm0-11a.5.5,0,0,1-.5.5h-3a.5.5,0,0,1,0-1h3A.5.5,0,0,1,12,6.5ZM13,12a3,3,0,1,1-3-3A3,3,0,0,1,13,12Zm-1,0a2,2,0,1,0-2,2A2,2,0,0,0,12,12Zm1,0a3,3,0,1,1-3-3A3,3,0,0,1,13,12Zm-1,0a2,2,0,1,0-2,2A2,2,0,0,0,12,12ZM8,6.5A.5.5,0,0,1,8.5,6h3a.5.5,0,0,1,0,1h-3A.5.5,0,0,1,8,6.5Zm4,11a.5.5,0,0,1-.5.5h-3a.5.5,0,0,1,0-1h3A.5.5,0,0,1,12,17.5Zm6,.5v3a1,1,0,0,1-1,1H3a1,1,0,0,1-1-1V18a1,1,0,0,1,1-1H4V2H16V17h1A1,1,0,0,1,18,18ZM13,3a2,2,0,0,0,2,2V3ZM5,5A2,2,0,0,0,7,3H5ZM5,19H15V6a3,3,0,0,1-3-3H8A3,3,0,0,1,5,6Zm12-1H16v2H4V18H3v3H17Zm-4-6a3,3,0,1,1-3-3A3,3,0,0,1,13,12Zm-1,0a2,2,0,1,0-2,2A2,2,0,0,0,12,12ZM8,6.5A.5.5,0,0,1,8.5,6h3a.5.5,0,0,1,0,1h-3A.5.5,0,0,1,8,6.5Zm4,11a.5.5,0,0,1-.5.5h-3a.5.5,0,0,1,0-1h3A.5.5,0,0,1,12,17.5Zm0,0a.5.5,0,0,1-.5.5h-3a.5.5,0,0,1,0-1h3A.5.5,0,0,1,12,17.5Zm0-11a.5.5,0,0,1-.5.5h-3a.5.5,0,0,1,0-1h3A.5.5,0,0,1,12,6.5ZM13,12a3,3,0,1,1-3-3A3,3,0,0,1,13,12Zm-1,0a2,2,0,1,0-2,2A2,2,0,0,0,12,12Zm1,0a3,3,0,1,1-3-3A3,3,0,0,1,13,12Zm-1,0a2,2,0,1,0-2,2A2,2,0,0,0,12,12Zm0-5.5a.5.5,0,0,1-.5.5h-3a.5.5,0,0,1,0-1h3A.5.5,0,0,1,12,6.5Zm0,11a.5.5,0,0,1-.5.5h-3a.5.5,0,0,1,0-1h3A.5.5,0,0,1,12,17.5Zm-.5-.5h-3a.5.5,0,0,0,0,1h3a.5.5,0,0,0,0-1ZM8.5,7h3a.5.5,0,0,0,0-1h-3a.5.5,0,0,0,0,1ZM13,12a3,3,0,1,1-3-3A3,3,0,0,1,13,12Zm-1,0a2,2,0,1,0-2,2A2,2,0,0,0,12,12Zm7.7,2a.58.58,0,0,0,.17-.14A.34.34,0,0,0,20,13.7s0,.05,0,.08l-.07.07A.42.42,0,0,1,19.7,14Zm-.57-.14a.58.58,0,0,0,.17.14.42.42,0,0,1-.15-.11l-.07-.07s0,0,0-.08A.34.34,0,0,0,19.13,13.82Zm-2-2.67a.48.48,0,0,1,.7,0L19,12.3V7.5a.5.5,0,0,1,1,0v4.8l1.15-1.15a.48.48,0,0,1,.7,0,.48.48,0,0,1,0,.7l-1.93,1.93s0,0,0-.08a.61.61,0,0,1-.26.26h0a.47.47,0,0,1-.38,0h0A.61.61,0,0,1,19,13.7s0,.05,0,.08l-1.93-1.93A.48.48,0,0,1,17.15,11.15Zm2.7,2.7A.42.42,0,0,0,20,13.7s0,.05,0,.08ZM19,13.7a.42.42,0,0,0,.11.15l-.07-.07S19.05,13.73,19,13.7Z"/></svg>