<svg id="icn_reload" xmlns="http://www.w3.org/2000/svg" viewBox="0 0 24 24"><defs><style>.a{fill:currentColor;}</style></defs><title>icn_reload</title><path class="a" d="M4.12,13.41a.5.5,0,0,1-.4.58H3.63a.49.49,0,0,1-.49-.41A8.91,8.91,0,0,1,3,11.46,9,9,0,0,1,12.56,3,8.9,8.9,0,0,1,18,5.28V3.5a.5.5,0,0,1,1,0v3h0a.43.43,0,0,1,0,0A.5.5,0,0,1,18.5,7h-3a.5.5,0,0,1,0-1h1.81A7.92,7.92,0,0,0,12.5,4,8,8,0,0,0,4,11.52,8.5,8.5,0,0,0,4.12,13.41Zm16.74-3a.5.5,0,1,0-1,.18A8.5,8.5,0,0,1,20,12.48,8,8,0,0,1,11.5,20a7.92,7.92,0,0,1-4.81-2H8.5a.5.5,0,0,0,0-1h-3a.49.49,0,0,0-.49.44s0,0,0,0H5v3a.5.5,0,0,0,1,0V18.73A9,9,0,0,0,11.44,21L12,21a9,9,0,0,0,9-8.46A8.91,8.91,0,0,0,20.86,10.41Z"/></svg>