<svg id="icn_cash_withdraw" xmlns="http://www.w3.org/2000/svg" viewBox="0 0 24 24"><defs><style>.a{fill:currentColor;}</style></defs><title>icn_cash_withdraw</title><path class="a" d="M3,7H4V22H16V7h1a1,1,0,0,0,1-1V3a1,1,0,0,0-1-1H3A1,1,0,0,0,2,3V6A1,1,0,0,0,3,7ZM5,21V19a2,2,0,0,1,2,2Zm10,0H13a2,2,0,0,1,2-2Zm0-3a3,3,0,0,0-3,3H8a3,3,0,0,0-3-3V5H15ZM3,3H17V6H16V4H4V6H3ZM8.5,17h3a.5.5,0,0,1,0,1h-3a.5.5,0,0,1,0-1Zm0-11h3a.5.5,0,0,1,0,1h-3a.5.5,0,0,1,0-1ZM10,15a3,3,0,1,0-3-3A3,3,0,0,0,10,15Zm0-5a2,2,0,1,1-2,2A2,2,0,0,1,10,10Zm11.85,2.85-1.93,1.93s0,0,0-.08a.61.61,0,0,1-.26.26h0a.47.47,0,0,1-.38,0h0A.61.61,0,0,1,19,14.7s0,.05,0,.08l-1.93-1.93a.49.49,0,0,1,.7-.7L19,13.3V8.5a.5.5,0,0,1,1,0v4.8l1.15-1.15a.49.49,0,1,1,.7.7Zm-2.72,2a.58.58,0,0,0,.17.14.42.42,0,0,1-.15-.11l-.07-.07s0,0,0-.08A.34.34,0,0,0,19.13,14.82Zm.74,0A.34.34,0,0,0,20,14.7s0,.05,0,.08l-.07.07a.42.42,0,0,1-.15.11A.58.58,0,0,0,19.87,14.82Zm-.72,0-.07-.07s0,0,0-.08A.42.42,0,0,0,19.15,14.85Zm.7,0A.42.42,0,0,0,20,14.7s0,.05,0,.08Z"/></svg>