<svg id="icn_card_request" xmlns="http://www.w3.org/2000/svg" viewBox="0 0 24 24"><defs><style>.a{fill:currentColor;}</style></defs><title>icn_card_request</title><path class="a" d="M21,9.77V2.47a.5.5,0,1,0-1,0v7.3a2.42,2.42,0,0,1-1,1.94L14,16V8a2,2,0,0,0-1.19-1.88.5.5,0,0,0-.6,0L8.16,8.93a1.1,1.1,0,0,1-.76.32A1,1,0,0,1,6.68,9a1,1,0,0,1-.3-.68.92.92,0,0,1,.29-.68l4.76-4.77a.5.5,0,0,0,0-.7A.51.51,0,0,0,11.07,2a.49.49,0,0,0-.35.15L6.87,6H4.75A1.89,1.89,0,0,0,3,8V20a1.89,1.89,0,0,0,1.75,2h7.5A1.89,1.89,0,0,0,14,20V17.3l5.65-4.8A3.42,3.42,0,0,0,21,9.77ZM8.79,9.7,9,9.55V21H4.75C4.34,21,4,20.51,4,20V8c0-.54.34-1,.75-1H5.89a1.92,1.92,0,0,0-.51,1.3A2,2,0,0,0,6,9.67,2.09,2.09,0,0,0,8.79,9.7ZM13,20c0,.54-.34,1-.75,1H11V8.14l1.54-1.09A1.06,1.06,0,0,1,13,8Z"/><path class="a" d="M7.5,19a.5.5,0,0,1-.5-.5v-3a.5.5,0,1,1,1,0v3A.5.5,0,0,1,7.5,19Z"/></svg>