<svg id="icn_gripper" xmlns="http://www.w3.org/2000/svg"  viewBox="0 0 24 24"><defs><style>.a{fill:currentColor;}</style><clipPath ><path class="a" d="M-238-328.27a1,1,0,0,0,1,1,1,1,0,0,0,1-1,1,1,0,0,0-1-1A1,1,0,0,0-238-328.27Zm12,0a1,1,0,0,0-1-1,1,1,0,0,0-1,1,1,1,0,0,0,1,1A1,1,0,0,0-226-328.27Zm-7-9v4h2v-1.92a7,7,0,0,1,6,6.92,7,7,0,0,1-7,7,7,7,0,0,1-7-7,6.92,6.92,0,0,1,1.58-4.42l5.42,5.42,1.41-1.41-6.8-6.8v0a9,9,0,0,0-3.61,7.19,9,9,0,0,0,9,9,9,9,0,0,0,9-9,9,9,0,0,0-9-9Zm0,14a1,1,0,0,0,1,1,1,1,0,0,0,1-1,1,1,0,0,0-1-1A1,1,0,0,0-233-323.27Z"/></clipPath></defs><title>icn_gripper</title><path class="b" d="M11,18a1,1,0,1,1-1-1A1,1,0,0,1,11,18Zm3-1a1,1,0,1,0,1,1A1,1,0,0,0,14,17ZM14,5a1,1,0,1,0,1,1A1,1,0,0,0,14,5ZM10,9a1,1,0,1,0,1,1A1,1,0,0,0,10,9Zm4,0a1,1,0,1,0,1,1A1,1,0,0,0,14,9Zm-4,4a1,1,0,1,0,1,1A1,1,0,0,0,10,13Zm0-8a1,1,0,1,0,1,1A1,1,0,0,0,10,5Zm4,8a1,1,0,1,0,1,1A1,1,0,0,0,14,13Z"/></svg>