<svg id="icn_link" xmlns="http://www.w3.org/2000/svg" viewBox="0 0 24 24"><defs><style>.a{fill:currentColor;}</style></defs><title>icn_link</title><path class="a" d="M13.09,14.48a3.55,3.55,0,0,1-2.53-1,.5.5,0,0,1,.71-.71,2.56,2.56,0,0,0,3.63,0l4.35-4.34a2.57,2.57,0,0,0-3.64-3.64l-2.89,2.9a.51.51,0,0,1-.71,0,.5.5,0,0,1,0-.71L14.9,4.05A3.57,3.57,0,1,1,20,9.1l-4.34,4.34A3.53,3.53,0,0,1,13.09,14.48ZM9.1,20,12,17.06a.5.5,0,0,0,0-.71.51.51,0,0,0-.71,0l-2.89,2.9a2.57,2.57,0,0,1-3.64-3.64L9.1,11.27a2.56,2.56,0,0,1,3.63,0,.5.5,0,0,0,.71-.71,3.58,3.58,0,0,0-5,0L4.05,14.9A3.57,3.57,0,1,0,9.1,20Z"/></svg>