<svg id="icn_suitcase" xmlns="http://www.w3.org/2000/svg" viewBox="0 0 24 24"><defs><style>.a{fill:currentColor;}</style></defs><title>icn_suitcase</title><path class="a" d="M19.5,6H15.44V4.5A1.5,1.5,0,0,0,13.94,3h-4a1.5,1.5,0,0,0-1.5,1.5V6H4.5A2.5,2.5,0,0,0,2,8.5v10A2.5,2.5,0,0,0,4.5,21h15A2.5,2.5,0,0,0,22,18.5V8.5A2.5,2.5,0,0,0,19.5,6ZM5,20H4.5A1.5,1.5,0,0,1,3,18.5V8.5A1.5,1.5,0,0,1,4.5,7H5ZM9.44,4.5a.5.5,0,0,1,.5-.5h4a.5.5,0,0,1,.5.5V6h-5ZM16,20H8V7h8Zm5-1.5A1.5,1.5,0,0,1,19.5,20H19V7h.5A1.5,1.5,0,0,1,21,8.5Z"/></svg>