<svg id="icn_people_child" xmlns="http://www.w3.org/2000/svg" viewBox="0 0 24 24"><defs><style>.a{fill:currentColor;}</style></defs><title>icn_people_child</title><path class="a" d="M20.67,10.91a8.92,8.92,0,0,0-1.24-3.62A.47.47,0,0,0,19.36,7,8.7,8.7,0,0,0,7.74,4.12a.37.37,0,0,0-.15.13A9,9,0,0,0,3.33,10.9a1.81,1.81,0,0,0,.27,3.55,8.66,8.66,0,0,0,16.8,0,1.81,1.81,0,0,0,.27-3.54Zm-.44,2.55H20a.49.49,0,0,0-.48.39,7.67,7.67,0,0,1-15,0A.49.49,0,0,0,4,13.46H3.77a.81.81,0,0,1,0-1.61.51.51,0,0,0,.5-.47,8,8,0,0,1,3.39-6c.61.91,2.55,3.15,6.78,3.15a15.65,15.65,0,0,0,4.17-.63,8,8,0,0,1,1.08,3.47.53.53,0,0,0,.52.47.81.81,0,0,1,0,1.61Z"/><path class="a" d="M15,14.5H9a.52.52,0,0,0-.41.21.5.5,0,0,0-.06.46A3.87,3.87,0,0,0,12,18a3.87,3.87,0,0,0,3.47-2.83.5.5,0,0,0-.06-.46A.52.52,0,0,0,15,14.5ZM12,17a2.66,2.66,0,0,1-2.23-1.5h4.46A2.66,2.66,0,0,1,12,17Z"/><path class="a" d="M10,11a1,1,0,1,0-1,1A1,1,0,0,0,10,11ZM9,11H9Z"/><path class="a" d="M15,10a1,1,0,1,0,1,1A1,1,0,0,0,15,10Zm0,1Z"/></svg>