<svg id="icn_phone_remove_iphone_device"  data-name="Working layer" xmlns="http://www.w3.org/2000/svg" viewBox="0 0 24 24"><defs><style>.cls-1{fill:currentColor;}</style></defs><title>icn_phone_remove_iphone_device</title><path class="cls-1" d="M15.3,22.5H8.7A2.8,2.8,0,0,1,6,19.62V5.38A2.8,2.8,0,0,1,8.7,2.5h6.6A2.8,2.8,0,0,1,18,5.38V6.5a.5.5,0,0,1-1,0V5.38A1.79,1.79,0,0,0,15.3,3.5H8.7A1.79,1.79,0,0,0,7,5.38V19.62A1.79,1.79,0,0,0,8.7,21.5h6.6A1.79,1.79,0,0,0,17,19.62V17.5a.5.5,0,0,1,1,0v2.12A2.8,2.8,0,0,1,15.3,22.5ZM13,19a1,1,0,1,0-1,1A1,1,0,0,0,13,19Zm5.71-7,2.14-2.15a.49.49,0,1,0-.7-.7L18,11.29,15.85,9.15a.49.49,0,0,0-.7.7L17.29,12l-2.14,2.15a.48.48,0,0,0,0,.7.48.48,0,0,0,.7,0L18,12.71l2.15,2.14a.48.48,0,0,0,.7,0,.48.48,0,0,0,0-.7Z"/></svg>