<svg id="icn_camera" xmlns="http://www.w3.org/2000/svg" viewBox="0 0 24 24"><defs><style>.a{fill:currentColor;}</style></defs><title>icn_camera</title><path class="a" d="M19.5,6H16.25V5.5A1.5,1.5,0,0,0,14.75,4H9.25a1.5,1.5,0,0,0-1.5,1.5V6H4.5A2.5,2.5,0,0,0,2,8.5v8A2.5,2.5,0,0,0,4.5,19h15A2.5,2.5,0,0,0,22,16.5v-8A2.5,2.5,0,0,0,19.5,6ZM8.75,5.5a.5.5,0,0,1,.5-.5h5.5a.5.5,0,0,1,.5.5V6H8.75ZM21,16.5A1.5,1.5,0,0,1,19.5,18H4.5A1.5,1.5,0,0,1,3,16.5v-8A1.5,1.5,0,0,1,4.5,7h15A1.5,1.5,0,0,1,21,8.5Z"/><path class="a" d="M19.5,8h-2a.5.5,0,0,0,0,1h2a.5.5,0,0,0,0-1Z"/><path class="a" d="M12,8a4.5,4.5,0,1,0,4.5,4.5A4.51,4.51,0,0,0,12,8Zm0,8a3.5,3.5,0,1,1,3.5-3.5A3.5,3.5,0,0,1,12,16Z"/></svg>