<svg id="icn_paper_stack" xmlns="http://www.w3.org/2000/svg" viewBox="0 0 24 24"><defs><style>.a{fill:currentColor;}</style></defs><title>icn_paper_stack</title><path class="a" d="M21,10.56a.53.53,0,0,0-.22-.48L18.69,8.69l2-.72A.5.5,0,0,0,21,7.56a.53.53,0,0,0-.22-.48l-6-4A.54.54,0,0,0,14.33,3l-11,4A.5.5,0,0,0,3,7.44a.53.53,0,0,0,.22.48L5.31,9.31l-2,.72a.5.5,0,0,0-.33.41.53.53,0,0,0,.22.48l2.09,1.39-2,.72a.5.5,0,0,0-.33.41.53.53,0,0,0,.22.48l2.09,1.39-2,.72a.5.5,0,0,0-.33.41.53.53,0,0,0,.22.48l6,4A.57.57,0,0,0,9.5,21a.47.47,0,0,0,.17,0l11-4a.5.5,0,0,0,.33-.41.53.53,0,0,0-.22-.48l-2.09-1.39,2-.72a.5.5,0,0,0,.33-.41.53.53,0,0,0-.22-.48l-2.09-1.39,2-.72A.5.5,0,0,0,21,10.56Zm-6.57-6.5,5,3.31-2,.72h0L9.57,10.94l-5-3.31Zm3.09,11.06,1.88,1.25L9.57,19.94l-5-3.31L6.34,16l2.88,1.92a.48.48,0,0,0,.26.07h0a.47.47,0,0,0,.17,0Zm0-3,1.88,1.25-2,.72h0L9.57,16.94l-5-3.31L6.34,13l2.88,1.92a.48.48,0,0,0,.26.07h0a.47.47,0,0,0,.17,0Zm-.1-1h0L9.57,13.94l-5-3.31L6.34,10l2.88,1.92a.48.48,0,0,0,.26.07h0a.47.47,0,0,0,.17,0l7.85-2.85,1.88,1.25Z"/></svg>