<svg id="icn_mail_empty" xmlns="http://www.w3.org/2000/svg" viewBox="0 0 24 24"><defs><style>.a{fill:currentColor;}</style></defs><title>icn_mail_empty</title><path class="a" d="M23,7.5a3.49,3.49,0,0,0-6.62-1.56H3.4L3.28,6a2.48,2.48,0,0,0-2,1.16c0,.07-.06.11-.05.11a.81.81,0,0,0-.1.24A1.93,1.93,0,0,0,1,8.14v9.12a2.76,2.76,0,0,0,2.84,2.68H18.16A2.76,2.76,0,0,0,21,17.26V10.65A3.5,3.5,0,0,0,23,7.5ZM2.06,7.89l0-.1a.91.91,0,0,0,.07-.14A1.43,1.43,0,0,1,3.31,7H16.06A3.43,3.43,0,0,0,16,7.5a3.49,3.49,0,0,0,1.73,3l-5.66,3.76a1.94,1.94,0,0,1-2.14,0L2.6,9.4A1.41,1.41,0,0,1,2,8.27,1.16,1.16,0,0,1,2.06,7.89ZM20,17.26a1.77,1.77,0,0,1-1.84,1.68H3.84A1.77,1.77,0,0,1,2,17.26V10.18a.71.71,0,0,0,.09.07l7.28,4.84a3,3,0,0,0,3.26,0l6.25-4.15a4.2,4.2,0,0,0,.62.06A4,4,0,0,0,20,11ZM19.5,10A2.5,2.5,0,1,1,22,7.5,2.5,2.5,0,0,1,19.5,10Z"/></svg>