<svg id="icn_plane" xmlns="http://www.w3.org/2000/svg" viewBox="0 0 24 24"><defs><style>.a{fill:currentColor;}</style></defs><title>icn_plane</title><path class="a" d="M21.46,14.64H18.93a.43.43,0,0,0-.22.06A6.55,6.55,0,0,0,17.47,13L16,11.45l2.28-1.36.35.35a.47.47,0,0,0,.35.14.5.5,0,0,0,.36-.14.51.51,0,0,0,0-.71l-.17-.17L21.76,8A.48.48,0,0,0,22,7.63a.5.5,0,0,0-.15-.42L20.58,5.94a.47.47,0,0,0-.35-.15H10.29L8.43,3.94A6.53,6.53,0,0,0,3.76,2,1.76,1.76,0,0,0,2,3.76,6.53,6.53,0,0,0,3.94,8.43l1.85,1.86v9.94a.47.47,0,0,0,.15.35l1.27,1.27a.49.49,0,0,0,.35.15h.07A.48.48,0,0,0,8,21.76l1.57-2.64.17.17a.52.52,0,0,0,.71,0,.51.51,0,0,0,0-.71l-.35-.35L11.45,16l1.61,1.6a6.45,6.45,0,0,0,1.62,1.19.43.43,0,0,0,0,.19v2.53a.5.5,0,0,0,.31.46.43.43,0,0,0,.19,0,.47.47,0,0,0,.35-.15l2.41-2.4.08-.05.33-.34.27.27a.52.52,0,0,0,.35.14.54.54,0,0,0,.36-.14.51.51,0,0,0,0-.71L19,18.31l.26-.26a.56.56,0,0,0,0-.08l2.48-2.48a.47.47,0,0,0,.11-.54A.5.5,0,0,0,21.46,14.64ZM20,6.79l.67.67-2.3,1.37L18,8.47a.5.5,0,0,0-.71,0,.5.5,0,0,0,0,.7l.19.19-2.28,1.36L11.29,6.79ZM9.36,17.5l-.19-.19a.5.5,0,0,0-.7,0,.5.5,0,0,0,0,.71l.36.37-1.37,2.3L6.79,20V11.29l3.93,3.93ZM4.64,7.72A5.55,5.55,0,0,1,3,4L4,3A5.55,5.55,0,0,1,7.72,4.64l9.05,9a5.7,5.7,0,0,1,1.65,3.82l-.11.11-1.55-1.56a.5.5,0,0,0-.71.71l1.56,1.55-.12.12H17a5.62,5.62,0,0,1-3.25-1.58Z"/></svg>