<svg id="icn_warning_outline" xmlns="http://www.w3.org/2000/svg" viewBox="0 0 24 24"><defs><style>.a{fill:currentColor;}</style></defs><title>icn_warning_outline</title><path class="a" d="M21.84,19.05,13.12,3.64a1.33,1.33,0,0,0-2.24,0L2.16,19.05a1.29,1.29,0,0,0,0,1.29A1.26,1.26,0,0,0,3.28,21H20.72a1.26,1.26,0,0,0,1.11-.63A1.29,1.29,0,0,0,21.84,19.05Zm-.88.78a.25.25,0,0,1-.24.14H3.28A.25.25,0,0,1,3,19.83a.26.26,0,0,1,0-.28L11.75,4.13a.29.29,0,0,1,.5,0L21,19.55A.26.26,0,0,1,21,19.83ZM11,9h2v5.31H11Zm2,8a1,1,0,1,1-1-1A1,1,0,0,1,13,17Z"/></svg>