<svg id="icn_first aid" xmlns="http://www.w3.org/2000/svg" viewBox="0 0 24 24"><defs><style>.a{fill:currentColor;}</style></defs><title>icn_first aid</title><path class="a" d="M19.5,6H17V5.5A2.5,2.5,0,0,0,14.5,3h-5A2.5,2.5,0,0,0,7,5.5V6H4.5A2.5,2.5,0,0,0,2,8.5v10A2.5,2.5,0,0,0,4.5,21h15A2.5,2.5,0,0,0,22,18.5V8.5A2.5,2.5,0,0,0,19.5,6ZM8,5.5A1.5,1.5,0,0,1,9.5,4h5A1.5,1.5,0,0,1,16,5.5V6H8Zm13,13A1.5,1.5,0,0,1,19.5,20H4.5A1.5,1.5,0,0,1,3,18.5V8.5A1.5,1.5,0,0,1,4.5,7h15A1.5,1.5,0,0,1,21,8.5Zm-6-6v1H12.5V16h-1V13.5H9v-1h2.5V10h1v2.5Z"/></svg>