<svg id="icn_document_xml" xmlns="http://www.w3.org/2000/svg" viewBox="0 0 24 24"><defs><style>.a{fill:currentColor;}</style></defs><title>icn_document_xml</title><path class="b" d="M18.85,6.15l-4-4A.47.47,0,0,0,14.5,2H7A2,2,0,0,0,5,4V20a2,2,0,0,0,2,2H17a2,2,0,0,0,2-2V6.5A.47.47,0,0,0,18.85,6.15ZM18,20a1,1,0,0,1-1,1H7a1,1,0,0,1-1-1V4A1,1,0,0,1,7,3h7a.66.66,0,0,0,0,.15V6.5a.5.5,0,0,0,.5.5h3.35A.66.66,0,0,0,18,7Z"/><path class="b" d="M7,6.5A.5.5,0,0,1,7.5,6h4a.5.5,0,0,1,0,1h-4A.5.5,0,0,1,7,6.5Z"/><path class="b" d="M7,8.5A.5.5,0,0,1,7.5,8h4a.5.5,0,0,1,0,1h-4A.5.5,0,0,1,7,8.5Z"/><path class="b" d="M17,10.5a.5.5,0,0,1-.5.5h-9a.5.5,0,0,1,0-1h9A.5.5,0,0,1,17,10.5Z"/><polygon class="b" points="8.63 15.18 9.21 13.99 10.19 13.99 9.19 15.76 10.21 17.55 9.23 17.55 8.63 16.35 8.03 17.55 7.04 17.55 8.06 15.76 7.07 13.99 8.05 13.99 8.63 15.18"/><polygon class="b" points="11.54 13.99 12.33 16.47 13.12 13.99 14.25 13.99 14.25 17.55 13.39 17.55 13.39 16.72 13.47 15.02 12.62 17.55 12.05 17.55 11.19 15.02 11.27 16.72 11.27 17.55 10.41 17.55 10.41 13.99 11.54 13.99"/><polygon class="b" points="15.57 16.89 17.06 16.89 17.06 17.55 14.71 17.55 14.71 13.99 15.57 13.99 15.57 16.89"/></svg>