<svg id="icn_nametag" xmlns="http://www.w3.org/2000/svg" viewBox="0 0 24 24"><defs><style>.a{fill:currentColor;}</style></defs><title>icn_nametag</title><path class="a" d="M10.1,12.4a2.44,2.44,0,0,0,.9-1.9,2.5,2.5,0,0,0-5,0,2.44,2.44,0,0,0,.9,1.9A3.51,3.51,0,0,0,5,15.5,1.5,1.5,0,0,0,6.5,17h4A1.5,1.5,0,0,0,12,15.5,3.51,3.51,0,0,0,10.1,12.4ZM7,10.5A1.5,1.5,0,1,1,8.5,12,1.5,1.5,0,0,1,7,10.5ZM10.5,16h-4a.5.5,0,0,1-.5-.5,2.5,2.5,0,0,1,5,0A.5.5,0,0,1,10.5,16Zm10-13H3.5A1.5,1.5,0,0,0,2,4.5v12A2.5,2.5,0,0,0,4.5,19h15A2.5,2.5,0,0,0,22,16.5V4.5A1.5,1.5,0,0,0,20.5,3Zm-1,15H4.5A1.5,1.5,0,0,1,3,16.5V6H21V16.5A1.5,1.5,0,0,1,19.5,18ZM19,13.5a.5.5,0,0,1-.5.5h-5a.5.5,0,0,1,0-1h5A.5.5,0,0,1,19,13.5Zm0,2a.5.5,0,0,1-.5.5h-5a.5.5,0,0,1,0-1h5A.5.5,0,0,1,19,15.5Zm0-6.2v1.4A1.3,1.3,0,0,1,17.7,12H14.3A1.3,1.3,0,0,1,13,10.7V9.3A1.3,1.3,0,0,1,14.3,8h3.4A1.3,1.3,0,0,1,19,9.3Z"/></svg>