<svg id="icn_bulb" xmlns="http://www.w3.org/2000/svg" viewBox="0 0 24 24"><defs><style>.a{fill:currentColor;}</style></defs><title>icn_bulb</title><path class="a" d="M18.88,7.44A6.84,6.84,0,0,0,13.5,2.15a7.26,7.26,0,0,0-6,1.46A6.57,6.57,0,0,0,7.78,14.1c.29.21.25,1.48.23,2,0,.17,0,.32,0,.44v2a.51.51,0,0,0,.15.36c.46.44,1,1,1.49,1.49s1,1.07,1.51,1.51a.52.52,0,0,0,.35.14h1a.52.52,0,0,0,.35-.14c.46-.44,1-1,1.51-1.51s1-1.05,1.49-1.49A.51.51,0,0,0,16,18.5v-2c0-.11,0-.25,0-.4,0-.49,0-1.8.26-2A6.6,6.6,0,0,0,18.88,7.44ZM14.45,16v2H9.55V16ZM12.3,21h-.6c-.42-.41-.88-.88-1.34-1.35L9.72,19h4.56l-.64.65C13.18,20.12,12.72,20.59,12.3,21Zm3.36-7.73A2.25,2.25,0,0,0,15,15H12.5V9h1.27a.5.5,0,0,0,0-1H10.23a.5.5,0,0,0,0,1H11.5v6H9a2.21,2.21,0,0,0-.64-1.72,5.57,5.57,0,0,1-.28-8.91A6.24,6.24,0,0,1,13.3,3.13a5.82,5.82,0,0,1,4.59,4.5A5.61,5.61,0,0,1,15.66,13.27Z"/></svg>