<svg id="icn_unlink" xmlns="http://www.w3.org/2000/svg" viewBox="0 0 24 24"><defs><style>.a{fill:currentColor;}</style></defs><title>icn_unlink</title><path class="a" d="M12.74,15.47a3.57,3.57,0,0,1-3.31-2.22.51.51,0,0,1,.28-.66.5.5,0,0,1,.65.28,2.59,2.59,0,0,0,1.38,1.4,2.54,2.54,0,0,0,2,0L19.4,12a2.57,2.57,0,0,0,1.41-3.35,2.53,2.53,0,0,0-1.38-1.4,2.59,2.59,0,0,0-2,0L15,8.21a.49.49,0,0,1-.65-.27.49.49,0,0,1,.27-.65l2.49-1a3.54,3.54,0,0,1,2.73,0,3.57,3.57,0,0,1,0,6.6l-5.69,2.32A3.72,3.72,0,0,1,12.74,15.47Zm-2.55,4.9,2.15-3.43a.49.49,0,0,0-.16-.69.51.51,0,0,0-.69.16L9.34,19.84A2.58,2.58,0,0,1,4.67,19,2.47,2.47,0,0,1,5,17.11L8.22,12A2.52,2.52,0,0,1,9.8,10.84a2.59,2.59,0,0,1,1.94.34.5.5,0,0,0,.53-.85,3.56,3.56,0,0,0-2.68-.46,3.46,3.46,0,0,0-2.22,1.56L4.14,16.58a3.48,3.48,0,0,0-.44,2.67,3.53,3.53,0,0,0,1.59,2.22,3.57,3.57,0,0,0,1.9.55A3.52,3.52,0,0,0,10.19,20.37Zm.66-13.52a.48.48,0,0,0,0-.7l-3-3a.49.49,0,0,0-.7.7l3,3a.48.48,0,0,0,.7,0ZM13,5.5v-4a.5.5,0,0,0-1,0v4a.5.5,0,0,0,1,0Zm-3,3A.5.5,0,0,0,9.5,8h-4a.5.5,0,0,0,0,1h4A.5.5,0,0,0,10,8.5Z"/></svg>