<svg id="icn_fingerprint" xmlns="http://www.w3.org/2000/svg"  viewBox="0 0 24 24"><defs><style>.a{fill:currentColor;}</style><clipPath ><path class="a" d="M-296-329.27a1,1,0,0,0,1,1,1,1,0,0,0,1-1,1,1,0,0,0-1-1A1,1,0,0,0-296-329.27Zm12,0a1,1,0,0,0-1-1,1,1,0,0,0-1,1,1,1,0,0,0,1,1A1,1,0,0,0-284-329.27Zm-7-9v4h2v-1.92a7,7,0,0,1,6,6.92,7,7,0,0,1-7,7,7,7,0,0,1-7-7,6.92,6.92,0,0,1,1.58-4.42l5.42,5.42,1.41-1.41-6.8-6.8v0a9,9,0,0,0-3.61,7.19,9,9,0,0,0,9,9,9,9,0,0,0,9-9,9,9,0,0,0-9-9Zm0,14a1,1,0,0,0,1,1,1,1,0,0,0,1-1,1,1,0,0,0-1-1A1,1,0,0,0-291-324.27Z"/></clipPath></defs><title>icn_fingerprint</title><path class="b" d="M3.5,12H3.42A.49.49,0,0,1,3,11.42C4.31,3.61,10.22,3,12,3c3,0,6.86,2,8,5.34a.5.5,0,1,1-.94.32C18.07,5.78,14.63,4,12,4c-1.58,0-6.83.55-8,7.58A.49.49,0,0,1,3.5,12ZM15,21.5a.5.5,0,0,0-.5-.5,5.92,5.92,0,0,1-5-2.27,8.21,8.21,0,0,1-1.52-5C8,10.15,9.5,8,12,8c2.24,0,4,2.42,4,5.5a.5.5,0,0,0,.5.5.5.5,0,0,0,.5-.5C17,9.85,14.8,7,12,7,9.59,7,7,8.77,7,13.75a9.18,9.18,0,0,0,1.73,5.59A7,7,0,0,0,14.5,22,.5.5,0,0,0,15,21.5ZM17.58,18a.49.49,0,0,0,.41-.57.5.5,0,0,0-.57-.41,4.71,4.71,0,0,1-4-.79A5.28,5.28,0,0,1,12,12.52a.5.5,0,0,0-.48-.52.51.51,0,0,0-.52.48A6.2,6.2,0,0,0,12.77,17a4.93,4.93,0,0,0,3.39,1.16A8.06,8.06,0,0,0,17.58,18ZM17,19.5a.5.5,0,0,0-.5-.5c-5.66,0-6.5-4.07-6.5-6.5A2.24,2.24,0,0,1,12,10c1.54,0,1.95,1.65,2,3.17a.22.22,0,0,0,0,.08A2.63,2.63,0,0,0,16.5,16,2.42,2.42,0,0,0,19,13.5C19,9.58,17.17,5,12,5,7.88,5,5,8.5,5,13.5a10.57,10.57,0,0,0,1,5.22.5.5,0,1,0,.9-.44A9.58,9.58,0,0,1,6,13.5C6,9.08,8.47,6,12,6c4.43,0,6,4,6,7.5A1.42,1.42,0,0,1,16.5,15,1.61,1.61,0,0,1,15,13.48C15,9.58,13.12,9,12,9a3.25,3.25,0,0,0-3,3.5c0,2.25.73,7.5,7.5,7.5A.5.5,0,0,0,17,19.5Zm-5.5-7"/></svg>