<svg id="icn_lotto"  data-name="Layer 1" xmlns="http://www.w3.org/2000/svg" viewBox="0 0 24 24"><defs><style>.cls-1{fill:currentColor;}</style></defs><title>icn_lotto</title><path class="cls-1" d="M11.47,20.94,3.18,16.6a10,10,0,0,1,0-9.49l3.36,3.3a2.08,2.08,0,0,1,0,2.86L3.18,16.6M20.82,7.18a10,10,0,0,1,0,9.36l-3.32-3.27a2.08,2.08,0,0,1,0-2.86l3.29-3.23m-4,13.5A10,10,0,0,1,12,21.89a9.85,9.85,0,0,1-4.71-1.18l3.33-3.39a2.08,2.08,0,0,1,2.86,0l3.3,3.36M12.05,2.1A2.26,2.26,0,1,1,9.79,4.36,2.26,2.26,0,0,1,12.05,2.1M19.8,19.62a1.66,1.66,0,0,0,0-2.35l-5.4-5.4,5.4-5.41a1.66,1.66,0,0,0-2.35-2.34l-5.4,5.4-5.4-5.4A1.66,1.66,0,0,0,4.3,6.46l5.4,5.41-5.4,5.4a1.66,1.66,0,0,0,2.35,2.35l5.4-5.4,5.4,5.4a1.66,1.66,0,0,0,2.35,0"/></svg>