<svg id="icn_view_grid"  xmlns="http://www.w3.org/2000/svg" viewBox="0 0 24 24"><defs><style>.cls-1{fill:currentColor;}</style></defs><title>icn_view_grid</title><path class="cls-1" d="M10.2,11H4.8a.8.8,0,0,1-.8-.8V4.8A.8.8,0,0,1,4.8,4h5.4a.8.8,0,0,1,.8.8v5.4A.8.8,0,0,1,10.2,11ZM5,10h5V5H5Zm14.2,1H13.8a.8.8,0,0,1-.8-.8V4.8a.8.8,0,0,1,.8-.8h5.4a.8.8,0,0,1,.8.8v5.4A.8.8,0,0,1,19.2,11ZM14,10h5V5H14ZM10.2,20H4.8a.8.8,0,0,1-.8-.8V13.8a.8.8,0,0,1,.8-.8h5.4a.8.8,0,0,1,.8.8v5.4A.8.8,0,0,1,10.2,20ZM5,19h5V14H5Zm14.2,1H13.8a.8.8,0,0,1-.8-.8V13.8a.8.8,0,0,1,.8-.8h5.4a.8.8,0,0,1,.8.8v5.4A.8.8,0,0,1,19.2,20ZM14,19h5V14H14Z"/></svg>