<svg id="icn_robot" xmlns="http://www.w3.org/2000/svg" viewBox="0 0 24 24"><defs><style>.a{fill:currentColor;}</style></defs><title>icn_robot</title><path class="a" d="M14,6a2,2,0,1,1-2-2A2,2,0,0,1,14,6Zm-2,4a2,2,0,1,0,2,2A2,2,0,0,0,12,10Zm0,6a2,2,0,1,0,2,2A2,2,0,0,0,12,16Zm4-2v2h4a4,4,0,0,1-4,4v1.5a.5.5,0,0,1-.5.5h-7a.5.5,0,0,1-.5-.5V20a4,4,0,0,1-4-4H8V14a4,4,0,0,1-4-4H8V8A4,4,0,0,1,4,4H8.05A2.5,2.5,0,0,1,10.5,2h3A2.5,2.5,0,0,1,16,4H20a4,4,0,0,1-4,4v2h4A4,4,0,0,1,16,14Zm-1-.14V4.5A1.5,1.5,0,0,0,13.5,3h-3A1.5,1.5,0,0,0,9,4.5V21h6V13.86Z"/></svg>