<svg id="icn_card_cloud" xmlns="http://www.w3.org/2000/svg" viewBox="0 0 24 24"><defs><style>.a{fill:currentColor;}</style></defs><title>icn_card_cloud</title><path class="a" d="M21.42,9.35A2.78,2.78,0,0,0,19.17,8.2a3.44,3.44,0,0,0-.46,0A4.44,4.44,0,0,0,14.5,5a4.34,4.34,0,0,0-3.38,1.64A3.59,3.59,0,0,0,7.65,8.19,3.71,3.71,0,0,0,7.09,11H3.5A1.5,1.5,0,0,0,2,12.5v7A1.5,1.5,0,0,0,3.5,21h12A1.5,1.5,0,0,0,17,19.5V14h2.08a2.88,2.88,0,0,0,2.78-2A2.94,2.94,0,0,0,21.42,9.35ZM16,19.5a.5.5,0,0,1-.5.5H3.5a.5.5,0,0,1-.5-.5V16H16ZM16,14H3V12.5a.5.5,0,0,1,.5-.5h12a.5.5,0,0,1,.5.5Zm4.9-2.27A1.86,1.86,0,0,1,19.08,13H17v-.5A1.5,1.5,0,0,0,15.5,11H8.11a2.77,2.77,0,0,1,.36-2.25A2.61,2.61,0,0,1,10.61,7.6a2.39,2.39,0,0,1,.59.08.52.52,0,0,0,.54-.2A3.33,3.33,0,0,1,14.5,6a3.45,3.45,0,0,1,3.35,2.94.52.52,0,0,0,.25.36.54.54,0,0,0,.45,0,1.46,1.46,0,0,1,.62-.12,1.8,1.8,0,0,1,1.45.74A2,2,0,0,1,20.9,11.73Z"/><path class="a" d="M4.5,18h3a.5.5,0,0,0,0-1h-3a.5.5,0,0,0,0,1Z"/></svg>