<svg id="icn_motorbike" xmlns="http://www.w3.org/2000/svg" viewBox="0 0 24 24"><defs><style>.a{fill:currentColor;}</style></defs><title>icn_motorbike</title><path class="a" d="M18.5,13a3.08,3.08,0,0,0-.91.13L17.1,12h.4c2,0,2.79,0,3.65.85a.48.48,0,0,0,.7,0,.48.48,0,0,0,0-.7A3.81,3.81,0,0,0,19,11V9.16a.5.5,0,0,0-.08-.26l-1-1.66A.5.5,0,0,0,17.5,7h-.71l-1-1.75A.48.48,0,0,0,15.32,5H13.54a.5.5,0,0,0-.5.49L13,7H12.5a.51.51,0,0,0-.45.28l-.83,1.66L6.5,8h-4a.5.5,0,0,0-.5.5v2a.5.5,0,0,0,.5.5H4.38l5.08,2.54-1.25.75A3.5,3.5,0,1,0,9,16.5a3.4,3.4,0,0,0-.28-1.35L10,14.39V15.5a.5.5,0,0,0,.5.5h3a.51.51,0,0,0,.45-.28L15.81,12H16a.14.14,0,0,0,0,.06l.64,1.47A3.48,3.48,0,1,0,18.5,13Zm-13,6a2.5,2.5,0,1,1,1.84-4.19l-2.1,1.26a.51.51,0,0,0-.17.69A.52.52,0,0,0,5.5,17a.48.48,0,0,0,.26-.07l2.1-1.26A2.54,2.54,0,0,1,8,16.5,2.5,2.5,0,0,1,5.5,19Zm10-8a.51.51,0,0,0-.45.28L13.19,15H11V13.5a.33.33,0,0,0,0-.17.45.45,0,0,0-.11-.19.6.6,0,0,0-.13-.09l-6-3A.54.54,0,0,0,4.5,10H3V9H6.4l5,1A.5.5,0,0,0,12,9.72L12.81,8h.69a.51.51,0,0,0,.5-.49L14,6h1l1,1.75A.48.48,0,0,0,16.5,8h.72L18,9.3V11Zm3,8a2.5,2.5,0,0,1-1.43-4.55l1,2.25a.5.5,0,0,0,.46.3.48.48,0,0,0,.2,0A.51.51,0,0,0,19,16.3l-1-2.25A2.76,2.76,0,0,1,18.5,14a2.5,2.5,0,0,1,0,5Z"/></svg>