<svg id="icn_document_svg" xmlns="http://www.w3.org/2000/svg" viewBox="0 0 24 24"><defs><style>.a{fill:currentColor;}</style></defs><title>icn_document_svg</title><path class="a" d="M18.85,6.15l-4-4A.47.47,0,0,0,14.5,2H7A2,2,0,0,0,5,4V20a2,2,0,0,0,2,2H17a2,2,0,0,0,2-2V6.5A.47.47,0,0,0,18.85,6.15ZM18,20a1,1,0,0,1-1,1H7a1,1,0,0,1-1-1V4A1,1,0,0,1,7,3h7a.66.66,0,0,0,0,.15V6.5a.5.5,0,0,0,.5.5h3.35A.66.66,0,0,0,18,7ZM7,6.5A.5.5,0,0,1,7.5,6h4a.5.5,0,0,1,0,1h-4A.5.5,0,0,1,7,6.5Zm0,2A.5.5,0,0,1,7.5,8h4a.5.5,0,0,1,0,1h-4A.5.5,0,0,1,7,8.5Zm10,2a.5.5,0,0,1-.5.5h-9a.5.5,0,0,1,0-1h9A.5.5,0,0,1,17,10.5ZM9.15,16.91A.37.37,0,0,0,9,16.59a1.7,1.7,0,0,0-.52-.24,4.66,4.66,0,0,1-.6-.24,1.15,1.15,0,0,1-.76-1,1,1,0,0,1,.19-.57,1.22,1.22,0,0,1,.54-.39A2.13,2.13,0,0,1,8.63,14a1.79,1.79,0,0,1,.75.15,1.24,1.24,0,0,1,.52.43,1.1,1.1,0,0,1,.19.64H9.15A.47.47,0,0,0,9,14.83a.56.56,0,0,0-.39-.13.6.6,0,0,0-.4.11.33.33,0,0,0-.15.28.33.33,0,0,0,.16.27,1.92,1.92,0,0,0,.57.26,3,3,0,0,1,.66.28,1.11,1.11,0,0,1,.64,1,1,1,0,0,1-.39.81A1.76,1.76,0,0,1,8.64,18a2,2,0,0,1-.86-.17,1.25,1.25,0,0,1-.58-.47,1.19,1.19,0,0,1-.2-.68H8a.59.59,0,0,0,.16.46.78.78,0,0,0,.53.15.58.58,0,0,0,.37-.1A.34.34,0,0,0,9.15,16.91Zm2.76,0L12.69,14h1.05L12.43,18h-1L10.09,14h1.05Zm5.11.58a1.4,1.4,0,0,1-.64.39,2.69,2.69,0,0,1-.92.15,1.59,1.59,0,0,1-1.22-.47,1.87,1.87,0,0,1-.49-1.31v-.33a2.28,2.28,0,0,1,.21-1,1.52,1.52,0,0,1,.58-.67,1.7,1.7,0,0,1,.88-.23,1.66,1.66,0,0,1,1.13.34,1.42,1.42,0,0,1,.48,1h-.91a.71.71,0,0,0-.21-.46.65.65,0,0,0-.46-.14.63.63,0,0,0-.55.3,1.66,1.66,0,0,0-.19.86v.23a1.59,1.59,0,0,0,.2.88.7.7,0,0,0,.63.3.8.8,0,0,0,.55-.17v-.6h-.66v-.65H17Z"/></svg>