<svg id="icn_star_solid" xmlns="http://www.w3.org/2000/svg" viewBox="0 0 24 24"><defs><style>.a{fill:currentColor;}</style></defs><title>icn_star_solid</title><path class="a" d="M17.22,14a.8.8,0,0,0-.28.87l1.19,3.81a1.77,1.77,0,0,1-.66,2,1.64,1.64,0,0,1-2,0L12.4,18.29a.66.66,0,0,0-.8,0L8.5,20.65a1.67,1.67,0,0,1-1,.35,1.61,1.61,0,0,1-1-.31,1.75,1.75,0,0,1-.66-2l1.18-3.82A.78.78,0,0,0,6.78,14L3.69,11.68a1.74,1.74,0,0,1-.59-2A1.67,1.67,0,0,1,4.7,8.52H8.54A.71.71,0,0,0,9.2,8l1.18-3.82a1.69,1.69,0,0,1,3.23,0L14.8,8a.71.71,0,0,0,.66.52H19.3a1.68,1.68,0,0,1,1.6,1.17,1.76,1.76,0,0,1-.59,2Z"/></svg>