<svg id="Icn_folder_check" xmlns="http://www.w3.org/2000/svg"  viewBox="0 0 24 24"><defs><style>.a{fill:currentColor;}</style><clipPath ><path class="a" d="M-120-328.27a1,1,0,0,0,1,1,1,1,0,0,0,1-1,1,1,0,0,0-1-1A1,1,0,0,0-120-328.27Zm12,0a1,1,0,0,0-1-1,1,1,0,0,0-1,1,1,1,0,0,0,1,1A1,1,0,0,0-108-328.27Zm-7-9v4h2v-1.92a7,7,0,0,1,6,6.92,7,7,0,0,1-7,7,7,7,0,0,1-7-7,6.92,6.92,0,0,1,1.58-4.42l5.42,5.42,1.41-1.41-6.8-6.8v0a9,9,0,0,0-3.61,7.19,9,9,0,0,0,9,9,9,9,0,0,0,9-9,9,9,0,0,0-9-9Zm0,14a1,1,0,0,0,1,1,1,1,0,0,0,1-1,1,1,0,0,0-1-1A1,1,0,0,0-115-323.27Z"/></clipPath></defs><title>Icn_folder_check</title><path class="b" d="M19.15,14.45a.48.48,0,0,1,0,.7l-2.4,2.4a.48.48,0,0,1-.7,0l-1.2-1.2a.49.49,0,1,1,.7-.7l.85.84,2.05-2A.48.48,0,0,1,19.15,14.45ZM23,16a6,6,0,0,1-11.19,3H4.5A2.5,2.5,0,0,1,2,16.5v-9A2.5,2.5,0,0,1,4.5,5h4a.47.47,0,0,1,.35.15L10.71,7H19.5A2.5,2.5,0,0,1,22,9.5v3.19A5.9,5.9,0,0,1,23,16ZM3,11H13.69a6,6,0,0,1,6.62,0H21V9.5A1.5,1.5,0,0,0,19.5,8h-9a.47.47,0,0,1-.35-.15L8.29,6H4.5A1.5,1.5,0,0,0,3,7.5Zm8,5a5.93,5.93,0,0,1,1.54-4H3v4.5A1.5,1.5,0,0,0,4.5,18h6.85A5.8,5.8,0,0,1,11,16Zm11,0a4.94,4.94,0,0,0-1-3,5.26,5.26,0,0,0-1-1,5,5,0,0,0-6,0,5,5,0,0,0-2,4,5.11,5.11,0,0,0,.41,2A5.26,5.26,0,0,0,13,19a5,5,0,0,0,8.7-1.31l0-.06A5.16,5.16,0,0,0,22,16Z"/></svg>