<svg id="icn_home" xmlns="http://www.w3.org/2000/svg" viewBox="0 0 24 24"><defs><style>.a{fill:currentColor;}</style></defs><title>icn_home</title><path class="a" d="M20.16,10.3,14.28,4A3.22,3.22,0,0,0,9.72,4L3.84,10.3A3.08,3.08,0,0,0,3,12.42v6.77A1.81,1.81,0,0,0,4.81,21H19.19A1.81,1.81,0,0,0,21,19.19V12.42A3.08,3.08,0,0,0,20.16,10.3ZM20,19.19a.81.81,0,0,1-.81.81H15V15a1,1,0,0,0-1-1H10a1,1,0,0,0-1,1v5H4.81A.81.81,0,0,1,4,19.19V12.42A2.08,2.08,0,0,1,4.57,11l5.88-6.31a2.13,2.13,0,0,1,3.1,0L19.43,11A2.08,2.08,0,0,1,20,12.42Z"/></svg>