<svg id="icn_eye_closed" xmlns="http://www.w3.org/2000/svg" viewBox="0 0 24 24"><defs><style>.a{fill:currentColor;}</style></defs><title>icn_eye_closed</title><path class="a" d="M8.85,15.86h0l7-7h0l1.67-1.67h0l3.33-3.33a.49.49,0,0,0-.7-.7L16.5,6.79A13.78,13.78,0,0,0,12,6C7,6,2,9,2,12c0,1.84,1.88,3.67,4.48,4.82L3.15,20.15a.48.48,0,0,0,0,.7.48.48,0,0,0,.7,0l3.64-3.63h0ZM7,12a5,5,0,0,1,8.15-3.86L13.73,9.56A3,3,0,0,0,12,9a3,3,0,0,0-3,3,3,3,0,0,0,.56,1.73L8.14,15.15A5,5,0,0,1,7,12Zm15,0c0,3-5,6-10,6a14,14,0,0,1-3.42-.45l1.13-1.13A4.92,4.92,0,0,0,12,17a5,5,0,0,0,5-5,4.92,4.92,0,0,0-.58-2.29l2-2.06C20.57,8.8,22,10.4,22,12Z"/></svg>