<svg id="icn_graph_bar_arrow" xmlns="http://www.w3.org/2000/svg" viewBox="0 0 24 24"><defs><style>.a{fill:currentColor;}</style></defs><title>icn_graph_bar_arrow</title><path class="a" d="M4.64,8.41A.5.5,0,0,0,5,8.26L9.55,3.71,14.1,8.26a.53.53,0,0,0,.36.15.48.48,0,0,0,.36-.16L19,3.77V5.5a.5.5,0,0,0,1,0v-3h0s0-.07,0-.11,0-.06,0-.08l0,0a.41.41,0,0,0-.07-.11h0l-.06,0a.21.21,0,0,0-.1-.06.35.35,0,0,0-.11,0H16.5a.5.5,0,0,0,0,1h1.85L14.44,7.19,9.9,2.65a.47.47,0,0,0-.35-.15.49.49,0,0,0-.36.15L4.28,7.56a.5.5,0,0,0,0,.7A.51.51,0,0,0,4.64,8.41Z"/><path class="a" d="M21.5,20H20V10.64a.5.5,0,0,0-1,0V20H15V13.91a.5.5,0,0,0-1,0V20H10V9A.5.5,0,0,0,9,9V20H5V13.91a.5.5,0,0,0-1,0V20H2.5a.5.5,0,0,0,0,1h19a.5.5,0,0,0,0-1Z"/></svg>