<svg id="icn_phone_card" xmlns="http://www.w3.org/2000/svg" viewBox="0 0 24 24"><defs><style>.a{fill:currentColor;}</style></defs><title>icn_phone_card</title><circle class="a" cx="8" cy="19" r="1"/><path class="a" d="M20.5,6H14V4.88A2.8,2.8,0,0,0,11.3,2H4.7A2.8,2.8,0,0,0,2,4.88V19.12A2.8,2.8,0,0,0,4.7,22h6.6A2.8,2.8,0,0,0,14,19.12V16h6.5A1.5,1.5,0,0,0,22,14.5v-7A1.5,1.5,0,0,0,20.5,6ZM13,19.12A1.79,1.79,0,0,1,11.3,21H4.7A1.79,1.79,0,0,1,3,19.12V4.88A1.79,1.79,0,0,1,4.7,3h6.6A1.79,1.79,0,0,1,13,4.88V6H8.5A1.5,1.5,0,0,0,7,7.5v7A1.5,1.5,0,0,0,8.5,16H13Zm8-4.62a.5.5,0,0,1-.5.5H8.5a.5.5,0,0,1-.5-.5V11H21ZM8,9V7.5A.5.5,0,0,1,8.5,7h12a.5.5,0,0,1,.5.5V9Z"/><path class="a" d="M9.5,13h2a.5.5,0,0,0,0-1h-2a.5.5,0,0,0,0,1Z"/></svg>