<svg id="icn_phone" xmlns="http://www.w3.org/2000/svg" viewBox="0 0 24 24"><defs><style>.a{fill:currentColor;}</style></defs><title>icn_phone</title><path class="a" d="M17.07,22a15.31,15.31,0,0,1-1.91-.12,15.12,15.12,0,0,1-13-13,14.83,14.83,0,0,1,.06-4.21A3,3,0,0,1,5.19,2h.69a.48.48,0,0,1,.43.25l3,5.06A.49.49,0,0,1,9.15,8L6.1,10.48a11.62,11.62,0,0,0,7.42,7.42l2.53-3a.49.49,0,0,1,.64-.11l5.06,3a.48.48,0,0,1,.25.43v.69a3,3,0,0,1-2.62,3A14.79,14.79,0,0,1,17.07,22ZM5.19,3a2.06,2.06,0,0,0-2,1.78,14.34,14.34,0,0,0-.06,3.93A14.12,14.12,0,0,0,15.28,20.89a14,14,0,0,0,3.94-.06,2.06,2.06,0,0,0,1.78-2v-.4l-4.45-2.6-2.47,3a.49.49,0,0,1-.52.16,12.58,12.58,0,0,1-8.51-8.51.47.47,0,0,1,.16-.52l3-2.47L5.59,3Z"/></svg>