<svg id="icn_people_2" xmlns="http://www.w3.org/2000/svg" viewBox="0 0 24 24"><defs><style>.a{fill:currentColor;}</style></defs><title>icn_people_2</title><path class="a" d="M18.49,9.38a3.51,3.51,0,1,0-4,0,5.48,5.48,0,0,0-3.15,3.21,5.47,5.47,0,0,0-1.88-1.21,3.5,3.5,0,1,0-4,0A5.5,5.5,0,0,0,2,16.5V17a2,2,0,0,0,2,2h7a2,2,0,0,0,2-2h7a2,2,0,0,0,2-2v-.5A5.5,5.5,0,0,0,18.49,9.38ZM14,6.5A2.5,2.5,0,1,1,16.5,9,2.5,2.5,0,0,1,14,6.5Zm-9,2A2.5,2.5,0,1,1,7.5,11,2.5,2.5,0,0,1,5,8.5ZM12,17a1,1,0,0,1-1,1H4a1,1,0,0,1-1-1v-.5a4.5,4.5,0,0,1,9,0Zm9-2a1,1,0,0,1-1,1H13a5.36,5.36,0,0,0-.85-2.47,4.49,4.49,0,0,1,8.88,1Z"/></svg>