<svg id="icn_graph_pie" xmlns="http://www.w3.org/2000/svg" viewBox="0 0 24 24"><defs><style>.a{fill:currentColor;}</style></defs><title>icn_graph_pie</title><path class="b" d="M6.32,20.08A.45.45,0,0,1,6,20,9.93,9.93,0,0,1,6,4a.48.48,0,0,1,.4-.09.49.49,0,0,1,.34.25l4.07,7.58a.51.51,0,0,1,0,.48L6.76,19.82a.49.49,0,0,1-.34.25ZM6.16,5.18a8.94,8.94,0,0,0,0,13.64L9.82,12ZM21.5,11H13a.51.51,0,0,1-.44-.26l-4-7.49a.51.51,0,0,1,.28-.71A10.05,10.05,0,0,1,22,10.42a.45.45,0,0,1-.11.4A.46.46,0,0,1,21.5,11Zm-8.2-1h7.59a9,9,0,0,0-8.82-7,9.5,9.5,0,0,0-2.36.31Zm8.58,3.18A.46.46,0,0,0,21.5,13H13a.51.51,0,0,0-.44.26l-4,7.49a.51.51,0,0,0,.28.71A10.05,10.05,0,0,0,22,13.58.45.45,0,0,0,21.88,13.18Z"/></svg>