<svg id="icn_call_centre" xmlns="http://www.w3.org/2000/svg" viewBox="0 0 24 24"><defs><style>.a{fill:currentColor;}</style></defs><title>icn_call_centre</title><path class="a" d="M19.5,9a1.64,1.64,0,0,0-.5.09V9A7,7,0,0,0,5,9v.09A1.64,1.64,0,0,0,4.5,9,1.5,1.5,0,0,0,3,10.5v5A1.5,1.5,0,0,0,4.5,17a1.64,1.64,0,0,0,.5-.09v.73A4.36,4.36,0,0,0,9.36,22h3.81a.83.83,0,0,0,.83-.83v-.34a.83.83,0,0,0-.83-.83H10.83a.83.83,0,0,0-.83.83V21H9.36A3.35,3.35,0,0,1,6,17.64V9A6,6,0,0,1,18,9v6.5a1.5,1.5,0,0,0,3,0v-5A1.5,1.5,0,0,0,19.5,9Zm-15,7a.5.5,0,0,1-.5-.5v-5a.5.5,0,0,1,1,0v5A.5.5,0,0,1,4.5,16ZM20,15.5a.5.5,0,0,1-1,0v-5a.5.5,0,0,1,1,0Z"/></svg>