<svg id="icn_gauge" xmlns="http://www.w3.org/2000/svg" viewBox="0 0 24 24"><defs><style>.a{fill:currentColor;}</style></defs><title>icn_gauge</title><path class="a" d="M15.81,10.11a.49.49,0,0,1,.08.7l-2.31,3A2,2,0,0,1,14,15a2,2,0,1,1-2-2,1.9,1.9,0,0,1,.79.17l2.32-3A.49.49,0,0,1,15.81,10.11ZM12,5A9.77,9.77,0,0,0,2,14.5v2a.5.5,0,0,0,.5.5h2a.5.5,0,0,0,0-1H3V14.5a8.1,8.1,0,0,1,1.35-4.45l.8.8a.48.48,0,0,0,.7,0,.48.48,0,0,0,0-.7L5,9.24A9.17,9.17,0,0,1,11.5,6V7.5a.5.5,0,0,0,1,0V6a9.17,9.17,0,0,1,6.55,3.22l-.9.91a.48.48,0,0,0,0,.7.48.48,0,0,0,.7,0l.8-.8A8.1,8.1,0,0,1,21,14.5V16H19.5a.5.5,0,0,0,0,1h2a.5.5,0,0,0,.5-.5v-2A9.77,9.77,0,0,0,12,5Z"/></svg>