<svg id="icn_document_generic" xmlns="http://www.w3.org/2000/svg" viewBox="0 0 24 24"><defs><style>.a{fill:currentColor;}</style></defs><title>icn_document_generic</title><path class="a" d="M18.85,6.15l-4-4A.47.47,0,0,0,14.5,2H7A2,2,0,0,0,5,4V20a2,2,0,0,0,2,2H17a2,2,0,0,0,2-2V6.5A.47.47,0,0,0,18.85,6.15ZM18,20a1,1,0,0,1-1,1H7a1,1,0,0,1-1-1V4A1,1,0,0,1,7,3h7V6.5a.5.5,0,0,0,.5.5H18Z"/><path class="a" d="M7.5,7h4.07a.5.5,0,0,0,0-1H7.5a.5.5,0,0,0,0,1Z"/><path class="a" d="M7.5,9h4.07a.5.5,0,0,0,0-1H7.5a.5.5,0,0,0,0,1Z"/><path class="a" d="M7,10.5a.5.5,0,0,0,.5.5h9a.5.5,0,0,0,0-1h-9A.5.5,0,0,0,7,10.5Z"/><path class="a" d="M16.5,13h-9a.5.5,0,0,0-.5.5v5a.5.5,0,0,0,.5.5h9a.5.5,0,0,0,.5-.5v-5A.5.5,0,0,0,16.5,13ZM16,18H8V14h8Z"/></svg>