<svg id="icn_mail" xmlns="http://www.w3.org/2000/svg" viewBox="0 0 24 24"><defs><style>.a{fill:currentColor;}</style></defs><title>icn_mail</title><path class="a" d="M19.16,19H4.84A2.76,2.76,0,0,1,2,16.32V7.2a1.93,1.93,0,0,1,.12-.67.88.88,0,0,1,.1-.24s0,0,0-.11A2.47,2.47,0,0,1,4.4,5H19.6a2.45,2.45,0,0,1,2.1,1.13,2.63,2.63,0,0,1,.12.24.72.72,0,0,1,.07.18A2,2,0,0,1,22,7.2v9.12A2.76,2.76,0,0,1,19.16,19ZM4.4,6a1.45,1.45,0,0,0-1.25.66l-.07.13A1.26,1.26,0,0,0,3,7.2v9.12A1.77,1.77,0,0,0,4.84,18H19.16A1.77,1.77,0,0,0,21,16.32V7.2a.92.92,0,0,0-.06-.33l-.06-.16A1.47,1.47,0,0,0,19.6,6Z"/><path class="a" d="M12,14.9a2.92,2.92,0,0,1-1.63-.5l-7.29-5A2.5,2.5,0,0,1,2,7.38a2.45,2.45,0,0,1,.11-.71.87.87,0,0,1,.1-.25h0s0-.06.06-.13A2.43,2.43,0,0,1,4.4,5H19.6a2.42,2.42,0,0,1,2.11,1.25,1.16,1.16,0,0,1,.11.24.59.59,0,0,1,.08.2,2.56,2.56,0,0,1,.1.69,2.46,2.46,0,0,1-1,2l-7.36,5A2.92,2.92,0,0,1,12,14.9ZM4.4,6a1.4,1.4,0,0,0-1.23.73l-.07.15,0,.1a1.34,1.34,0,0,0-.06.4,1.46,1.46,0,0,0,.61,1.18l7.32,5a1.9,1.9,0,0,0,2.14,0l7.28-5A1.49,1.49,0,0,0,21,7.38a1.34,1.34,0,0,0-.06-.4l-.07-.17,0-.1A1.42,1.42,0,0,0,19.6,6Z"/></svg>