<svg id="icn_graph_line_c" xmlns="http://www.w3.org/2000/svg" viewBox="0 0 24 24"><defs><style>.a{fill:currentColor;}</style></defs><title>icn_graph_line_c</title><path class="a" d="M21.5,20H4V16.17l4.56-4.92a1.89,1.89,0,0,0,.94.25,2,2,0,0,0,1-.28l3.27,3.27a2,2,0,0,0-.28,1,2,2,0,1,0,3.24-1.56l2.43-5.47.33,0a2,2,0,1,0-1.24-.44l-2.43,5.47-.33,0a2,2,0,0,0-1,.28l-3.27-3.27a2,2,0,0,0,.28-1,2,2,0,1,0-3.68,1.08L4,14.7V3.5a.5.5,0,0,0-1,0v17a.5.5,0,0,0,.5.5h18a.5.5,0,0,0,0-1Zm-2-14.5a1,1,0,1,1-1,1A1,1,0,0,1,19.5,5.5Zm-3,10a1,1,0,1,1-1-1A1,1,0,0,1,16.5,15.5Zm-7-7a1,1,0,1,1-1,1A1,1,0,0,1,9.5,8.5Z"/></svg>