<svg id="icn_people_3_add" xmlns="http://www.w3.org/2000/svg" viewBox="0 0 24 24"><defs><style>.a{fill:currentColor;}</style></defs><title>icn_people_3_add</title><path class="a" d="M16.5,6H18V7.5a.5.5,0,0,0,1,0V6h1.5a.5.5,0,0,0,0-1H19V3.5a.5.5,0,0,0-1,0V5H16.5a.5.5,0,0,0,0,1Z"/><path class="a" d="M20.1,13.41a2.5,2.5,0,1,0-3.21,0,3.69,3.69,0,0,0-.86.67,5,5,0,0,0-2.2-1.71,3,3,0,1,0-3.66,0A5,5,0,0,0,8,14.07a3.69,3.69,0,0,0-.86-.67,2.5,2.5,0,1,0-3.21,0A3.49,3.49,0,0,0,2,16.5,1.5,1.5,0,0,0,3.5,18H7.09A1.51,1.51,0,0,0,8.5,19h7a1.51,1.51,0,0,0,1.41-1H20.5A1.5,1.5,0,0,0,22,16.5,3.49,3.49,0,0,0,20.1,13.41ZM17,11.5A1.5,1.5,0,1,1,18.5,13,1.5,1.5,0,0,1,17,11.5ZM10,10a2,2,0,1,1,2,2A2,2,0,0,1,10,10ZM4,11.5A1.5,1.5,0,1,1,5.5,13,1.5,1.5,0,0,1,4,11.5Zm-1,5A2.49,2.49,0,0,1,7.45,15,5,5,0,0,0,7,17H3.5A.5.5,0,0,1,3,16.5Zm13,1a.5.5,0,0,1-.5.5h-7a.5.5,0,0,1-.5-.5V17a4,4,0,0,1,8,0Zm4.5-.5H17A5,5,0,0,0,16.55,15,2.49,2.49,0,0,1,21,16.5.5.5,0,0,1,20.5,17Z"/></svg>