<svg id="Icn_folder" xmlns="http://www.w3.org/2000/svg"  viewBox="0 0 24 24"><defs><style>.a{fill:currentColor;}</style><clipPath ><path class="a" d="M-91-328.27a1,1,0,0,0,1,1,1,1,0,0,0,1-1,1,1,0,0,0-1-1A1,1,0,0,0-91-328.27Zm12,0a1,1,0,0,0-1-1,1,1,0,0,0-1,1,1,1,0,0,0,1,1A1,1,0,0,0-79-328.27Zm-7-9v4h2v-1.92a7,7,0,0,1,6,6.92,7,7,0,0,1-7,7,7,7,0,0,1-7-7,6.92,6.92,0,0,1,1.58-4.42l5.42,5.42,1.41-1.41-6.8-6.8v0A9,9,0,0,0-94-328.27a9,9,0,0,0,9,9,9,9,0,0,0,9-9,9,9,0,0,0-9-9Zm0,14a1,1,0,0,0,1,1,1,1,0,0,0,1-1,1,1,0,0,0-1-1A1,1,0,0,0-86-323.27Z"/></clipPath></defs><title>Icn_folder</title><path class="b" d="M19.5,7H10.71L8.85,5.15A.47.47,0,0,0,8.5,5h-4A2.5,2.5,0,0,0,2,7.5v9A2.5,2.5,0,0,0,4.5,19h15A2.5,2.5,0,0,0,22,16.5v-7A2.5,2.5,0,0,0,19.5,7ZM3,7.5A1.5,1.5,0,0,1,4.5,6H8.29l1.86,1.85A.47.47,0,0,0,10.5,8h9A1.5,1.5,0,0,1,21,9.5V11H3Zm18,9A1.5,1.5,0,0,1,19.5,18H4.5A1.5,1.5,0,0,1,3,16.5V12H21Z"/></svg>