<svg id="icn_app_add" xmlns="http://www.w3.org/2000/svg" viewBox="0 0 24 24"><defs><style>.a{fill:currentColor;}</style></defs><title>icn_app_add</title><path class="a" d="M10.2,20H4.8a.8.8,0,0,1-.8-.8V13.8a.8.8,0,0,1,.8-.8h5.4a.8.8,0,0,1,.8.8v5.4A.8.8,0,0,1,10.2,20ZM5,19h5V14H5Zm5.2-8H4.8a.8.8,0,0,1-.8-.8V4.8A.8.8,0,0,1,4.8,4h5.4a.8.8,0,0,1,.8.8v5.4A.8.8,0,0,1,10.2,11ZM5,10h5V5H5Zm14.2,1H13.8a.8.8,0,0,1-.8-.8V4.8a.8.8,0,0,1,.8-.8h5.4a.8.8,0,0,1,.8.8v5.4A.8.8,0,0,1,19.2,11ZM14,10h5V5H14Zm5.5,6H17V13.5a.5.5,0,0,0-1,0V16H13.5a.5.5,0,0,0-.5.5.5.5,0,0,0,.5.5H16v2.5a.5.5,0,0,0,1,0V17h2.5a.5.5,0,0,0,.5-.5A.5.5,0,0,0,19.5,16Z"/></svg>