<svg id="icn_contacts_book" xmlns="http://www.w3.org/2000/svg" viewBox="0 0 24 24"><defs><style>.a{fill:currentColor;}</style></defs><title>icn_contacts_book</title><path class="a" d="M17.5,3H4.73A.73.73,0,0,0,4,3.73V4H3.5a.5.5,0,0,0-.5.5v1a.5.5,0,0,0,.5.5H4V7H3.5a.5.5,0,0,0-.5.5v1a.5.5,0,0,0,.5.5H4v1H3.5a.5.5,0,0,0-.5.5v1a.5.5,0,0,0,.5.5H4v1H3.5a.5.5,0,0,0-.5.5v1a.5.5,0,0,0,.5.5H4v1H3.5a.5.5,0,0,0-.5.5v1a.5.5,0,0,0,.5.5H4v1H3.5a.5.5,0,0,0-.5.5v1a.5.5,0,0,0,.5.5H4v.27a.73.73,0,0,0,.73.73H17.5A2.5,2.5,0,0,0,20,19.5V5.5A2.5,2.5,0,0,0,17.5,3ZM19,19.5A1.5,1.5,0,0,1,17.5,21H7V4H17.5A1.5,1.5,0,0,1,19,5.5Z"/><path class="a" d="M14.72,11.31a2.5,2.5,0,1,0-3.44,0A3.75,3.75,0,0,0,9,14.76V15a2,2,0,0,0,2,2h3.74A2.24,2.24,0,0,0,17,14.76,3.75,3.75,0,0,0,14.72,11.31ZM13,8a1.5,1.5,0,1,1-1.5,1.5A1.5,1.5,0,0,1,13,8Zm1.76,8H11a1,1,0,0,1-1-1v-.22A2.77,2.77,0,0,1,12.76,12h.48A2.77,2.77,0,0,1,16,14.76,1.25,1.25,0,0,1,14.76,16Z"/><path class="a" d="M16.5,18h-7a.5.5,0,0,0,0,1h7a.5.5,0,0,0,0-1Z"/></svg>