<svg id="icn_view_list"  xmlns="http://www.w3.org/2000/svg" viewBox="0 0 24 24"><defs><style>.cls-1{fill:currentColor;}</style></defs><title>icn_view_list</title><path class="cls-1" d="M19.5,7H8.5a.5.5,0,0,1,0-1h11a.5.5,0,0,1,0,1Zm.5,3.5a.5.5,0,0,0-.5-.5H8.5a.5.5,0,0,0,0,1h11A.5.5,0,0,0,20,10.5Zm0,4a.5.5,0,0,0-.5-.5H8.5a.5.5,0,0,0,0,1h11A.5.5,0,0,0,20,14.5ZM5,5A1,1,0,1,0,6,6,1,1,0,0,0,5,5ZM5,9a1,1,0,1,0,1,1A1,1,0,0,0,5,9Zm0,4a1,1,0,1,0,1,1A1,1,0,0,0,5,13Zm15,5.5a.5.5,0,0,0-.5-.5H8.5a.5.5,0,0,0,0,1h11A.5.5,0,0,0,20,18.5ZM5,17a1,1,0,1,0,1,1A1,1,0,0,0,5,17Z"/></svg>