<svg id="icn_emoji_sad" xmlns="http://www.w3.org/2000/svg" viewBox="0 0 24 24"><defs><style>.a{fill:currentColor;}</style></defs><title>icn_emoji_sad</title><path class="b" d="M15.5,16.48a.51.51,0,0,1-.36-.15,4.37,4.37,0,0,0-6.28,0,.5.5,0,1,1-.72-.7A5.34,5.34,0,0,1,12,14a5.43,5.43,0,0,1,3.86,1.63.5.5,0,0,1,0,.71A.49.49,0,0,1,15.5,16.48ZM10,10a1,1,0,1,0-1,1A1,1,0,0,0,10,10Zm-.5,0h0ZM16,10a1,1,0,1,0-1,1A1,1,0,0,0,16,10Zm-.5,0h0ZM22,12A10,10,0,1,0,12,22,10,10,0,0,0,22,12Zm-1,0a9,9,0,1,1-9-9A9,9,0,0,1,21,12Z"/></svg>