<svg id="icn_card_swipe" xmlns="http://www.w3.org/2000/svg" viewBox="0 0 24 24"><defs><style>.a{fill:currentColor;}</style></defs><title>icn_card_swipe</title><path class="a" d="M11.47,4.35,6.67,10H4a1.89,1.89,0,0,0-2,1.75v7.5A1.89,1.89,0,0,0,4,21H16a1.89,1.89,0,0,0,2-1.75V17.13l3.85-3.85a.49.49,0,0,0,.15-.35.51.51,0,0,0-.15-.36.5.5,0,0,0-.7,0l-4.77,4.76a.92.92,0,0,1-.68.29,1,1,0,0,1-.68-.3,1,1,0,0,1-.3-.72,1.1,1.1,0,0,1,.32-.76l2.87-4.05a.5.5,0,0,0,0-.6A2,2,0,0,0,16,10H8l4.26-5A2.45,2.45,0,0,1,14.2,4h7.3a.5.5,0,0,0,0-1H14.2A3.42,3.42,0,0,0,11.47,4.35ZM14.3,18a2,2,0,0,0,1.4.6,1.92,1.92,0,0,0,1.3-.51v1.14c0,.41-.46.75-1,.75H4c-.54,0-1-.34-1-.75V15H14.42l-.15.21A2.09,2.09,0,0,0,14.3,18ZM16,11a1.07,1.07,0,0,1,.92.46L15.83,13H3V11.75c0-.41.46-.75,1-.75Z"/><path class="a" d="M5,16.5a.5.5,0,0,0,.5.5h3a.5.5,0,0,0,0-1h-3A.5.5,0,0,0,5,16.5Z"/></svg>