<svg id="icn_pin_enter" xmlns="http://www.w3.org/2000/svg" viewBox="0 0 24 24"><defs><style>.a{fill:currentColor;}</style></defs><title>icn_pin_enter</title><path class="a" d="M15.29,13.57,11,12.14V8A2,2,0,0,0,7,8v6.29l-.73-.73A1.92,1.92,0,0,0,3,15a1.94,1.94,0,0,0,.44,1.22l3.67,4.6A.48.48,0,0,0,7.5,21a.51.51,0,0,0,.31-.11.5.5,0,0,0,.08-.7L4.21,15.57A1,1,0,0,1,4,14.91a.91.91,0,0,1,1.56-.64L7,15.71v.79a.5.5,0,0,0,1,0V8a1,1,0,0,1,2,0v5.5a.5.5,0,0,0,1,0v-.31l4,1.33a1.48,1.48,0,0,1,1,1.42V20.5a.5.5,0,0,0,1,0V15.94A2.5,2.5,0,0,0,15.29,13.57Z"/><path class="a" d="M12.5,6h3a.5.5,0,0,0,0-1h-3a.5.5,0,0,0,0,1Z"/><path class="a" d="M12.5,4h3a.5.5,0,0,0,0-1h-3a.5.5,0,0,0,0,1Z"/><path class="a" d="M7.5,4h3a.5.5,0,0,0,0-1h-3a.5.5,0,0,0,0,1Z"/><path class="a" d="M12.5,8h3a.5.5,0,0,0,0-1h-3a.5.5,0,0,0,0,1Z"/><path class="a" d="M20.5,5h-3a.5.5,0,0,0,0,1h3a.5.5,0,0,0,0-1Z"/><path class="a" d="M17.5,4h3a.5.5,0,0,0,0-1h-3a.5.5,0,0,0,0,1Z"/><path class="a" d="M20.5,7h-3a.5.5,0,0,0,0,1h3a.5.5,0,0,0,0-1Z"/></svg>