<svg id="icn_resize_contract" xmlns="http://www.w3.org/2000/svg" viewBox="0 0 24 24"><defs><style>.a{fill:currentColor;}</style></defs><title>icn_resize_contract</title><path class="a" d="M8.5,4a.5.5,0,0,0-.5.5V7.29L4.85,4.15a.49.49,0,0,0-.7.7L7.29,8H4.5a.5.5,0,0,0,0,1h4a.41.41,0,0,0,.19,0A.51.51,0,0,0,9,8.69.41.41,0,0,0,9,8.5v-4A.5.5,0,0,0,8.5,4Z"/><path class="a" d="M19.5,8H16.71l3.14-3.15a.49.49,0,1,0-.7-.7L16,7.29V4.5a.5.5,0,0,0-1,0v4a.41.41,0,0,0,0,.19.51.51,0,0,0,.27.27.41.41,0,0,0,.19,0h4a.5.5,0,0,0,0-1Z"/><path class="a" d="M8.69,15a.41.41,0,0,0-.19,0h-4a.5.5,0,0,0,0,1H7.29L4.15,19.15a.48.48,0,0,0,0,.7.48.48,0,0,0,.7,0L8,16.71V19.5a.5.5,0,0,0,1,0v-4a.41.41,0,0,0,0-.19A.51.51,0,0,0,8.69,15Z"/><path class="a" d="M20,15.5a.5.5,0,0,0-.5-.5h-4a.41.41,0,0,0-.19,0,.51.51,0,0,0-.27.27.41.41,0,0,0,0,.19v4a.5.5,0,0,0,1,0V16.71l3.15,3.14a.48.48,0,0,0,.7,0,.48.48,0,0,0,0-.7L16.71,16H19.5A.5.5,0,0,0,20,15.5Z"/></svg>