<svg id="icn_server" xmlns="http://www.w3.org/2000/svg" viewBox="0 0 24 24"><defs><style>.a{fill:currentColor;}</style></defs><title>icn_server</title><path class="a" d="M20.5,11A1.5,1.5,0,0,0,22,9.5v-3A1.5,1.5,0,0,0,20.5,5H3.5A1.5,1.5,0,0,0,2,6.5v3A1.5,1.5,0,0,0,3.5,11H5v1H3.5A1.5,1.5,0,0,0,2,13.5v3A1.5,1.5,0,0,0,3.5,18H5v1H6V18H18v1h1V18h1.5A1.5,1.5,0,0,0,22,16.5v-3A1.5,1.5,0,0,0,20.5,12H19V11ZM3,9.5v-3A.5.5,0,0,1,3.5,6h17a.5.5,0,0,1,.5.5v3a.5.5,0,0,1-.5.5H3.5A.5.5,0,0,1,3,9.5Zm18,4v3a.5.5,0,0,1-.5.5H3.5a.5.5,0,0,1-.5-.5v-3a.5.5,0,0,1,.5-.5h17A.5.5,0,0,1,21,13.5ZM18,12H6V11H18ZM10,7.5h9v1H10Zm9,8H10v-1h9ZM4.4,15a.6.6,0,1,1,.6.6A.6.6,0,0,1,4.4,15Zm2.5,0a.6.6,0,1,1,.6.6A.6.6,0,0,1,6.9,15ZM5.6,8A.6.6,0,1,1,5,7.4.6.6,0,0,1,5.6,8ZM8.1,8a.6.6,0,1,1-.6-.6A.6.6,0,0,1,8.1,8Z"/></svg>