<svg id="icn_clipboard" xmlns="http://www.w3.org/2000/svg" viewBox="0 0 24 24"><defs><style>.a{fill:currentColor;}</style></defs><title>icn_clipboard</title><path class="a" d="M17.5,4H14.09A2.09,2.09,0,0,0,9.91,4H6.5A1.5,1.5,0,0,0,5,5.5v15A1.5,1.5,0,0,0,6.5,22h11A1.5,1.5,0,0,0,19,20.5V5.5A1.5,1.5,0,0,0,17.5,4ZM18,20.5a.5.5,0,0,1-.5.5H6.5a.5.5,0,0,1-.5-.5V5.5A.5.5,0,0,1,6.5,5H7.82V6.82a.5.5,0,0,0,.5.5h7.36a.5.5,0,0,0,.5-.5V5H17.5a.5.5,0,0,1,.5.5Z"/><path class="a" d="M15.5,9h-7a.5.5,0,0,0,0,1h7a.5.5,0,0,0,0-1Z"/><path class="a" d="M15.5,11h-7a.5.5,0,0,0,0,1h7a.5.5,0,0,0,0-1Z"/><path class="a" d="M15.5,13h-7a.5.5,0,0,0,0,1h7a.5.5,0,0,0,0-1Z"/><path class="a" d="M12.5,15h-4a.5.5,0,0,0,0,1h4a.5.5,0,0,0,0-1Z"/></svg>