<svg id="icn_thumb_up" xmlns="http://www.w3.org/2000/svg" viewBox="0 0 24 24"><defs><style>.a{fill:currentColor;}</style></defs><title>icn_thumb_up</title><path class="a" d="M17,10h3v9H17Z"/><path class="a" d="M19.5,19H17V10h2.5a.5.5,0,0,1,.5.5v8A.5.5,0,0,1,19.5,19Z"/><path class="a" d="M15.5,19h-7c-1.26,0-1.42-.22-2.33-2L4.11,12.51a.3.3,0,0,1,0-.1A3,3,0,0,1,4.6,9.92,2.4,2.4,0,0,1,6.5,9H11V5.5A2.42,2.42,0,0,1,13.5,3a.5.5,0,0,1,.47.34l2,6a.5.5,0,0,1,0,.16v9A.5.5,0,0,1,15.5,19ZM5,12.14l2,4.45C7.8,18,7.8,18,8.5,18H15V9.58L13.15,4A1.41,1.41,0,0,0,12,5.5v4a.5.5,0,0,1-.5.5h-5a1.41,1.41,0,0,0-1.12.54A1.94,1.94,0,0,0,5,12.14Z"/></svg>