<svg id="icn_export" version="1.1"  xmlns="http://www.w3.org/2000/svg"  x="0px" y="0px"
	 viewBox="0 0 24 24" style="enable-background:new 0 0 24 24;" xml:space="preserve">
<style type="text/css">
	.st0{fill:currentColor;}
</style>
<path class="st0" d="M21,3.3L21,3.3c0-0.1-0.1-0.1-0.1-0.2c0,0-0.1-0.1-0.2-0.1h0c-0.1,0-0.1,0-0.2,0h-4C16.2,3,16,3.2,16,3.5
	S16.2,4,16.5,4h2.8l-9.2,9.1c-0.2,0.2-0.2,0.5,0,0.7c0.1,0.1,0.2,0.2,0.3,0.2s0.3-0.1,0.3-0.2L20,4.7v2.8C20,7.8,20.2,8,20.5,8
	S21,7.8,21,7.5v-4C21,3.4,21,3.4,21,3.3z M19,18.5v-9C19,9.2,18.8,9,18.5,9S18,9.2,18,9.5v9c0,0.8-0.7,1.5-1.5,1.5h-11
	C4.7,20,4,19.3,4,18.5v-11C4,6.7,4.7,6,5.5,6h9C14.8,6,15,5.8,15,5.5S14.8,5,14.5,5h-9C4.1,5,3,6.1,3,7.5v11C3,19.9,4.1,21,5.5,21
	h11C17.9,21,19,19.9,19,18.5z"/>
</svg>
