<svg id="icn_compass" xmlns="http://www.w3.org/2000/svg" viewBox="0 0 24 24"><defs><style>.a{fill:currentColor;}</style></defs><title>icn_compass</title><path class="b" d="M12,2A10,10,0,1,0,22,12,10,10,0,0,0,12,2Zm.5,19v-1.2a.5.5,0,0,0-1,0V21A9,9,0,0,1,3,12.5h1.2a.5.5,0,0,0,0-1H3A9,9,0,0,1,11.5,3v1.2a.5.5,0,0,0,1,0V3A9,9,0,0,1,21,11.5h-1.2a.5.5,0,0,0,0,1H21A9,9,0,0,1,12.5,21Z"/><path class="b" d="M14.84,13.21A3,3,0,0,0,15.09,12,3.1,3.1,0,0,0,12,8.91a3,3,0,0,0-1.21.25L8,7.27A.5.5,0,0,0,7.27,8l1.89,2.83A3,3,0,0,0,8.91,12,3.1,3.1,0,0,0,12,15.09a3,3,0,0,0,1.21-.25L16,16.73a.49.49,0,0,0,.28.09.47.47,0,0,0,.35-.15.49.49,0,0,0,.06-.63ZM9.91,12A2.09,2.09,0,1,1,12,14.09,2.1,2.1,0,0,1,9.91,12Z"/></svg>