<svg id="icn_phone_sms_iphone" xmlns="http://www.w3.org/2000/svg" viewBox="0 0 24 24"><defs><style>.a{fill:currentColor;}</style></defs><title>icn_phone_sms_iphone</title><circle class="a" cx="8" cy="19" r="1"/><circle class="a" cx="14" cy="10" r="1"/><circle class="a" cx="17" cy="10" r="1"/><circle class="a" cx="11" cy="10" r="1"/><path class="a" d="M17,5H14V4.5A2.45,2.45,0,0,0,11.6,2H4.4A2.45,2.45,0,0,0,2,4.5v15A2.45,2.45,0,0,0,4.4,22h7.2A2.45,2.45,0,0,0,14,19.5V15.13l.24-.13H17A5,5,0,0,0,17,5ZM13,19.5A1.45,1.45,0,0,1,11.6,21H4.4A1.45,1.45,0,0,1,3,19.5V4.5A1.45,1.45,0,0,1,4.4,3h7.2A1.45,1.45,0,0,1,13,4.5V5H11a5,5,0,0,0-5,5,4.94,4.94,0,0,0,3,4.53V17a.5.5,0,0,0,.24.43.48.48,0,0,0,.26.07.53.53,0,0,0,.24-.06L13,15.67ZM17,14H14.2a.45.45,0,0,0-.32.06L10,16.16V14.25a.54.54,0,0,0-.3-.49A4,4,0,0,1,11,6h6a4,4,0,0,1,0,8Z"/></svg>