<svg id="icn_graph_line_b" xmlns="http://www.w3.org/2000/svg" viewBox="0 0 24 24"><defs><style>.a{fill:currentColor;}</style></defs><title>icn_graph_line_b</title><path class="a" d="M21.5,21H20V9.5a.5.5,0,0,0-1,0V21H15V12.5a.5.5,0,0,0-1,0V21H10V12.5a.5.5,0,0,0-1,0V21H5V15.5a.5.5,0,0,0-1,0V21H2.5a.5.5,0,0,0,0,1h19a.5.5,0,0,0,0-1Z"/><path class="a" d="M5.5,12a.47.47,0,0,0,.35-.15L8.71,9H14.5a.47.47,0,0,0,.35-.15L18,5.72A2,2,0,0,0,19,6a2,2,0,1,0-2-2,2,2,0,0,0,.28,1l-3,3H8.5a.47.47,0,0,0-.35.15l-3,3a.48.48,0,0,0,0,.7A.47.47,0,0,0,5.5,12ZM19,3a1,1,0,1,1-1,1A1,1,0,0,1,19,3Z"/></svg>