<svg id="icn_box" xmlns="http://www.w3.org/2000/svg" viewBox="0 0 24 24"><defs><style>.a{fill:currentColor;}</style></defs><title>icn_box</title><path class="a" d="M12,18H9V17h3ZM22,7.73A.52.52,0,0,1,21.5,8H20V19.5a.5.5,0,0,1-.5.5H4.5a.5.5,0,0,1-.5-.5V8H2.5a.52.52,0,0,1-.45-.27A.53.53,0,0,1,2.1,7.2l2.21-3a.51.51,0,0,1,.4-.2H19.29a.51.51,0,0,1,.4.2l2.21,3A.53.53,0,0,1,22,7.73ZM3.49,7h7.69l1.37-2H5ZM5,19h8V6.12L11.86,7.78a.49.49,0,0,1-.41.22H5ZM19,8H15.87a.48.48,0,0,1-.39-.19L14,5.94V19h5Zm1.51-1L19,5H14.53l1.58,2h4.4Z"/></svg>