<svg id="icn_hospital" xmlns="http://www.w3.org/2000/svg" viewBox="0 0 24 24"><defs><style>.a{fill:currentColor;}</style></defs><title>icn_hospital</title><path class="a" d="M6,12H5V11H6Zm0,1H5v1H6Zm0,2H5v1H6Zm1-3H8V11H7Zm0,2H8V13H7Zm0,2H8V15H7Zm2-4h1V11H9Zm0,2h1V13H9Zm0,2h1V15H9ZM8,10H9V8h2V7H9V5H8V7H6V8H8Zm3,2h1V11H11Zm0,2h1V13H11Zm0,2h1V15H11Zm12,4.5a.5.5,0,0,1-.5.5H1.5a.5.5,0,0,1,0-1H3V3.5A.5.5,0,0,1,3.5,3h10a.5.5,0,0,1,.5.5V8h5.5A1.5,1.5,0,0,1,21,9.5V20h1.5A.5.5,0,0,1,23,20.5ZM13,4H4V20h9Zm7,5.5a.5.5,0,0,0-.5-.5H14V20h6ZM15,14h4v1H15Zm0-2h4v1H15Zm0-2h4v1H15ZM5,12H6V11H5Zm0,2H6V13H5Zm0,2H6V15H5Zm2-4H8V11H7Zm0,2H8V13H7Zm0,2H8V15H7Zm2-4h1V11H9Zm0,2h1V13H9Zm0,2h1V15H9Zm0-6V8h2V7H9V5H8V7H6V8H8v2Zm2,1v1h1V11Zm0,3h1V13H11Zm0,2h1V15H11Zm4-6v1h4V10Zm0,3h4V12H15Zm0,2h4V14H15Zm0-5v1h4V10Zm0,2v1h4V12Zm0,2v1h4V14ZM12.63,4.77ZM5,4.77ZM5,11v1H6V11ZM9,7V5H8V7H6V8H8v2H9V8h2V7ZM7,11v1H8V11Zm2,0v1h1V11Zm2,0v1h1V11ZM5,13v1H6V13Zm2,0v1H8V13Zm2,0v1h1V13Zm2,0v1h1V13ZM5,15v1H6V15Zm2,0v1H8V15Zm2,0v1h1V15Zm2,0v1h1V15Z"/></svg>