<svg id="icn_settings_outline" xmlns="http://www.w3.org/2000/svg" viewBox="0 0 24 24"><defs><style>.a{fill:currentColor;}</style></defs><title>icn_settings_outline</title><path class="a" d="M13.29,22H10.71a1.14,1.14,0,0,1-1.13-1.13V19.58a.72.72,0,0,0-.43-.68,7.68,7.68,0,0,1-1.73-1,.74.74,0,0,0-.81,0l-1.16.67a1.14,1.14,0,0,1-1.54-.41l-1.29-2.2A1.15,1.15,0,0,1,3,14.35l1.18-.67a.75.75,0,0,0,.37-.76,7.08,7.08,0,0,1,0-1.84.75.75,0,0,0-.37-.76L3,9.65a1.15,1.15,0,0,1-.42-1.56L3.91,5.9a1.13,1.13,0,0,1,1.54-.42l1.16.67a.74.74,0,0,0,.81,0,7.68,7.68,0,0,1,1.73-1,.72.72,0,0,0,.43-.68V3.13A1.14,1.14,0,0,1,10.71,2h2.58a1.14,1.14,0,0,1,1.13,1.13V4.42a.72.72,0,0,0,.43.68,7.68,7.68,0,0,1,1.73,1,.74.74,0,0,0,.81,0l1.16-.67a1.14,1.14,0,0,1,1.55.42l1.28,2.19A1.15,1.15,0,0,1,21,9.65l-1.18.67a.75.75,0,0,0-.37.76,7.08,7.08,0,0,1,0,1.84.75.75,0,0,0,.37.76l1.18.67a1.15,1.15,0,0,1,.42,1.56L20.09,18.1a1.13,1.13,0,0,1-1.54.42l-1.16-.67a.74.74,0,0,0-.81,0,7.68,7.68,0,0,1-1.73,1,.72.72,0,0,0-.43.68v1.29A1.14,1.14,0,0,1,13.29,22ZM7,16.75a1.69,1.69,0,0,1,1,.35,6.44,6.44,0,0,0,1.5.87,1.73,1.73,0,0,1,1.05,1.61v1.29a.13.13,0,0,0,.13.13h2.58a.13.13,0,0,0,.13-.13V19.58A1.73,1.73,0,0,1,14.47,18,6.25,6.25,0,0,0,16,17.1,1.72,1.72,0,0,1,17.89,17l1.16.66a.13.13,0,0,0,.18,0l1.28-2.2a.12.12,0,0,0,0-.1.11.11,0,0,0-.06-.08l-1.17-.67a1.74,1.74,0,0,1-.87-1.76,6.27,6.27,0,0,0,0-1.58,1.74,1.74,0,0,1,.87-1.76l1.17-.67a.11.11,0,0,0,.06-.08.14.14,0,0,0,0-.11L19.23,6.4a.13.13,0,0,0-.18-.05L17.89,7A1.72,1.72,0,0,1,16,6.9,6.44,6.44,0,0,0,14.47,6a1.73,1.73,0,0,1-1.05-1.61V3.13A.13.13,0,0,0,13.29,3H10.71a.13.13,0,0,0-.13.13V4.42A1.73,1.73,0,0,1,9.53,6,6.44,6.44,0,0,0,8,6.9,1.72,1.72,0,0,1,6.11,7L5,6.35a.12.12,0,0,0-.18.05L3.49,8.6a.12.12,0,0,0,0,.1.11.11,0,0,0,.06.08l1.18.67a1.75,1.75,0,0,1,.86,1.76,6.27,6.27,0,0,0,0,1.58,1.75,1.75,0,0,1-.86,1.76l-1.18.67a.11.11,0,0,0-.06.08.12.12,0,0,0,0,.1l1.28,2.2a.13.13,0,0,0,.18,0L6.11,17A1.78,1.78,0,0,1,7,16.75ZM12,8.5A3.5,3.5,0,1,1,8.5,12,3.5,3.5,0,0,1,12,8.5m0-1A4.5,4.5,0,1,0,16.5,12,4.49,4.49,0,0,0,12,7.5Z"/></svg>