<svg id="icn_resize_expand" xmlns="http://www.w3.org/2000/svg" viewBox="0 0 24 24"><defs><style>.a{fill:currentColor;}</style></defs><title>icn_resize_expand</title><path class="a" d="M5.71,5H8.5a.5.5,0,0,0,0-1h-4a.41.41,0,0,0-.19,0A.51.51,0,0,0,4,4.31.41.41,0,0,0,4,4.5v4a.5.5,0,0,0,1,0V5.71L8.24,8.94a.48.48,0,0,0,.7,0,.48.48,0,0,0,0-.7Z"/><path class="a" d="M20,4.31A.51.51,0,0,0,19.69,4a.41.41,0,0,0-.19,0h-4a.5.5,0,0,0,0,1h2.79L15.06,8.24a.48.48,0,0,0,0,.7.48.48,0,0,0,.7,0L19,5.71V8.5a.5.5,0,0,0,1,0v-4A.41.41,0,0,0,20,4.31Z"/><path class="a" d="M8.94,15.06a.48.48,0,0,0-.7,0L5,18.29V15.5a.5.5,0,0,0-1,0v4a.41.41,0,0,0,0,.19.51.51,0,0,0,.27.27.41.41,0,0,0,.19,0h4a.5.5,0,0,0,0-1H5.71l3.23-3.24A.48.48,0,0,0,8.94,15.06Z"/><path class="a" d="M19.5,15a.5.5,0,0,0-.5.5v2.79l-3.24-3.23a.49.49,0,0,0-.7.7L18.29,19H15.5a.5.5,0,0,0,0,1h4a.41.41,0,0,0,.19,0,.51.51,0,0,0,.27-.27.41.41,0,0,0,0-.19v-4A.5.5,0,0,0,19.5,15Z"/></svg>