<svg id="icn_people_2_add" xmlns="http://www.w3.org/2000/svg" viewBox="0 0 24 24"><defs><style>.a{fill:currentColor;}</style></defs><title>icn_people_2_add</title><path class="a" d="M16.83,11.36a3,3,0,1,0-3.66,0,5,5,0,0,0-2.84,2.94,4.87,4.87,0,0,0-1.5-.94,3,3,0,1,0-3.66,0A5,5,0,0,0,2,18v.5A1.5,1.5,0,0,0,3.5,20h7A1.5,1.5,0,0,0,12,18.5V18h6.5A1.5,1.5,0,0,0,20,16.5V16A5,5,0,0,0,16.83,11.36ZM13,9a2,2,0,1,1,2,2A2,2,0,0,1,13,9ZM5,11a2,2,0,1,1,2,2A2,2,0,0,1,5,11Zm6,7.5a.5.5,0,0,1-.5.5h-7a.5.5,0,0,1-.5-.5V18a4,4,0,0,1,8,0Zm8-2a.5.5,0,0,1-.5.5H11.9a5,5,0,0,0-.8-1.85A4,4,0,0,1,19,16Z"/><path class="a" d="M21.5,4H20V2.5a.5.5,0,0,0-1,0V4H17.5a.5.5,0,0,0,0,1H19V6.5a.5.5,0,0,0,1,0V5h1.5a.5.5,0,0,0,0-1Z"/></svg>