<svg id="icn_printer" xmlns="http://www.w3.org/2000/svg" viewBox="0 0 24 24"><defs><style>.a{fill:currentColor;}</style></defs><title>icn_printer</title><path class="a" d="M19.5,7H18V3.5A1.5,1.5,0,0,0,16.5,2h-9A1.5,1.5,0,0,0,6,3.5V7H4.5A2.5,2.5,0,0,0,2,9.5v7a.5.5,0,0,0,.5.5H5v3.5A1.6,1.6,0,0,0,6.68,22H17.32A1.6,1.6,0,0,0,19,20.5V17h2.5a.5.5,0,0,0,.5-.5v-7A2.5,2.5,0,0,0,19.5,7ZM7,3.5A.5.5,0,0,1,7.5,3h9a.5.5,0,0,1,.5.5V7H7Zm11,17c0,.27-.32.5-.68.5H6.68c-.36,0-.68-.23-.68-.5V15H18v5.5ZM21,16H19V13.5a.5.5,0,0,0-.5-.5H5.5a.5.5,0,0,0-.5.5V16H3V9.5A1.5,1.5,0,0,1,4.5,8h15A1.5,1.5,0,0,1,21,9.5Z"/><path class="a" d="M5,9a1,1,0,1,0,1,1A1,1,0,0,0,5,9Zm0,1Z"/></svg>