<svg id="icn_motorboat" xmlns="http://www.w3.org/2000/svg" viewBox="0 0 24 24"><defs><style>.a{fill:currentColor;}</style></defs><title>icn_motorboat</title><path class="a" d="M21.87,9.2A.47.47,0,0,0,21.44,9L19,9.35a.21.21,0,0,0,0-.13l-2-3A.52.52,0,0,0,16.5,6h-1a.5.5,0,0,0-.5.5V9.85l-7.73,1L7,9.4a.52.52,0,0,0-.22-.32A.5.5,0,0,0,6.38,9l-4,1a.51.51,0,0,0-.37.61l1,4A.51.51,0,0,0,3.5,15H5.69L6,16.6a.5.5,0,0,0,.49.4h7.58a6.55,6.55,0,0,0,2.54-.38c4.08-1.43,5.19-6.07,5.37-7A.48.48,0,0,0,21.87,9.2ZM16,7h.23l1.65,2.48L16,9.72ZM5.44,11a.55.55,0,0,0-.35.2.5.5,0,0,0-.08.39L5.49,14H3.89l-.78-3.14,3-.75.17.83Zm.87,2L6.1,12l14.75-1.85c-.07.25-.16.54-.28.86Zm10,2.65a5.66,5.66,0,0,1-2.21.32H6.91l-.4-2L20.1,12.06A6.93,6.93,0,0,1,16.29,15.68Z"/></svg>