<svg id="icn_calendar_clock" xmlns="http://www.w3.org/2000/svg" viewBox="0 0 24 24"><defs><style>.a{fill:currentColor;}</style></defs><title>icn_calendar_clock</title><path class="a" d="M16,11H13V9h3Zm4,1H17v2h3Zm2-5.55v0a0,0,0,0,1,0,0v8.11A2.38,2.38,0,0,1,19.63,17H13.91A6,6,0,1,1,7,10.09V6.5a0,0,0,0,1,0,0v-2A1.5,1.5,0,0,1,8.5,3H10V2.5a.5.5,0,0,1,1,0V3h7V2.5a.5.5,0,0,1,1,0V3h1.5A1.5,1.5,0,0,1,22,4.5ZM13,16a5,5,0,1,0-5,5A5,5,0,0,0,13,16Zm8-9H8v3a6.64,6.64,0,0,1,1,.09V9h3v2h-.69A6,6,0,0,1,13,12.69h0V12h3v2H13.65A6,6,0,0,1,14,16h5.63A1.38,1.38,0,0,0,21,14.61Zm-7.65,6.3,0,.06ZM21,4.5a.5.5,0,0,0-.5-.5H19v.5a.5.5,0,0,1-1,0V4H11v.5a.5.5,0,0,1-1,0V4H8.5a.5.5,0,0,0-.5.5V6H21ZM5.8,14.07a.49.49,0,0,0-.68.17.5.5,0,0,0,.16.69L7.5,16.28l0,3.22A.5.5,0,0,0,8,20H8a.5.5,0,0,0,.5-.5l0-3.5a.51.51,0,0,0-.24-.43ZM20,9H17v2h3Z"/></svg>