<svg id="icn_pencil" xmlns="http://www.w3.org/2000/svg" viewBox="0 0 24 24"><defs><style>.a{fill:currentColor;}</style></defs><title>icn_pencil</title><path class="a" d="M21,3.06l-.1-.1A3.28,3.28,0,0,0,16.3,3l-.8.8-.15-.15a.48.48,0,0,0-.7,0,.5.5,0,0,0,0,.71l.15.15L2.15,17.12a.47.47,0,0,0-.15.35v4a.5.5,0,0,0,.5.5h4a.47.47,0,0,0,.35-.15L19.53,9.2l.15.15A.51.51,0,0,0,20,9.5a.5.5,0,0,0,.35-.85l-.15-.15.8-.8A3.28,3.28,0,0,0,21,3.06ZM3.26,17.72a.47.47,0,0,0-.19-.12L15.5,5.17l1.31,1.31L4.43,18.88ZM3,18.87,5.13,21H3Zm3.4,2.06a.47.47,0,0,0-.12-.19L5.13,19.59,17.52,7.19,18.83,8.5ZM20.33,7l-.8.8L17.9,6.16s0,0,0,0l0,0L16.21,4.47l.8-.8a2.29,2.29,0,0,1,3.23,0l.09.09A2.29,2.29,0,0,1,20.33,7Z"/></svg>