<svg id="icn_tile" xmlns="http://www.w3.org/2000/svg" viewBox="0 0 24 24"><defs><style>.a,.b{fill:currentColor;}</style></defs><title>icn_tile</title><path class="a" d="M21.57,9.57,17.36,5.36A1.23,1.23,0,0,0,16.49,5H4.5A2.5,2.5,0,0,0,2,7.5v10A2.5,2.5,0,0,0,4.5,20h15A2.5,2.5,0,0,0,22,17.5V10.61A1.46,1.46,0,0,0,21.57,9.57ZM21,17.5A1.5,1.5,0,0,1,19.5,19H4.5A1.5,1.5,0,0,1,3,17.5V7.5A1.5,1.5,0,0,1,4.5,6h12a.23.23,0,0,1,.16.06l4.21,4.22a.45.45,0,0,1,.14.33Z"/><path class="a" d="M18.5,13H5.5a.5.5,0,0,0,0,1h13a.5.5,0,0,0,0-1Z"/><path class="a" d="M18.5,15H5.5a.5.5,0,0,0,0,1h13a.5.5,0,0,0,0-1Z"/><circle class="b" cx="7" cy="10" r="2"/></svg>