<svg id="icn_cars"  data-name="Layer 1" xmlns="http://www.w3.org/2000/svg" viewBox="0 0 24 24"><defs><style>.cls-1{fill:currentColor;}</style></defs><title>icn_cars</title><path class="cls-1" d="M20.84,10,19.59,7.24C18.79,6,18.61,6,16.93,6H13.07c-1.68,0-1.86,0-2.7,1.31L9.16,10A2.51,2.51,0,0,0,7,12.5v6A1.5,1.5,0,0,0,8.5,20h1A1.5,1.5,0,0,0,11,18.5V18h8v.5A1.5,1.5,0,0,0,20.5,20h1A1.5,1.5,0,0,0,23,18.5v-6A2.51,2.51,0,0,0,20.84,10ZM11.25,7.79C11.77,7,11.77,7,13.07,7h3.86c1.3,0,1.3,0,1.78.72l1,2.28H10.27ZM10,18.5a.5.5,0,0,1-.5.5h-1a.5.5,0,0,1-.5-.5V18h2Zm12,0a.5.5,0,0,1-.5.5h-1a.5.5,0,0,1-.5-.5V18h2ZM22,17H8V12.5A1.5,1.5,0,0,1,9.5,11h11A1.5,1.5,0,0,1,22,12.5ZM10,14h0a1,1,0,0,1-1-1H9a1,1,0,0,1,1-1h0a1,1,0,0,1,1,1h0A1,1,0,0,1,10,14Zm10,0h0a1,1,0,0,1-1-1h0a1,1,0,0,1,1-1h0a1,1,0,0,1,1,1h0A1,1,0,0,1,20,14ZM13.59,4.24C12.79,3,12.61,3,10.93,3H7.07C5.39,3,5.21,3,4.37,4.31L3.16,7A2.51,2.51,0,0,0,1,9.5v6A1.5,1.5,0,0,0,2.5,17h1A1.5,1.5,0,0,0,5,15.5V15H6V14H2V9.5A1.5,1.5,0,0,1,3.5,8H9V7H4.27l1-2.21C5.77,4,5.77,4,7.07,4h3.86c1.3,0,1.3,0,1.82.79a.5.5,0,1,0,.84-.55ZM4,15v.5a.5.5,0,0,1-.5.5h-1a.5.5,0,0,1-.5-.5V15Zm0-4H4a1,1,0,0,1-1-1H3A1,1,0,0,1,4,9H4a1,1,0,0,1,1,1H5A1,1,0,0,1,4,11Z"/></svg>