<svg id="icn_dashboard" xmlns="http://www.w3.org/2000/svg" viewBox="0 0 24 24"><defs><style>.a{fill:currentColor;}</style></defs><title>icn_dashboard</title><path class="a" d="M10.5,2h-8a.5.5,0,0,0-.5.5v10a.5.5,0,0,0,.5.5h8a.5.5,0,0,0,.5-.5V2.5A.5.5,0,0,0,10.5,2ZM10,12H3V3h7Z"/><path class="a" d="M21.5,11h-8a.5.5,0,0,0-.5.5v10a.5.5,0,0,0,.5.5h8a.5.5,0,0,0,.5-.5v-10A.5.5,0,0,0,21.5,11ZM21,21H14V12h7Z"/><path class="a" d="M10.5,15h-8a.5.5,0,0,0-.5.5v6a.5.5,0,0,0,.5.5h8a.5.5,0,0,0,.5-.5v-6A.5.5,0,0,0,10.5,15ZM10,21H3V16h7Z"/></svg>