<svg id="icn_forex_b" xmlns="http://www.w3.org/2000/svg" viewBox="0 0 24 24"><defs><style>.a{fill:currentColor;}</style></defs><title>icn_forex_b</title><path class="a" d="M7.85,2.85,4.7,6H6.5a.5.5,0,0,1,0,1h-3a.43.43,0,0,1-.19,0h0a.42.42,0,0,1-.15-.11A.42.42,0,0,1,3,6.7H3A.43.43,0,0,1,3,6.5v-3a.5.5,0,0,1,1,0V5.3L7.15,2.15a.49.49,0,0,1,.7.7ZM3,6.7A.47.47,0,0,0,3.3,7a.42.42,0,0,1-.15-.11A.42.42,0,0,1,3,6.7ZM21,17.31h0A.61.61,0,0,0,20.7,17h0a.43.43,0,0,0-.19,0h-3a.5.5,0,0,0,0,1h1.8l-3.15,3.15a.48.48,0,0,0,0,.7.48.48,0,0,0,.7,0L20,18.7v1.8a.5.5,0,0,0,1,0v-3A.43.43,0,0,0,21,17.31ZM20.7,17a.61.61,0,0,1,.26.26A.47.47,0,0,0,20.7,17ZM22,8.5A6.51,6.51,0,0,1,15.5,15L15,15c0,.17,0,.34,0,.52A6.5,6.5,0,1,1,8.5,9L9,9c0-.17,0-.34,0-.52a6.5,6.5,0,0,1,13,0Zm-8,7a3.94,3.94,0,0,0-.05-.69,6.5,6.5,0,0,1-4.76-4.76A3.94,3.94,0,0,0,8.5,10,5.5,5.5,0,1,0,14,15.5Zm7-7a5.5,5.5,0,0,0-11,0,3.94,3.94,0,0,0,.05.69,5.07,5.07,0,0,0,.09.54,3.86,3.86,0,0,0,.17.58,5.5,5.5,0,0,0,3.38,3.38,3.86,3.86,0,0,0,.58.17,5.07,5.07,0,0,0,.54.09,3.94,3.94,0,0,0,.69.05A5.51,5.51,0,0,0,21,8.5Zm-10.59,9a2.5,2.5,0,0,1-1.2.27,2.18,2.18,0,0,1-1.56-.6,2.07,2.07,0,0,1-.52-.93H6.59V15.7h.46c0-.09,0-.14,0-.18a1.62,1.62,0,0,1,0-.21H6.6v-.54h.53a2.16,2.16,0,0,1,.53-.92,2.36,2.36,0,0,1,1.66-.63,2.54,2.54,0,0,1,1.08.21l-.23.83a1.81,1.81,0,0,0-.75-.15,1.2,1.2,0,0,0-.85.3.84.84,0,0,0-.2.36h1.69v.54H8.23a1.42,1.42,0,0,0,0,.19,1.56,1.56,0,0,0,0,.2h1.83v.55H8.37a.81.81,0,0,0,.19.31,1.18,1.18,0,0,0,.87.31,2.18,2.18,0,0,0,.87-.18ZM17,9.32a1.3,1.3,0,0,1-1.2,1.26v.69h-.67v-.64a2.64,2.64,0,0,1-1.15-.3l.2-.79a2.47,2.47,0,0,0,1.13.3c.38,0,.65-.15.65-.42s-.22-.42-.72-.59C14.52,8.58,14,8.24,14,7.58a1.27,1.27,0,0,1,1.14-1.21V5.73h.67v.6a2.4,2.4,0,0,1,1,.22l-.19.77a2.2,2.2,0,0,0-1-.23c-.44,0-.58.19-.58.38s.23.36.81.58C16.69,8.34,17,8.71,17,9.32Z"/></svg>