<svg id="icn_form_fill" xmlns="http://www.w3.org/2000/svg" viewBox="0 0 24 24"><defs><style>.a{fill:currentColor;}</style></defs><title>icn_form_fill</title><path class="a" d="M4.5,6h7a.5.5,0,0,0,0-1h-7a.5.5,0,0,0,0,1Z"/><path class="a" d="M4.5,8h5a.5.5,0,0,0,0-1h-5a.5.5,0,0,0,0,1Z"/><path class="a" d="M4.5,10h4a.5.5,0,0,0,0-1h-4a.5.5,0,0,0,0,1Z"/><path class="a" d="M4,15.5v4a.5.5,0,0,0,.5.5h9a.5.5,0,0,0,.5-.5v-4a.5.5,0,0,0-.5-.5h-9A.5.5,0,0,0,4,15.5ZM5,16h8v3H5Z"/><path class="a" d="M21.44,2.62a2.19,2.19,0,0,0-3,0L16,5.06V4a2,2,0,0,0-2-2H4A2,2,0,0,0,2,4V20a2,2,0,0,0,2,2H14a2,2,0,0,0,2-2V11.19l5.5-5.5A2.15,2.15,0,0,0,21.44,2.62Zm-8.79,10.5h0L11,11.5v0l7-7L19.6,6.18ZM15,20a1,1,0,0,1-1,1H4a1,1,0,0,1-1-1V4A1,1,0,0,1,4,3H14a1,1,0,0,1,1,1V6.06l-4.85,4.85a.47.47,0,0,0-.15.35v2.36a.5.5,0,0,0,.5.5h2.36a.5.5,0,0,0,.35-.14L15,12.19ZM20.79,5l-.48.49L18.65,3.82l.49-.49a1.12,1.12,0,0,1,1.65.06A1.12,1.12,0,0,1,20.79,5Z"/></svg>