<svg id="icn_location_outline" xmlns="http://www.w3.org/2000/svg" viewBox="0 0 24 24"><defs><style>.a{fill:currentColor;}</style></defs><title>icn_location_outline</title><path class="a" d="M12,15a5,5,0,1,1,5-5A5,5,0,0,1,12,15Zm0-9a4,4,0,1,0,4,4A4,4,0,0,0,12,6Z"/><path class="a" d="M12,22a.59.59,0,0,1-.43-.19h0L6.28,16.22a8.54,8.54,0,0,1,0-11.6l.19-.2a7.53,7.53,0,0,1,11.06,0l.19.2a8.54,8.54,0,0,1,0,11.6L12.28,22ZM12,3A6.58,6.58,0,0,0,7.2,5.1L7,5.31A7.53,7.53,0,0,0,7,15.54l5,5.28,5-5.28A7.53,7.53,0,0,0,17,5.31l-.2-.21A6.58,6.58,0,0,0,12,3Z"/></svg>