<svg id="icn_cash_international" xmlns="http://www.w3.org/2000/svg" viewBox="0 0 24 24"><defs><style>.a{fill:currentColor;}</style></defs><title>icn_cash_international</title><path class="a" d="M16,4a6,6,0,0,0-6,6,5.47,5.47,0,0,0,.09,1H2v8H16V16A6,6,0,0,0,16,4Zm4.58,4a6.53,6.53,0,0,0-1.83-.73A6.53,6.53,0,0,0,18,5.42,5.07,5.07,0,0,1,20.58,8ZM16,5c.6,0,1.24.77,1.64,2a12.28,12.28,0,0,0-3.28,0C14.76,5.77,15.4,5,16,5Zm-2,.42a6.53,6.53,0,0,0-.73,1.83A6.53,6.53,0,0,0,11.42,8,5.07,5.07,0,0,1,14,5.42ZM13,8.36A12.31,12.31,0,0,0,12.93,10,8.17,8.17,0,0,0,13,11H11.69A1.35,1.35,0,0,1,11,10C11,9.4,11.77,8.76,13,8.36ZM3,12H4.73A2,2,0,0,1,3,13Zm0,6V17a2,2,0,0,1,1.73,1Zm12,0H13.27A2,2,0,0,1,15,17Zm0-2a3,3,0,0,0-2.82,2H5.82A3,3,0,0,0,3,16V14a3,3,0,0,0,2.82-2h6.36A3,3,0,0,0,15,14Zm0-3a2,2,0,0,1-1.73-1H15Zm1,2V13.07A12.31,12.31,0,0,0,17.64,13C17.24,14.23,16.6,15,16,15Zm0-2.93V11H14c0-.32,0-.66,0-1a10.09,10.09,0,0,1,.17-1.9,10.7,10.7,0,0,1,3.8,0,10.09,10.09,0,0,1,.17,1.9,10.09,10.09,0,0,1-.17,1.9A10.09,10.09,0,0,1,16,12.07Zm2,2.51a6.53,6.53,0,0,0,.73-1.83A6.53,6.53,0,0,0,20.58,12,5.07,5.07,0,0,1,18,14.58ZM19,11.64a12.28,12.28,0,0,0,0-3.28c1.27.4,2,1,2,1.64S20.23,11.24,19,11.64ZM5.5,16a.5.5,0,0,1-.5-.5v-1a.5.5,0,0,1,1,0v1A.5.5,0,0,1,5.5,16Zm7,0a.5.5,0,0,1-.5-.5v-1a.5.5,0,0,1,1,0v1A.5.5,0,0,1,12.5,16ZM9,14a1,1,0,1,1-1,1,1,1,0,0,1,1-1Zm0-1a2,2,0,1,0,2,2,2,2,0,0,0-2-2Z"/></svg>