<svg id="icn_hourglass"  xmlns="http://www.w3.org/2000/svg" viewBox="0 0 24 24"><defs><style>.cls-1{fill:currentColor;}</style></defs><title>icn_hourglass</title><path class="cls-1" d="M14.37,11.07A3.81,3.81,0,0,0,16,7.79V6h.5a.5.5,0,0,0,.5-.5v-2a.5.5,0,0,0-.5-.5h-9a.5.5,0,0,0-.5.5v2a.5.5,0,0,0,.5.5H8V7.79a3.81,3.81,0,0,0,1.63,3.28,3,3,0,0,1,.83.93,3,3,0,0,1-.83.93A3.81,3.81,0,0,0,8,16.21V18H7.5a.5.5,0,0,0-.5.5v2a.5.5,0,0,0,.5.5h9a.5.5,0,0,0,.5-.5v-2a.5.5,0,0,0-.5-.5H16V16.21a3.81,3.81,0,0,0-1.63-3.28,3,3,0,0,1-.83-.93A3,3,0,0,1,14.37,11.07ZM8,4h8V5H8Zm8,16H8V19h8Zm-3.47-8.16a.44.44,0,0,0,0,.32,3.36,3.36,0,0,0,1.19,1.53A2.82,2.82,0,0,1,15,16.21V18H9V16.21a2.82,2.82,0,0,1,1.28-2.52,3.36,3.36,0,0,0,1.19-1.53.44.44,0,0,0,0-.32,3.36,3.36,0,0,0-1.19-1.53A2.82,2.82,0,0,1,9,7.79V6h6V7.79a2.82,2.82,0,0,1-1.28,2.52A3.36,3.36,0,0,0,12.53,11.84Z"/></svg>