<svg id="icn_document_png" xmlns="http://www.w3.org/2000/svg" viewBox="0 0 24 24"><defs><style>.a{fill:currentColor;}</style></defs><title>icn_document_png</title><path class="a" d="M18.85,6.15l-4-4A.47.47,0,0,0,14.5,2H7A2,2,0,0,0,5,4V20a2,2,0,0,0,2,2H17a2,2,0,0,0,2-2V6.5A.47.47,0,0,0,18.85,6.15ZM18,20a1,1,0,0,1-1,1H7a1,1,0,0,1-1-1V4A1,1,0,0,1,7,3h7a.66.66,0,0,0,0,.15V6.5a.5.5,0,0,0,.5.5h3.35A.66.66,0,0,0,18,7ZM7,6.5A.5.5,0,0,1,7.5,6h4a.5.5,0,0,1,0,1h-4A.5.5,0,0,1,7,6.5Zm0,2A.5.5,0,0,1,7.5,8h4a.5.5,0,0,1,0,1h-4A.5.5,0,0,1,7,8.5Zm10,2a.5.5,0,0,1-.5.5h-9a.5.5,0,0,1,0-1h9A.5.5,0,0,1,17,10.5Zm-9.07,6v1.28H7V14h1.5a1.74,1.74,0,0,1,.77.16,1.25,1.25,0,0,1,.51.45,1.27,1.27,0,0,1,.18.67,1.09,1.09,0,0,1-.39.88,1.64,1.64,0,0,1-1.08.33Zm0-.7h.59a.58.58,0,0,0,.4-.13.48.48,0,0,0,.14-.38.64.64,0,0,0-.14-.42.5.5,0,0,0-.39-.16h-.6Zm5.51,2h-.9L11.2,15.4v2.35h-.91V14h.91l1.33,2.34V14h.91Zm3.48-.47a1.45,1.45,0,0,1-.61.38,2.75,2.75,0,0,1-.88.14,1.6,1.6,0,0,1-1.19-.45,1.88,1.88,0,0,1-.47-1.26v-.33a2.27,2.27,0,0,1,.19-1,1.42,1.42,0,0,1,.57-.64,1.55,1.55,0,0,1,.84-.22,1.66,1.66,0,0,1,1.1.32,1.33,1.33,0,0,1,.45,1h-.87a.68.68,0,0,0-.21-.45.63.63,0,0,0-.43-.14.6.6,0,0,0-.53.29,1.5,1.5,0,0,0-.19.83V16a1.51,1.51,0,0,0,.19.85.68.68,0,0,0,.61.28.76.76,0,0,0,.53-.16v-.58h-.64v-.63h1.54Z"/></svg>