<svg id="icn_calculator" xmlns="http://www.w3.org/2000/svg" viewBox="0 0 24 24"><defs><style>.a{fill:currentColor;}</style></defs><title>icn_calculator</title><path class="a" d="M9.5,13h-1a.5.5,0,0,1-.5-.5v-1a.51.51,0,0,1,.5-.5h1a.5.5,0,0,1,.5.5v1A.5.5,0,0,1,9.5,13Zm3.5-.5v-1a.5.5,0,0,0-.5-.5h-1a.51.51,0,0,0-.5.5v1a.5.5,0,0,0,.5.5h1A.5.5,0,0,0,13,12.5Zm3,0v-1a.5.5,0,0,0-.5-.5h-1a.51.51,0,0,0-.5.5v1a.5.5,0,0,0,.5.5h1A.5.5,0,0,0,16,12.5Zm-6,3v-1a.5.5,0,0,0-.5-.5h-1a.51.51,0,0,0-.5.5v1a.5.5,0,0,0,.5.5h1A.5.5,0,0,0,10,15.5Zm3,0v-1a.5.5,0,0,0-.5-.5h-1a.51.51,0,0,0-.5.5v1a.5.5,0,0,0,.5.5h1A.5.5,0,0,0,13,15.5Zm3,0v-1a.5.5,0,0,0-.5-.5h-1a.51.51,0,0,0-.5.5v1a.5.5,0,0,0,.5.5h1A.5.5,0,0,0,16,15.5Zm-6,3v-1a.5.5,0,0,0-.5-.5h-1a.51.51,0,0,0-.5.5v1a.5.5,0,0,0,.5.5h1A.5.5,0,0,0,10,18.5Zm3,0v-1a.5.5,0,0,0-.5-.5h-1a.51.51,0,0,0-.5.5v1a.5.5,0,0,0,.5.5h1A.5.5,0,0,0,13,18.5Zm3,0v-1a.5.5,0,0,0-.5-.5h-1a.51.51,0,0,0-.5.5v1a.5.5,0,0,0,.5.5h1A.5.5,0,0,0,16,18.5Zm1-10v-3a.5.5,0,0,0-.5-.5h-9a.5.5,0,0,0-.5.5v3a.5.5,0,0,0,.5.5h9A.5.5,0,0,0,17,8.5ZM8,6h8V8H8ZM19,19.5V4.5A2.5,2.5,0,0,0,16.5,2h-9A2.5,2.5,0,0,0,5,4.5v15A2.5,2.5,0,0,0,7.5,22h9A2.5,2.5,0,0,0,19,19.5ZM16.5,3A1.5,1.5,0,0,1,18,4.5v15A1.5,1.5,0,0,1,16.5,21h-9A1.5,1.5,0,0,1,6,19.5V4.5A1.5,1.5,0,0,1,7.5,3Z"/></svg>