<svg id="icn_box_track" xmlns="http://www.w3.org/2000/svg" viewBox="0 0 24 24"><defs><style>.a{fill:currentColor;}</style></defs><title>icn_box_track</title><path class="a" d="M21,15.5A4,4,0,0,0,17.5,12V11h-1v1A4,4,0,0,0,13,15.5H12v1h1A4,4,0,0,0,16.5,20v1h1V20A4,4,0,0,0,21,16.5h1v-1ZM16.5,19a3,3,0,0,1-2.45-2.45H16.5Zm0-3.45H14.05a3,3,0,0,1,2.45-2.45Zm1,3.45V16.5H20A3,3,0,0,1,17.5,19Zm0-3.45V13.05A3,3,0,0,1,20,15.5Zm.42-9.28-2-3A.51.51,0,0,0,15.5,3H3.5a.51.51,0,0,0-.42.22l-2,3A.5.5,0,0,0,1.5,7H3v7.5a.5.5,0,0,0,.5.5h7a.5.5,0,0,0,.5-.5V5.16l1.08,1.62A.51.51,0,0,0,12.5,7H15V9.5a.5.5,0,0,0,1,0V7h1.5a.5.5,0,0,0,.42-.78ZM2.43,6,3.77,4h5.8L8.23,6ZM10,14H4V7H8.5a.51.51,0,0,0,.42-.22L10,5.16Zm2.77-8L11.43,4h3.8l1.34,2ZM9,13H6V12H9Z"/></svg>