<svg id="icn_product_savings" xmlns="http://www.w3.org/2000/svg" viewBox="0 0 24 24"><defs><style>.a{fill:currentColor;}</style></defs><title>icn_product_savings</title><path class="a" d="M16.5,10a5.72,5.72,0,0,0-1.5.21V6.75a.29.29,0,0,0,0-.09c0-.06,0-.11,0-.16C15,4.2,11.73,3,8.5,3S2,4.2,2,6.5a1,1,0,0,0,0,.17.24.24,0,0,0,0,.08v7.5a.24.24,0,0,0,0,.08,1,1,0,0,0,0,.17C2,16.8,5.27,18,8.5,18a12.12,12.12,0,0,0,2.93-.36A5.5,5.5,0,1,0,16.5,10Zm-8-6c3,0,5.5,1.12,5.5,2.5S11.54,9,8.5,9,3,7.88,3,6.5,5.46,4,8.5,4ZM3,8.45A9,9,0,0,0,8.5,10,9,9,0,0,0,14,8.45s0,0,0,.05C14,9.88,11.54,11,8.5,11S3,9.88,3,8.5C3,8.48,3,8.47,3,8.45Zm0,2A9,9,0,0,0,8.5,12,9,9,0,0,0,14,10.45s0,0,0,.05a.53.53,0,0,1,0,.12,5.53,5.53,0,0,0-2,1.83A10.27,10.27,0,0,1,8.5,13c-3,0-5.5-1.12-5.5-2.5C3,10.48,3,10.47,3,10.45Zm0,2A9,9,0,0,0,8.5,14a11.77,11.77,0,0,0,2.82-.34,6.2,6.2,0,0,0-.26,1.05A11.19,11.19,0,0,1,8.5,15c-3,0-5.5-1.12-5.5-2.5C3,12.48,3,12.47,3,12.45ZM8.5,17c-3,0-5.5-1.12-5.5-2.5,0,0,0,0,0-.05A9,9,0,0,0,8.5,16,12.14,12.14,0,0,0,11,15.72a5.15,5.15,0,0,0,.12,1A11.16,11.16,0,0,1,8.5,17Zm8,3A4.5,4.5,0,1,1,21,15.5,4.49,4.49,0,0,1,16.5,20Z"/></svg>