<svg id="icn_import" version="1.1"  xmlns="http://www.w3.org/2000/svg"  x="0px" y="0px"
	 viewBox="0 0 24 24" style="enable-background:new 0 0 24 24;" xml:space="preserve">
<style type="text/css">
	.st0{fill:currentColor;}
</style>
<path class="st0" d="M14,9.5v4c0,0.1,0,0.1,0,0.2v0c0,0.1-0.1,0.1-0.1,0.2c0,0-0.1,0.1-0.2,0.1h0c-0.1,0-0.1,0-0.2,0h-4
	C9.2,14,9,13.8,9,13.5S9.2,13,9.5,13h2.8L3.2,3.8c-0.2-0.2-0.2-0.5,0-0.7c0.2-0.2,0.5-0.2,0.7,0l9.2,9.2V9.5C13,9.2,13.2,9,13.5,9
	S14,9.2,14,9.5z M13.7,14c0.1-0.1,0.2-0.1,0.3-0.3c0,0.1-0.1,0.1-0.1,0.2C13.8,13.9,13.8,13.9,13.7,14z M13,14.5 M21,18.5v-11
	C21,6.1,19.9,5,18.5,5h-9C9.2,5,9,5.2,9,5.5S9.2,6,9.5,6h9C19.3,6,20,6.7,20,7.5v11c0,0.8-0.7,1.5-1.5,1.5h-11C6.7,20,6,19.3,6,18.5
	v-9C6,9.2,5.8,9,5.5,9S5,9.2,5,9.5v9C5,19.9,6.1,21,7.5,21h11C19.9,21,21,19.9,21,18.5z"/>
</svg>
