<svg id="icn_bell" xmlns="http://www.w3.org/2000/svg" viewBox="0 0 24 24"><defs><style>.a{fill:currentColor;}</style></defs><title>icn_bell</title><path class="a" d="M19.21,15.42a2.4,2.4,0,0,1-1.12-2.11V9.75a5.71,5.71,0,0,0-1.64-4A5.39,5.39,0,0,0,15,4.63V4.5a2.5,2.5,0,0,0-5,0v.19a5.69,5.69,0,0,0-1.18.85A6.3,6.3,0,0,0,6.91,10v3.27a2.4,2.4,0,0,1-1.12,2.11A3.54,3.54,0,0,0,4,18.5a.5.5,0,0,0,.5.5H10v.5a2.5,2.5,0,1,0,5,0V19H20.5a.5.5,0,0,0,.5-.5A3.54,3.54,0,0,0,19.21,15.42ZM12.5,3A1.5,1.5,0,0,1,14,4.22,5.37,5.37,0,0,0,12.71,4,5.38,5.38,0,0,0,11,4.26,1.51,1.51,0,0,1,12.5,3ZM14,19.5a1.5,1.5,0,0,1-3,0V19h3ZM5.05,18a2.52,2.52,0,0,1,1.23-1.71,3.37,3.37,0,0,0,1.63-3V10a5.26,5.26,0,0,1,1.6-3.78A4.39,4.39,0,0,1,12.67,5a4.49,4.49,0,0,1,3.07,1.4,4.73,4.73,0,0,1,1.35,3.35v3.56a3.37,3.37,0,0,0,1.63,3A2.52,2.52,0,0,1,20,18Z"/></svg>