<svg id="icn_asi"  xmlns="http://www.w3.org/2000/svg" viewBox="0 0 24 24"><defs><style>.cls-1{fill:currentColor;}</style></defs><title>icn_asi</title><path class="cls-1" d="M19.2,16.06V7.94h1.39v8.12Zm-4.64.16a3.66,3.66,0,0,1-2-.56,3.23,3.23,0,0,1-1.24-1.51l1.09-.57A2.35,2.35,0,0,0,14.61,15a2.46,2.46,0,0,0,1.22-.26.87.87,0,0,0,.44-.8,1,1,0,0,0-.4-.81,4.7,4.7,0,0,0-1.44-.61l-.66-.21c-.17-.05-.36-.12-.59-.21a4.77,4.77,0,0,1-.54-.25,3.2,3.2,0,0,1-.42-.31,1.5,1.5,0,0,1-.34-.38,1.92,1.92,0,0,1-.2-.48,1.9,1.9,0,0,1-.08-.6,2,2,0,0,1,.76-1.66,3.1,3.1,0,0,1,2-.64,3.15,3.15,0,0,1,3,1.75l-1,.69A2.23,2.23,0,0,0,14.36,9a1.94,1.94,0,0,0-1,.24A.77.77,0,0,0,13,10a.89.89,0,0,0,.41.81,5.94,5.94,0,0,0,1.5.59c.44.14.81.26,1.09.38a4.64,4.64,0,0,1,.85.45,1.85,1.85,0,0,1,.62.69,2.26,2.26,0,0,1,.2,1,2.11,2.11,0,0,1-.82,1.71A3.5,3.5,0,0,1,14.56,16.22ZM7.64,7.91H6.29L3.41,16.06H4.7l.67-1.93H8.45l.66,1.93h1.41Zm-1.86,5L6.92,9.63h0l1.11,3.29Z"/></svg>