<svg id="icn_card_pay" xmlns="http://www.w3.org/2000/svg" viewBox="0 0 24 24"><defs><style>.a{fill:currentColor;}</style></defs><title>icn_card_pay</title><path class="a" d="M19.65,11.44,14,6.64V4a1.89,1.89,0,0,0-1.75-2H4.75A1.89,1.89,0,0,0,3,4V16a1.89,1.89,0,0,0,1.75,2H6.87l3.85,3.85a.49.49,0,0,0,.35.15.51.51,0,0,0,.36-.15.5.5,0,0,0,0-.7L6.67,16.35a.94.94,0,0,1-.29-.68,1,1,0,0,1,.3-.68,1,1,0,0,1,.72-.3,1.1,1.1,0,0,1,.76.32l4.05,2.87a.5.5,0,0,0,.6,0A2,2,0,0,0,14,16V8l5,4.27a2.45,2.45,0,0,1,1,1.95v7.3a.5.5,0,0,0,1,0v-7.3A3.41,3.41,0,0,0,19.65,11.44ZM6,14.27a2,2,0,0,0-.6,1.39A1.92,1.92,0,0,0,5.89,17H4.75C4.34,17,4,16.51,4,16V4c0-.54.34-1,.75-1H9V14.38l-.21-.15A2.09,2.09,0,0,0,6,14.27ZM13,16a1.07,1.07,0,0,1-.46.92L11,15.8V3h1.25c.41,0,.75.46.75,1Z"/><path class="a" d="M7.5,5a.5.5,0,0,0-.5.5v3a.5.5,0,0,0,1,0v-3A.5.5,0,0,0,7.5,5Z"/></svg>