<svg id="icn_people_approved" xmlns="http://www.w3.org/2000/svg" viewBox="0 0 24 24"><defs><style>.a{fill:currentColor;}</style></defs><title>icn_people_approved</title><path class="a" d="M16,9a5.94,5.94,0,0,0-3.54,1.17,5.57,5.57,0,0,0-3-2.79,3.5,3.5,0,1,0-4,0A5.5,5.5,0,0,0,2,12.5V13a2,2,0,0,0,2,2h6a6,6,0,1,0,6-6ZM5,4.5A2.5,2.5,0,1,1,7.5,7,2.5,2.5,0,0,1,5,4.5ZM4,14a1,1,0,0,1-1-1v-.5a4.48,4.48,0,0,1,8.66-1.64A6,6,0,0,0,10.09,14Zm12,6a5,5,0,1,1,5-5A5,5,0,0,1,16,20Z"/><path class="a" d="M17.45,13.45l-2,2-.85-.84a.49.49,0,1,0-.7.7l1.2,1.2a.48.48,0,0,0,.7,0l2.4-2.4a.49.49,0,0,0-.7-.7Z"/></svg>