<svg id="icn_truck"  data-name="Layer 1" xmlns="http://www.w3.org/2000/svg" viewBox="0 0 24 24"><defs><style>.cls-1{fill:currentColor;}</style></defs><title>icn_truck</title><path class="cls-1" d="M22.82,11.3a.49.49,0,0,0,0-.11.3.3,0,0,0,0-.08L22.68,11,20.93,8.24C20.87,8.15,19.54,6,17.5,6H16V4.52a.5.5,0,0,0-.5-.5H1.5a.5.5,0,0,0-.5.5v13a.5.5,0,0,0,.5.5H3.05A2.5,2.5,0,0,0,8,18h8.1A2.5,2.5,0,0,0,21,18H22.5a.5.5,0,0,0,.5-.5V12.31A2.72,2.72,0,0,0,22.82,11.3ZM16,7h1.5C19,7,20.06,8.74,20.08,8.78L20.89,10l-.39,0H16ZM2,13V5H15v8H2Zm3.5,6A1.5,1.5,0,1,1,7,17.52,1.5,1.5,0,0,1,5.5,19Zm13,0a1.5,1.5,0,1,1,1.5-1.5A1.5,1.5,0,0,1,18.5,19ZM22,17H21a2.5,2.5,0,0,0-4.9,0H8a2.5,2.5,0,0,0-4.9,0H2V14H15.5a.5.5,0,0,0,.5-.5V11h4.5c1.5,0,1.5.78,1.5,1.29Z"/></svg>