<svg id="icn_share_iphone" xmlns="http://www.w3.org/2000/svg" viewBox="0 0 24 24"><defs><style>.a{fill:currentColor;}</style></defs><title>icn_share_iphone</title><path class="a" d="M15.35,5.85a.48.48,0,0,1-.7,0L12.5,3.71V15.5a.5.5,0,0,1-1,0V3.71L9.35,5.85a.48.48,0,0,1-.7,0,.48.48,0,0,1,0-.7l3-3A.36.36,0,0,1,11.81,2a.5.5,0,0,1,.38,0,.36.36,0,0,1,.16.11l3,3A.48.48,0,0,1,15.35,5.85ZM20,19.5v-9A2.5,2.5,0,0,0,17.5,8h-2a.5.5,0,0,0,0,1h2A1.5,1.5,0,0,1,19,10.5v9A1.5,1.5,0,0,1,17.5,21H6.5A1.5,1.5,0,0,1,5,19.5v-9A1.5,1.5,0,0,1,6.5,9h2a.5.5,0,0,0,0-1h-2A2.5,2.5,0,0,0,4,10.5v9A2.5,2.5,0,0,0,6.5,22h11A2.5,2.5,0,0,0,20,19.5Z"/></svg>