<svg id="icn_lock_closed" xmlns="http://www.w3.org/2000/svg" viewBox="0 0 24 24"><defs><style>.a{fill:currentColor;}</style></defs><title>icn_lock_closed</title><path class="a" d="M19.5,9H16.89s0-.05,0-.08V6.58A4.59,4.59,0,0,0,12.33,2h-.75A4.59,4.59,0,0,0,7,6.58V8.92A.24.24,0,0,0,7,9H4.5a.5.5,0,0,0-.5.5V19.55a2.51,2.51,0,0,0,2.5,2.5h11a2.51,2.51,0,0,0,2.5-2.5V9.5A.5.5,0,0,0,19.5,9ZM8,8.92V6.58A3.59,3.59,0,0,1,11.58,3h.75a3.59,3.59,0,0,1,3.58,3.58V8.92a.09.09,0,0,1-.08.08H8.08A.09.09,0,0,1,8,8.92ZM19,19.55a1.5,1.5,0,0,1-1.5,1.5H6.5A1.5,1.5,0,0,1,5,19.55V10H19Z"/><path class="a" d="M12,15a.5.5,0,0,0-.5.5v3a.5.5,0,0,0,1,0v-3A.5.5,0,0,0,12,15Z"/></svg>