<svg id="icn_shield_lock" xmlns="http://www.w3.org/2000/svg" viewBox="0 0 24 24"><defs><style>.a{fill:currentColor;}</style></defs><title>icn_shield_lock</title><path class="a" d="M12,22a.45.45,0,0,1-.16,0A12.36,12.36,0,0,1,3.05,8.77l.55-5.6A.52.52,0,0,1,4,2.72a44.69,44.69,0,0,1,16,0,.52.52,0,0,1,.41.45L21,8.77A12.36,12.36,0,0,1,12.16,22,.45.45,0,0,1,12,22ZM4.56,3.64,4.05,8.86A11.38,11.38,0,0,0,12,21,11.38,11.38,0,0,0,20,8.86l-.51-5.22A43.23,43.23,0,0,0,4.56,3.64ZM12.5,13v-.5a.5.5,0,0,0-1,0V13a.5.5,0,0,0,1,0Zm3-3.5h-1V8.37A2.37,2.37,0,0,0,12.13,6h-.26A2.37,2.37,0,0,0,9.5,8.37V9.5h-1A.5.5,0,0,0,8,10v4.12A1.89,1.89,0,0,0,9.9,16h4.2A1.89,1.89,0,0,0,16,14.12V10A.5.5,0,0,0,15.5,9.5Zm-5-1.13A1.38,1.38,0,0,1,11.87,7h.26A1.38,1.38,0,0,1,13.5,8.37V9.5h-3ZM15,14.12a.89.89,0,0,1-.9.88H9.9a.89.89,0,0,1-.9-.88V10.5h6Z"/></svg>