<svg id="icn_transfer" xmlns="http://www.w3.org/2000/svg" viewBox="0 0 24 24"><defs><style>.a{fill:currentColor;}</style></defs><title>icn_transfer</title><path class="a" d="M5.15,10.85a.48.48,0,0,0,.7,0,.48.48,0,0,0,0-.7L3.71,8H7.5c.64,0,1,.27,1.51,1.13l1.07,1.64a.51.51,0,0,0,.42.23.53.53,0,0,0,.27-.08.5.5,0,0,0,.15-.69L9.86,8.6A2.63,2.63,0,0,0,7.5,7H3.71L5.85,4.85a.49.49,0,0,0-.7-.7l-3,3a.48.48,0,0,0,0,.7Z"/><path class="a" d="M21.5,19h-5c-.89,0-1.22-.16-1.55-.72l-1-2a.5.5,0,1,0-.9.44l1,2A2.41,2.41,0,0,0,16.5,20h5a.5.5,0,0,0,0-1Z"/><path class="a" d="M17,8h3.29l-2.14,2.15a.48.48,0,0,0,0,.7.48.48,0,0,0,.7,0l3-3a.48.48,0,0,0,0-.7l-3-3a.49.49,0,0,0-.7.7L20.29,7H17a3.39,3.39,0,0,0-2.86,1.6L9.07,17.25l-.16.27C8.54,18.18,8.08,19,7.5,19h-5a.5.5,0,0,0,0,1h5c1.16,0,1.81-1.15,2.28-2L15,9.11A2.4,2.4,0,0,1,17,8Z"/></svg>