<svg id="icn_lock_open" xmlns="http://www.w3.org/2000/svg" viewBox="0 0 24 24"><defs><style>.a{fill:currentColor;}</style></defs><title>icn_lock_open</title><path class="a" d="M19.5,9H17V6.17a5.17,5.17,0,1,0-10.33,0,.5.5,0,0,0,.5.5.51.51,0,0,0,.5-.5,4.17,4.17,0,1,1,8.33,0V9H4.5a.5.5,0,0,0-.5.5v10A2.5,2.5,0,0,0,6.5,22h11A2.5,2.5,0,0,0,20,19.5V9.5A.5.5,0,0,0,19.5,9ZM19,19.5A1.5,1.5,0,0,1,17.5,21H6.5A1.5,1.5,0,0,1,5,19.5V10H19Z"/><path class="a" d="M13.5,17h-3a.5.5,0,0,0,0,1h3a.5.5,0,0,0,0-1Z"/></svg>