<svg id="icn_tools" xmlns="http://www.w3.org/2000/svg" viewBox="0 0 24 24"><defs><style>.a{fill:currentColor;}</style></defs><title>icn_tools</title><path class="a" d="M16.71,13.53a.5.5,0,0,0-.71,0l-.69.69L14,12.86l2.1-2.1A4.31,4.31,0,0,0,17.5,11,4.51,4.51,0,0,0,22,6.5a4.41,4.41,0,0,0-.41-1.85.47.47,0,0,0-.36-.28.48.48,0,0,0-.44.14L19.15,6.15C19,6.29,18.67,6.62,18,6s-.31-1-.17-1.13l1.64-1.64a.48.48,0,0,0,.14-.44.47.47,0,0,0-.28-.36A4.41,4.41,0,0,0,17.5,2,4.51,4.51,0,0,0,13,6.5a4.35,4.35,0,0,0,.24,1.44L11.14,10,7.77,6.68,7.11,5.35A.65.65,0,0,0,7,5.17L4.19,3.1a.49.49,0,0,0-.65,0L2.15,4.54a.49.49,0,0,0,0,.65L4.17,8a.65.65,0,0,0,.18.15l1.33.66L9,12.14,3.43,17.75a1.91,1.91,0,0,0-.59,1.42,2,2,0,0,0,2,2h0a2,2,0,0,0,1.41-.59L11.86,15l1.36,1.35-.69.69a.5.5,0,0,0,0,.71l4.16,4.17A3.71,3.71,0,0,0,19.28,23a2.69,2.69,0,0,0,1.94-.78,3.23,3.23,0,0,0-.34-4.53ZM14.17,8.41a.49.49,0,0,0,.11-.55A3.28,3.28,0,0,1,14,6.5a3.48,3.48,0,0,1,4.22-3.42L17.15,4.15a1.56,1.56,0,0,0-.5,1.33,2.1,2.1,0,0,0,.67,1.2,2.1,2.1,0,0,0,1.2.67,1.56,1.56,0,0,0,1.33-.5l1.07-1.07A3.48,3.48,0,0,1,17.5,10a3.28,3.28,0,0,1-1.34-.28.52.52,0,0,0-.57.11l-2.33,2.33-1.42-1.42ZM5.55,19.87a1.1,1.1,0,0,1-.72.29,1,1,0,0,1-.7-.3.94.94,0,0,1-.29-.69,1,1,0,0,1,.29-.72l5.61-5.61,1.42,1.42ZM6.33,8a.38.38,0,0,0-.13-.09L4.91,7.27,3.16,4.94l.78-.78L6.27,5.91,6.92,7.2A.38.38,0,0,0,7,7.33l3.42,3.42.35.35.35.35,1.42,1.42.35.35.35.35,1.35,1.35-.68.68ZM20.52,21.52a2.26,2.26,0,0,1-3.12-.35l-3.81-3.82,2.09-2.09.67-.67,3.82,3.81A2.26,2.26,0,0,1,20.52,21.52Z"/></svg>