<svg id="icn_phone_globe" xmlns="http://www.w3.org/2000/svg" viewBox="0 0 24 24"><defs><style>.a{fill:currentColor;}</style></defs><title>icn_phone_globe</title><path class="a" d="M10,19.5a.5.5,0,0,1-.5.5h-3a.5.5,0,0,1,0-1h3A.5.5,0,0,1,10,19.5Zm12-7A6.5,6.5,0,0,1,15.5,19a6.69,6.69,0,0,1-1.5-.18v.3A2.8,2.8,0,0,1,11.3,22H4.7A2.8,2.8,0,0,1,2,19.12V4.88A2.8,2.8,0,0,1,4.7,2h6.6A2.8,2.8,0,0,1,14,4.88v1.3A6.69,6.69,0,0,1,15.5,6,6.5,6.5,0,0,1,22,12.5ZM17,7.22a8.75,8.75,0,0,1,.9,2.87,8.75,8.75,0,0,1,2.87.9A5.5,5.5,0,0,0,17,7.22ZM14.13,10c.44,0,.9-.06,1.37-.06s.93,0,1.37.06C16.51,8,15.8,7,15.5,7S14.49,8,14.13,10Zm-3.91,1a8.75,8.75,0,0,1,2.87-.9A8.75,8.75,0,0,1,14,7.22,5.5,5.5,0,0,0,10.22,11ZM12.9,12.5c0-.47,0-.93.06-1.37-1.94.36-3,1.07-3,1.37s1,1,3,1.37C12.92,13.43,12.9,13,12.9,12.5Zm.1,6a6.5,6.5,0,0,1,0-12V4.88A1.79,1.79,0,0,0,11.3,3H4.7A1.79,1.79,0,0,0,3,4.88V19.12A1.79,1.79,0,0,0,4.7,21h6.6A1.79,1.79,0,0,0,13,19.12Zm1-.72a8.75,8.75,0,0,1-.9-2.87,8.75,8.75,0,0,1-2.87-.9A5.5,5.5,0,0,0,14,17.78ZM15.5,14.1A14.25,14.25,0,0,0,17,14a14.48,14.48,0,0,0,0-3,14.48,14.48,0,0,0-3,0,14.48,14.48,0,0,0,0,3A14.25,14.25,0,0,0,15.5,14.1Zm1.37.94c-.44,0-.9.06-1.37.06s-.93,0-1.37-.06c.36,1.94,1.07,3,1.37,3S16.51,17,16.87,15Zm3.91-1a8.75,8.75,0,0,1-2.87.9,8.75,8.75,0,0,1-.9,2.87A5.5,5.5,0,0,0,20.78,14ZM21,12.5c0-.3-1-1-3-1.37,0,.44.06.9.06,1.37s0,.93-.06,1.37C20,13.51,21,12.8,21,12.5ZM9.5,19h-3a.5.5,0,0,0,0,1h3a.5.5,0,0,0,0-1Zm0,0h-3a.5.5,0,0,0,0,1h3a.5.5,0,0,0,0-1Z"/></svg>