<svg id="icn_bin" xmlns="http://www.w3.org/2000/svg" viewBox="0 0 24 24"><defs><style>.a{fill:currentColor;}</style></defs><title>icn_bin</title><path class="b" d="M14.61,22H9.39A3.24,3.24,0,0,1,6,19V7.5A.5.5,0,0,1,6.5,7h11a.5.5,0,0,1,.5.5V19A3.24,3.24,0,0,1,14.61,22ZM7,8V19A2.24,2.24,0,0,0,9.39,21h5.22A2.24,2.24,0,0,0,17,19V8Zm4,10.46v-8a.5.5,0,0,0-1,0v8a.5.5,0,0,0,1,0Zm3,0v-8a.5.5,0,0,0-1,0v8a.5.5,0,0,0,1,0ZM18.5,5H16a3,3,0,0,0-3-3H11A3,3,0,0,0,8,5H5.5a.5.5,0,0,0,0,1h13a.5.5,0,0,0,0-1ZM9,5a2,2,0,0,1,2-2h2a2,2,0,0,1,2,2Z"/></svg>