<svg id="icn_document_jpg" xmlns="http://www.w3.org/2000/svg" viewBox="0 0 24 24"><defs><style>.a{fill:currentColor;}</style></defs><title>icn_document_jpg</title><path class="a" d="M11.5,7h-4a.5.5,0,0,1,0-1h4a.5.5,0,0,1,0,1ZM12,8.5a.5.5,0,0,0-.5-.5h-4a.5.5,0,0,0,0,1h4A.5.5,0,0,0,12,8.5Zm5,2a.5.5,0,0,0-.5-.5h-9a.5.5,0,0,0,0,1h9A.5.5,0,0,0,17,10.5Zm2-4V20a2,2,0,0,1-2,2H7a2,2,0,0,1-2-2V4A2,2,0,0,1,7,2h7.5a.47.47,0,0,1,.35.15l4,4A.47.47,0,0,1,19,6.5ZM18,7l-.15,0H14.5a.5.5,0,0,1-.5-.5V3.15A.77.77,0,0,1,14,3H7A1,1,0,0,0,6,4V20a1,1,0,0,0,1,1H17a1,1,0,0,0,1-1ZM8.81,16.46a.59.59,0,0,1-.1.38.34.34,0,0,1-.3.14.38.38,0,0,1-.3-.11A.61.61,0,0,1,8,16.5H7.09a1.09,1.09,0,0,0,.35.86,1.44,1.44,0,0,0,1,.3,1.54,1.54,0,0,0,.68-.15,1.09,1.09,0,0,0,.47-.43,1.18,1.18,0,0,0,.17-.62V14H8.81Zm3.11-.09a1.75,1.75,0,0,0,1.1-.32,1.05,1.05,0,0,0,.4-.85,1.21,1.21,0,0,0-.19-.65,1.18,1.18,0,0,0-.52-.44,1.9,1.9,0,0,0-.78-.15H10.41v3.65h.92V16.37Zm-.59-1.73h.61a.54.54,0,0,1,.4.15.6.6,0,0,1,.14.41.46.46,0,0,1-.14.36.56.56,0,0,1-.41.13h-.6Zm5.58,1H15.35v.6H16v.57a.78.78,0,0,1-.53.15.72.72,0,0,1-.62-.27,1.44,1.44,0,0,1-.19-.82v-.22a1.43,1.43,0,0,1,.19-.81.59.59,0,0,1,.53-.28.65.65,0,0,1,.45.13.7.7,0,0,1,.2.44h.89a1.29,1.29,0,0,0-.46-.93,1.73,1.73,0,0,0-1.11-.32,1.74,1.74,0,0,0-.86.22,1.56,1.56,0,0,0-.57.62,2.13,2.13,0,0,0-.2.94V16a1.72,1.72,0,0,0,.48,1.22,1.66,1.66,0,0,0,1.2.44,2.81,2.81,0,0,0,.89-.14,1.41,1.41,0,0,0,.62-.36Z"/></svg>