<svg id="icn_minibus"  data-name="Layer 1" xmlns="http://www.w3.org/2000/svg" viewBox="0 0 24 24"><defs><style>.cls-1{fill:currentColor;}</style></defs><title>icn_minibus</title><path class="cls-1" d="M23,11.46a.75.75,0,0,0-.08-.24l-2-3C20.87,8.15,19.54,6,17.5,6H1.5a.5.5,0,0,0-.5.5v10a.5.5,0,0,0,.5.5H3.05A2.5,2.5,0,0,0,8,17h8.1A2.5,2.5,0,0,0,21,17H22.5a.5.5,0,0,0,.5-.5ZM20.08,8.78,20.92,10a2.72,2.72,0,0,0-.42,0H16V7h1.5C19,7,20.06,8.74,20.08,8.78ZM8,10V7h7v3ZM2,7H7v3H2ZM5.5,18A1.5,1.5,0,1,1,7,16.5,1.5,1.5,0,0,1,5.5,18Zm13,0A1.5,1.5,0,1,1,20,16.5,1.5,1.5,0,0,1,18.5,18ZM22,16H21a2.5,2.5,0,0,0-4.9,0H8a2.5,2.5,0,0,0-4.9,0H2V11H20.5c1,0,1.5.34,1.5.95V16Z"/></svg>