<svg id="icn_link_out" xmlns="http://www.w3.org/2000/svg" viewBox="0 0 24 24"><defs><style>.a{fill:currentColor;}</style></defs><title>icn_link_out</title><path class="a" d="M20,4.5v4a.5.5,0,0,1-1,0V5.71l-7.15,7.14a.48.48,0,0,1-.7,0,.48.48,0,0,1,0-.7L18.29,5H15.5a.5.5,0,0,1,0-1h4a.41.41,0,0,1,.19,0,.51.51,0,0,1,.27.27A.41.41,0,0,1,20,4.5Zm0,13v-5a.5.5,0,0,0-1,0v5A1.5,1.5,0,0,1,17.5,19H6.5A1.5,1.5,0,0,1,5,17.5V6.5A1.5,1.5,0,0,1,6.5,5h5a.5.5,0,0,0,0-1h-5A2.5,2.5,0,0,0,4,6.5v11A2.5,2.5,0,0,0,6.5,20h11A2.5,2.5,0,0,0,20,17.5Z"/></svg>