<svg id="icn_collaboration"  data-name="Working layer" xmlns="http://www.w3.org/2000/svg" viewBox="0 0 24 24"><defs><style>.cls-1{fill:currentColor;}</style></defs><title>icn_collaboration</title><path class="cls-1" d="M14.1,6.41a2.5,2.5,0,1,0-3.2,0A3.49,3.49,0,0,0,9,9.5,1.5,1.5,0,0,0,10.5,11h4A1.5,1.5,0,0,0,16,9.5,3.49,3.49,0,0,0,14.1,6.41ZM11,4.5A1.5,1.5,0,1,1,12.5,6,1.5,1.5,0,0,1,11,4.5ZM14.5,10h-4a.5.5,0,0,1-.5-.5,2.5,2.5,0,0,1,5,0A.5.5,0,0,1,14.5,10ZM6.1,17.41a2.5,2.5,0,1,0-3.2,0A3.49,3.49,0,0,0,1,20.5,1.5,1.5,0,0,0,2.5,22h4A1.5,1.5,0,0,0,8,20.5,3.49,3.49,0,0,0,6.1,17.41ZM3,15.5A1.5,1.5,0,1,1,4.5,17,1.5,1.5,0,0,1,3,15.5ZM6.5,21h-4a.5.5,0,0,1-.5-.5,2.5,2.5,0,0,1,5,0A.5.5,0,0,1,6.5,21Zm14.6-3.59a2.5,2.5,0,1,0-3.2,0A3.49,3.49,0,0,0,16,20.5,1.5,1.5,0,0,0,17.5,22h4A1.5,1.5,0,0,0,23,20.5,3.49,3.49,0,0,0,21.1,17.41ZM18,15.5A1.5,1.5,0,1,1,19.5,17,1.5,1.5,0,0,1,18,15.5ZM21.5,21h-4a.5.5,0,0,1-.5-.5,2.5,2.5,0,0,1,5,0A.5.5,0,0,1,21.5,21Zm-18-9M8,4.5v2a.5.5,0,0,1-1,0V5.76a7.74,7.74,0,0,0-3,5.76.5.5,0,0,1-.5.48h0A.5.5,0,0,1,3,11.48,8.77,8.77,0,0,1,6.34,5H5.5a.5.5,0,0,1,0-1h2A.5.5,0,0,1,8,4.5ZM22,9.72l-1,2v0a.46.46,0,0,1-.17.17l-.05,0-.1.05H20.5a.46.46,0,0,1-.2-.05h0l-2-1a.5.5,0,0,1,.44-.9l1,.51C19,7.92,18.16,6.18,16.23,4.92a.5.5,0,0,1,.54-.84c2.14,1.39,3.11,3.24,3.88,6l.4-.8a.5.5,0,0,1,.9.44ZM14.5,19.5a.5.5,0,0,1-.5.5H11.2l.56.56a.5.5,0,0,1,0,.71.46.46,0,0,1-.35.14.47.47,0,0,1-.35-.14L9.64,19.85a.51.51,0,0,1,0-.7l1.42-1.42a.5.5,0,0,1,.7,0,.5.5,0,0,1,0,.71L11.2,19H14A.5.5,0,0,1,14.5,19.5Z"/></svg>