<svg id="icn_logo" xmlns="http://www.w3.org/2000/svg" viewBox="0 0 24 24"><defs><style>.a{fill:currentColor;}</style></defs><title>icn_logo</title><path class="a" d="M19.93,3.73a1,1,0,0,0-.78-1A36.29,36.29,0,0,0,12,2a36.29,36.29,0,0,0-7.15.77,1,1,0,0,0-.78,1,68.15,68.15,0,0,0-.39,9.06C4.2,17.6,7.78,20.61,12,22a15.55,15.55,0,0,0,1.6-.62l-7.18-14-.71-.52a.47.47,0,0,1-.18-.35V4.32a.21.21,0,0,1,.22-.21.25.25,0,0,1,.13,0L7.62,5.45a.46.46,0,0,1,.17.36v.86a5.18,5.18,0,0,1,2.8-.61c1.58.09,2.67,1.14,4.57,1.24a5.94,5.94,0,0,0,3.36-.88c.08,1.11.16,2.34.2,3.45l0,1.1a6.09,6.09,0,0,1-3.07,1.32c-1.34,0-2.24-.85-3.5-.85a3,3,0,0,0-1.66.5L15,20.68a10.28,10.28,0,0,0,5.36-7.89A68.15,68.15,0,0,0,19.93,3.73ZM11.15,19.92l-.41-.19a8.9,8.9,0,0,1-5.43-7.12,31.29,31.29,0,0,1,.05-4.27Zm4-14.06c-1.9-.1-2.94-1.08-4.52-1.16A4.91,4.91,0,0,0,9,4.9L7.54,4h0A31.35,31.35,0,0,1,12,3.64a33.36,33.36,0,0,1,6.33.64l.08.76A6,6,0,0,1,15.16,5.86Zm3.54,6.75a8.38,8.38,0,0,1-3.21,5.74L13.06,13.6a2.11,2.11,0,0,0-.49-.61,8.58,8.58,0,0,0,3.1.81,4.79,4.79,0,0,0,3-1.26Z"/></svg>