<svg id="icn_tv" xmlns="http://www.w3.org/2000/svg"  viewBox="0 0 24 24"><defs><style>.a{fill:currentColor;}</style><clipPath ><path class="a" d="M-208-328.27a1,1,0,0,0,1,1,1,1,0,0,0,1-1,1,1,0,0,0-1-1A1,1,0,0,0-208-328.27Zm12,0a1,1,0,0,0-1-1,1,1,0,0,0-1,1,1,1,0,0,0,1,1A1,1,0,0,0-196-328.27Zm-7-9v4h2v-1.92a7,7,0,0,1,6,6.92,7,7,0,0,1-7,7,7,7,0,0,1-7-7,6.92,6.92,0,0,1,1.58-4.42l5.42,5.42,1.41-1.41-6.8-6.8v0a9,9,0,0,0-3.61,7.19,9,9,0,0,0,9,9,9,9,0,0,0,9-9,9,9,0,0,0-9-9Zm0,14a1,1,0,0,0,1,1,1,1,0,0,0,1-1,1,1,0,0,0-1-1A1,1,0,0,0-203-323.27Z"/></clipPath></defs><title>icn_tv</title><path class="b" d="M20.5,7h-6l2.4-3.2a.5.5,0,0,0-.1-.7.51.51,0,0,0-.7.1L13.25,7h-2.5L7.9,3.2a.5.5,0,0,0-.8.6L9.5,7h-6A1.5,1.5,0,0,0,2,8.5v11A1.5,1.5,0,0,0,3.5,21h17A1.5,1.5,0,0,0,22,19.5V8.5A1.5,1.5,0,0,0,20.5,7ZM21,19.5a.5.5,0,0,1-.5.5H3.5a.5.5,0,0,1-.5-.5V8.5A.5.5,0,0,1,3.5,8h17a.5.5,0,0,1,.5.5ZM16,9H5a1,1,0,0,0-1,1v8a1,1,0,0,0,1,1H16a1,1,0,0,0,1-1V10A1,1,0,0,0,16,9Zm0,9H5V10H16Zm3-8a1,1,0,1,0,1,1A1,1,0,0,0,19,10Zm0,3a1,1,0,1,0,1,1A1,1,0,0,0,19,13Z"/></svg>