<svg id="icn_thief"  xmlns="http://www.w3.org/2000/svg" viewBox="0 0 24 24"><defs><style>.cls-1{fill:currentColor;}</style></defs><title>icn_thief</title><path class="cls-1" d="M21.5,11H18V7.42A2.42,2.42,0,0,0,15.58,5H8.42A2.42,2.42,0,0,0,6,7.42V11H2.5a.5.5,0,0,0,0,1h19a.5.5,0,0,0,0-1ZM17,11H7V7.42A1.41,1.41,0,0,1,8.42,6h7.16A1.41,1.41,0,0,1,17,7.42Zm.8,2.5M12,18,6,15.5C6,15,7.6,15,8,15c1,0,2,.2,2,1s-1,1-2,1S6,16.3,6,15.5ZM14.92,19A4.85,4.85,0,0,1,12,17.51,4.85,4.85,0,0,1,9.08,19c-3.45,0-4.67-1.1-5.85-3.26a1.43,1.43,0,0,1,0-1.49C3.88,13.07,6.45,13,7,13H17c.51,0,3.08.07,3.78,1.25a1.43,1.43,0,0,1-.05,1.49C19.59,17.9,18.37,19,14.92,19Zm-3.11-2.5h.38a.51.51,0,0,1,.33.13A4.42,4.42,0,0,0,14.93,18c3,0,3.93-.84,5-2.74.17-.32.1-.45.07-.5C19.66,14.25,18,14,17,14H7c-1,0-2.62.25-2.92.76,0,.05-.1.18.07.5,1,1.9,2,2.74,5,2.74a4.45,4.45,0,0,0,2.4-1.37A.51.51,0,0,1,11.81,16.5ZM16,17c-1,0-2-.05-2-1s1-1,2-1c.4,0,2,0,2,.5C18,16.3,17,17,16,17Z"/></svg>