<svg id="icn_safe" xmlns="http://www.w3.org/2000/svg" viewBox="0 0 24 24"><defs><style>.a{fill:currentColor;}</style></defs><title>icn_safe</title><path class="a" d="M18.5,3H5.5A2.5,2.5,0,0,0,3,5.5v13A2.5,2.5,0,0,0,5.5,21h13A2.5,2.5,0,0,0,21,18.5V5.5A2.5,2.5,0,0,0,18.5,3ZM4,8.53H5v6.94H4ZM6,6H18V18H6ZM5.5,4h13A1.5,1.5,0,0,1,20,5.5V10H19V5.5a.5.5,0,0,0-.5-.5H5.5a.5.5,0,0,0-.5.5v2H4v-2A1.5,1.5,0,0,1,5.5,4Zm13,16H5.5A1.5,1.5,0,0,1,4,18.5v-2H5v2a.5.5,0,0,0,.5.5h13a.5.5,0,0,0,.5-.5V14h1v4.5A1.5,1.5,0,0,1,18.5,20Z"/><path class="a" d="M12,7a5,5,0,1,0,5,5A5,5,0,0,0,12,7Zm0,9a4,4,0,1,1,4-4A4,4,0,0,1,12,16Z"/><path class="a" d="M13.5,11.5h-.65a1.17,1.17,0,0,0-.35-.35V10.5a.5.5,0,0,0-1,0v.65a1.17,1.17,0,0,0-.35.35H10.5a.5.5,0,0,0,0,1h.65a1.17,1.17,0,0,0,.35.35v.65a.5.5,0,0,0,1,0v-.65a1.17,1.17,0,0,0,.35-.35h.65a.5.5,0,0,0,0-1Z"/></svg>