<svg id="icn_camera_frame"  xmlns="http://www.w3.org/2000/svg" viewBox="0 0 24 24"><defs><style>.cls-1{fill:currentColor;}</style></defs><title>icn_camera_frame</title><path class="cls-1" d="M13.76,11.38A2.94,2.94,0,0,0,15,9,3,3,0,0,0,9,9a2.94,2.94,0,0,0,1.22,2.4A5,5,0,0,0,7,16.06v.17A1.77,1.77,0,0,0,8.77,18h6.46A1.77,1.77,0,0,0,17,16.23v-.17A5,5,0,0,0,13.76,11.38ZM10,9a2,2,0,1,1,2,2A2,2,0,0,1,10,9Zm6,7.25a.78.78,0,0,1-.77.77H8.77A.78.78,0,0,1,8,16.23v-.17a4,4,0,0,1,8,0ZM7.5,22h-3A2.5,2.5,0,0,1,2,19.5v-3a.5.5,0,0,1,1,0v3A1.5,1.5,0,0,0,4.5,21h3a.5.5,0,0,1,0,1Zm12,0h-3a.5.5,0,0,1,0-1h3A1.5,1.5,0,0,0,21,19.5v-3a.5.5,0,0,1,1,0v3A2.5,2.5,0,0,1,19.5,22Zm2-14a.5.5,0,0,1-.5-.5v-3A1.5,1.5,0,0,0,19.5,3h-3a.5.5,0,0,1,0-1h3A2.5,2.5,0,0,1,22,4.5v3A.5.5,0,0,1,21.5,8ZM2.5,8A.5.5,0,0,1,2,7.5v-3A2.5,2.5,0,0,1,4.5,2h3a.5.5,0,0,1,0,1h-3A1.5,1.5,0,0,0,3,4.5v3A.5.5,0,0,1,2.5,8Z"/></svg>