<svg id="icn_house_repair"  xmlns="http://www.w3.org/2000/svg" viewBox="0 0 24 24"><defs><style>.cls-1{fill:currentColor;}</style></defs><title>icn_house_repair</title><path class="cls-1" d="M21.5,3h-2a.5.5,0,0,0-.5.5V4H18V3.5a.5.5,0,0,0-.5-.5h-5a.5.5,0,0,0-.5.5v.69A5,5,0,0,0,8,7.34a.48.48,0,0,0,.06.45A.52.52,0,0,0,8.5,8H12v.5a.5.5,0,0,0,.5.5H13v3.64L10.3,9.75A2.34,2.34,0,0,0,8.57,9a2.38,2.38,0,0,0-1.73.75L5,11.73V10H3v3.87l-.36.39A2.36,2.36,0,0,0,2,15.87V20.5A1.55,1.55,0,0,0,3.5,22h10A1.55,1.55,0,0,0,15,20.5V20h1.5a.5.5,0,0,0,.5-.5V9h.5a.5.5,0,0,0,.5-.5V8h1v.5a.5.5,0,0,0,.5.5h2a.5.5,0,0,0,.5-.5v-5A.5.5,0,0,0,21.5,3ZM12,7H9.28A4.37,4.37,0,0,1,12,5.22Zm2,13.5a.55.55,0,0,1-.5.5H10.14V17.61A.61.61,0,0,0,9.53,17H7.61a.61.61,0,0,0-.61.61V21H3.5a.55.55,0,0,1-.5-.5V15.87a1.35,1.35,0,0,1,.37-.93l4.2-4.51a1.35,1.35,0,0,1,1-.43,1.34,1.34,0,0,1,1,.43L13,14.1v5.4a.5.5,0,0,0,.5.5H14ZM16,19H14V9h2ZM17,8H13V4h4Zm1-1V5h1V7Zm3,1H20V4h1Z"/></svg>