<svg id="icn_camera_webcam_disabled"  data-name="Working layer" xmlns="http://www.w3.org/2000/svg" viewBox="0 0 24 24"><defs><style>.cls-1{fill:currentColor;}</style></defs><title>icn_camera_webcam_disabled</title><path class="cls-1" d="M21.75,7.07a.52.52,0,0,0-.51,0L17,9.61V8.5a2,2,0,0,0,0-.35L16,9v6.5A1.5,1.5,0,0,1,14.5,17H8L7,18h7.5A2.5,2.5,0,0,0,17,15.5V14.39l4.24,2.54a.48.48,0,0,0,.26.07.47.47,0,0,0,.25-.07A.49.49,0,0,0,22,16.5v-9A.49.49,0,0,0,21.75,7.07ZM21,15.62l-4-2.4V10.78l4-2.4ZM5.7,18,15.85,7.85l.73-.73,3.27-3.27a.49.49,0,0,0-.7-.7L15.88,6.42A2.42,2.42,0,0,0,14.5,6h-9A2.5,2.5,0,0,0,3,8.5v7a2.49,2.49,0,0,0,1.51,2.29L2.15,20.15a.48.48,0,0,0,0,.7.48.48,0,0,0,.7,0L5.7,18Zm-.38-1A1.48,1.48,0,0,1,4,15.5v-7A1.5,1.5,0,0,1,5.5,7h9a1.29,1.29,0,0,1,.64.16Z"/></svg>