<svg id="icn_search" xmlns="http://www.w3.org/2000/svg" viewBox="0 0 24 24"><defs><style>.a{fill:currentColor;}</style></defs><title>icn_search</title><path class="b" d="M20.86,18.74,17,14.85a1.48,1.48,0,0,0-1.7-.28l-.84-.85A6.43,6.43,0,0,0,16,9.5,6.5,6.5,0,1,0,9.5,16a6.43,6.43,0,0,0,4.22-1.57l.85.84a1.48,1.48,0,0,0,.28,1.7l3.89,3.89a.51.51,0,0,0,.7,0l1.42-1.42A.5.5,0,0,0,20.86,18.74ZM9.5,15A5.5,5.5,0,1,1,15,9.5,5.51,5.51,0,0,1,9.5,15Zm9.59,4.8-3.53-3.54a.48.48,0,0,1,0-.7.48.48,0,0,1,.7,0l3.54,3.53Z"/></svg>