<svg id="icn_tow_truck"  data-name="Layer 1" xmlns="http://www.w3.org/2000/svg" viewBox="0 0 24 24"><defs><style>.cls-1{fill:currentColor;}</style></defs><title>icn_tow_truck</title><path class="cls-1" d="M23,12.31l-2-4C20.83,8,19.56,5,17.5,5h-3a.5.5,0,0,0-.5.5V8.74L3.71,4.06A.52.52,0,0,0,3,4.51v4a.5.5,0,0,1-.5.5A.52.52,0,0,1,2,8.5a.5.5,0,0,0-1,0,1.5,1.5,0,1,0,3,0V7.45L10.86,12H1.5a.5.5,0,0,0-.5.5v4a.5.5,0,0,0,.5.5H3.05A2.5,2.5,0,0,0,8,17h8.1A2.5,2.5,0,0,0,21,17H22.5a.5.5,0,0,0,.5-.5v-4A.59.59,0,0,0,23,12.31ZM15,6h2.5C18.68,6,19.73,8,20.05,8.74L21.69,12H15ZM4,6.25v-1L14,9.84V12H12.66ZM5.5,18A1.5,1.5,0,1,1,7,16.5,1.5,1.5,0,0,1,5.5,18Zm13,0A1.5,1.5,0,1,1,20,16.5,1.5,1.5,0,0,1,18.5,18ZM22,16H21a2.5,2.5,0,0,0-4.9,0H8a2.5,2.5,0,0,0-4.9,0H2V13H22Z"/></svg>