<svg id="icn_signal" xmlns="http://www.w3.org/2000/svg" viewBox="0 0 24 24"><defs><style>.a{fill:currentColor;}</style></defs><title>icn_signal</title><path class="a" d="M13,16a1,1,0,1,1-1-1A1,1,0,0,1,13,16Zm6.78-5.08a.51.51,0,0,0,.14-.7A10.67,10.67,0,0,0,19,9.1,9.52,9.52,0,0,0,5,9.1a10.67,10.67,0,0,0-.89,1.12.5.5,0,1,0,.84.56,7.64,7.64,0,0,1,.79-1,8.53,8.53,0,0,1,12.58,0,7.64,7.64,0,0,1,.79,1,.52.52,0,0,0,.42.22A.57.57,0,0,0,19.78,10.92Zm-2,2a.49.49,0,0,0,.15-.69,7.84,7.84,0,0,0-.66-.86,7,7,0,0,0-10.52,0,7.84,7.84,0,0,0-.66.86.5.5,0,1,0,.84.54A7.7,7.7,0,0,1,7.49,12a6,6,0,0,1,9,0,7.7,7.7,0,0,1,.57.74.51.51,0,0,0,.42.23A.53.53,0,0,0,17.77,12.92Zm-2,2a.5.5,0,0,0,.15-.69,5.9,5.9,0,0,0-.43-.59,4.53,4.53,0,0,0-7,0,5.9,5.9,0,0,0-.43.59.5.5,0,0,0,.84.54,5.92,5.92,0,0,1,.35-.48,3.53,3.53,0,0,1,5.46,0,5.92,5.92,0,0,1,.35.48.48.48,0,0,0,.42.23A.47.47,0,0,0,15.77,14.92Z"/></svg>