<svg id="icn_loan" xmlns="http://www.w3.org/2000/svg" viewBox="0 0 24 24"><defs><style>.a{fill:currentColor;}</style></defs><title>icn_loan</title><path class="a" d="M13,7.94H6a.5.5,0,0,0-.5.5.5.5,0,0,0,.5.5h7a.5.5,0,0,0,.5-.5A.5.5,0,0,0,13,7.94Z"/><path class="a" d="M11,9.94H6a.5.5,0,0,0-.5.5.5.5,0,0,0,.5.5h5a.5.5,0,0,0,.5-.5A.5.5,0,0,0,11,9.94Z"/><path class="a" d="M9,11.94H6a.5.5,0,0,0-.5.5.5.5,0,0,0,.5.5H9a.5.5,0,0,0,.5-.5A.5.5,0,0,0,9,11.94Z"/><path class="a" d="M20.5,14.71c0-1.33-1.64-2.27-4-2.27a8,8,0,0,0-1,.07V3.44A1.5,1.5,0,0,0,14,1.94H5a1.5,1.5,0,0,0-1.5,1.5v13A1.5,1.5,0,0,0,5,17.94h7.5v2a.46.46,0,0,0,.06.23c.28,1.13,1.82,1.89,3.94,1.89s3.66-.76,3.94-1.89a.46.46,0,0,0,.06-.23v-5a.44.44,0,0,0,0-.1S20.5,14.76,20.5,14.71Zm-8,0s0,.09,0,.13a.44.44,0,0,0,0,.1v2H5a.5.5,0,0,1-.5-.5V5.94h10v6.78C13.27,13.09,12.5,13.8,12.5,14.71Zm4,6.35c-1.66,0-3-.57-3-1.27,0-.27.21-.51.54-.71a6.37,6.37,0,0,0,2.46.44A6.57,6.57,0,0,0,19,19.08a.9.9,0,0,1,.53.71C19.5,20.49,18.16,21.06,16.5,21.06Zm0-2.54c-1.66,0-3-.57-3-1.27a.9.9,0,0,1,.53-.71A6.42,6.42,0,0,0,16.5,17,6.33,6.33,0,0,0,19,16.54c.34.2.54.44.54.71C19.5,18,18.16,18.52,16.5,18.52Zm0-2.54c-1.66,0-3-.57-3-1.27s1.34-1.27,3-1.27,3,.57,3,1.27S18.16,16,16.5,16Z"/></svg>