<svg id="icn_emoji_happy" xmlns="http://www.w3.org/2000/svg" viewBox="0 0 24 24"><defs><style>.a{fill:currentColor;}</style></defs><title>icn_emoji_happy</title><path class="b" d="M12,18a5.47,5.47,0,0,1-5-3.3.49.49,0,0,1,0-.47A.5.5,0,0,1,7.5,14h9a.5.5,0,0,1,.42.23.49.49,0,0,1,0,.47A5.47,5.47,0,0,1,12,18ZM8.34,15a4.35,4.35,0,0,0,7.32,0ZM12,22A10,10,0,1,1,22,12,10,10,0,0,1,12,22ZM12,3a9,9,0,1,0,9,9A9,9,0,0,0,12,3ZM9,11a1,1,0,1,1,1-1A1,1,0,0,1,9,11Zm0-1Zm6,1a1,1,0,1,1,1-1A1,1,0,0,1,15,11Zm0-1Z"/></svg>