<svg id="icn_ambulance" enable-background="new 0 0 24 24" viewBox="0 0 24 24" xmlns="http://www.w3.org/2000/svg"><path d="m13 12h-2v2h-1v-2h-2v-1h2v-2h1v2h2zm10 .1v4.3c0 .3-.2.5-.5.5h-1.5c-.2 1.2-1.2 2.1-2.5 2.1s-2.2-.9-2.5-2.1h-8c-.3 1.2-1.3 2.1-2.5 2.1s-2.2-.9-2.5-2.1h-1.5c-.3 0-.5-.2-.5-.5v-3.9-.5-5.5c0-.3.2-.5.5-.5h10.5v-.5c0-.8.7-1.5 1.5-1.5s1.5.7 1.5 1.5v.5h2.5c2 0 3.4 2.1 3.4 2.2l2 3c.1.1.1.2.1.3zm-7-2.1h4.5.4l-.8-1.3s-1.1-1.8-2.6-1.8h-1.5zm-3-4h1v-.5c0-.3-.2-.5-.5-.5s-.5.2-.5.5zm-6 10.5c0-.8-.7-1.5-1.5-1.5s-1.5.7-1.5 1.5.7 1.5 1.5 1.5 1.5-.7 1.5-1.5zm13 0c0-.8-.7-1.5-1.5-1.5s-1.5.7-1.5 1.5.7 1.5 1.5 1.5 1.5-.7 1.5-1.5zm2-4.6c0-.7-.8-.9-1.5-.9h-5c-.3 0-.5-.2-.5-.5v-3.5h-.5-2-10.5v5 .5 3.4h1.1c.2-1.1 1.2-1.9 2.4-1.9s2.2.8 2.4 1.9h8.1c.3-1.1 1.2-1.9 2.4-1.9s2.2.8 2.4 1.9h1.2v-3.8z" fill="#767676"/></svg>