<svg id="icn_chat" xmlns="http://www.w3.org/2000/svg" viewBox="0 0 24 24"><defs><style>.a{fill:currentColor;}</style></defs><title>icn_chat</title><circle class="a" cx="12" cy="10" r="1"/><circle class="a" cx="16" cy="10" r="1"/><circle class="a" cx="8" cy="10" r="1"/><path class="a" d="M22,10a6,6,0,0,0-6-6H8A6,6,0,0,0,7,15.91V17.5a.48.48,0,0,0,.22.41A.47.47,0,0,0,7.5,18a.43.43,0,0,0,.19,0l2.92-1.17A3,3,0,0,0,13,18h2.72l2.36,1.89a.52.52,0,0,0,.32.11.54.54,0,0,0,.21-.05.49.49,0,0,0,.29-.45V18H19a3,3,0,0,0,3-3,2.94,2.94,0,0,0-.81-2A5.9,5.9,0,0,0,22,10Zm-3,7h-.71a.52.52,0,0,0-.39.5v1l-1.69-1.35A.61.61,0,0,0,16,17H13a2,2,0,0,1,0-4h6a2,2,0,0,1,0,4Zm1.39-4.64A2.93,2.93,0,0,0,19,12H13a3,3,0,0,0-3,3,3,3,0,0,0,.15.9L8,16.76V15.5A.52.52,0,0,0,7.5,15,5,5,0,0,1,8,5h8a5,5,0,0,1,5,5A4.93,4.93,0,0,1,20.39,12.36Z"/></svg>