<svg id="icn_forex" xmlns="http://www.w3.org/2000/svg" viewBox="0 0 24 24"><defs><style>.a{fill:currentColor;}</style></defs><title>icn_forex</title><path class="a" d="M22,8.5a6.5,6.5,0,0,0-13,0,5.07,5.07,0,0,0,0,.55A4.75,4.75,0,0,0,8.5,9,6.5,6.5,0,1,0,15,15.5,4.75,4.75,0,0,0,15,15a5.07,5.07,0,0,0,.55,0A6.51,6.51,0,0,0,22,8.5ZM15.5,3A5.5,5.5,0,1,1,10,8.5,5.51,5.51,0,0,1,15.5,3ZM14,15.5A5.5,5.5,0,1,1,8.5,10a5.09,5.09,0,0,1,.69.05A6.54,6.54,0,0,0,14,14.81,5.09,5.09,0,0,1,14,15.5Z"/><path class="a" d="M1.15,4.85l2,2a.48.48,0,0,0,.7,0,.48.48,0,0,0,0-.7L2.71,5H6.5a.5.5,0,0,0,0-1H2.71L3.85,2.85a.49.49,0,0,0-.7-.7l-2,2A.36.36,0,0,0,1,4.31a.5.5,0,0,0,0,.38A.36.36,0,0,0,1.15,4.85Z"/><path class="a" d="M9.43,16.87a1.18,1.18,0,0,1-.87-.31.81.81,0,0,1-.19-.31h1.69V15.7H8.23a1.56,1.56,0,0,1,0-.2,1.42,1.42,0,0,1,0-.19h1.83v-.54H8.37a.84.84,0,0,1,.2-.36,1.2,1.2,0,0,1,.85-.3,1.81,1.81,0,0,1,.75.15l.23-.83a2.54,2.54,0,0,0-1.08-.21,2.36,2.36,0,0,0-1.66.63,2.16,2.16,0,0,0-.53.92H6.6v.54h.45a1.62,1.62,0,0,0,0,.21s0,.09,0,.18H6.59v.55h.54a2.07,2.07,0,0,0,.52.93,2.18,2.18,0,0,0,1.56.6,2.5,2.5,0,0,0,1.2-.27l-.11-.82A2.18,2.18,0,0,1,9.43,16.87Z"/><path class="a" d="M23,19.69a.5.5,0,0,0,0-.38.36.36,0,0,0-.11-.16l-2-2a.49.49,0,0,0-.7.7L21.29,19H16.5a.5.5,0,0,0,0,1h4.79l-1.14,1.15a.48.48,0,0,0,0,.7.48.48,0,0,0,.7,0l2-2A.36.36,0,0,0,23,19.69Z"/><path class="a" d="M15.32,9.84a2.47,2.47,0,0,1-1.13-.3l-.2.79a2.64,2.64,0,0,0,1.15.3v.64h.67v-.69A1.3,1.3,0,0,0,17,9.32c0-.61-.32-1-1.13-1.27-.58-.22-.81-.36-.81-.58s.14-.38.58-.38a2.2,2.2,0,0,1,1,.23l.19-.77a2.4,2.4,0,0,0-1-.22v-.6h-.67v.64A1.27,1.27,0,0,0,14,7.58c0,.66.49,1,1.22,1.25.5.17.72.33.72.59S15.7,9.84,15.32,9.84Z"/></svg>