<svg id="icn_close_circle" xmlns="http://www.w3.org/2000/svg" viewBox="0 0 24 24"><defs><style>.a{fill:currentColor;}</style></defs><title>icn_close_circle</title><path class="a" d="M12,22A10,10,0,1,1,22,12,10,10,0,0,1,12,22ZM12,3a9,9,0,1,0,9,9A9,9,0,0,0,12,3Zm.71,9,3.18-3.18a.5.5,0,0,0-.71-.71L12,11.29,8.82,8.11a.5.5,0,0,0-.71,0,.51.51,0,0,0,0,.71L11.29,12,8.11,15.18a.51.51,0,0,0,0,.71.5.5,0,0,0,.35.15.51.51,0,0,0,.36-.15L12,12.71l3.18,3.18a.5.5,0,0,0,.35.15.51.51,0,0,0,.36-.15.51.51,0,0,0,0-.71Z"/></svg>