<svg id="icn_car_side" version="1.1"  xmlns="http://www.w3.org/2000/svg"  x="0px" y="0px"
	 viewBox="0 0 24 24" style="enable-background:new 0 0 24 24;" xml:space="preserve">
<style type="text/css">
	.st0{fill:currentColor;}
</style>
<path class="st0" d="M20,10h-2.3l-2.9-2.9C13.7,6,12.1,6,12,6H6.5C4.2,6,3.1,8.2,3.1,8.2l-1.7,2.5l0,0C1.2,11.1,1,11.5,1,11.9l0,0v0
	c0,0,0,0,0,0V16c0,0.6,0.4,1,1,1h1.1c0.2,1.1,1.2,2,2.4,2s2.2-0.9,2.4-2h8.1c0.2,1.1,1.2,2,2.4,2s2.2-0.9,2.4-2H22c0.6,0,1-0.4,1-1
	v-3C23,11.3,21.7,10,20,10z M14.1,7.9l2.1,2.1H9V7h3C12,7,13.3,7,14.1,7.9z M3.9,8.7C4,8.7,4.8,7,6.5,7H8v3H3.1L3.9,8.7z M5.5,18
	C4.7,18,4,17.3,4,16.5C4,15.7,4.7,15,5.5,15S7,15.7,7,16.5C7,17.3,6.3,18,5.5,18z M18.5,18c-0.8,0-1.5-0.7-1.5-1.5
	c0-0.8,0.7-1.5,1.5-1.5s1.5,0.7,1.5,1.5C20,17.3,19.3,18,18.5,18z M22,16h-1.1c-0.2-1.1-1.2-2-2.4-2s-2.2,0.9-2.4,2H7.9
	c-0.2-1.1-1.2-2-2.4-2s-2.2,0.9-2.4,2H2v-3.4v-0.7C2,11.4,2.4,11,2.9,11H20c1.1,0,2,0.9,2,2V16z"/>
</svg>
