<svg id="icn_trolley" xmlns="http://www.w3.org/2000/svg" viewBox="0 0 24 24"><defs><style>.a{fill:currentColor;}</style></defs><title>icn_trolley</title><circle class="a" cx="18.5" cy="20.5" r="1.5"/><circle class="a" cx="8.5" cy="20.5" r="1.5"/><path class="a" d="M8.77,15h9.9a1.48,1.48,0,0,0,1.46-1.17L22,5.61A.51.51,0,0,0,21.5,5H6.64L6.37,3.89A2.5,2.5,0,0,0,3.94,2H2.5a.5.5,0,0,0,0,1H3.94A1.48,1.48,0,0,1,5.39,4.13l.37,1.48h0L8,14.41l-.83,1.26A1.48,1.48,0,0,0,7,17.2a1.51,1.51,0,0,0,1.33.8H19.5a.5.5,0,0,0,0-1H8.37a.5.5,0,0,1-.45-.27.46.46,0,0,1,0-.5ZM7.64,9H18.88a.5.5,0,0,0,0-1H7.39l-.5-2h14l-1.72,7.61a.49.49,0,0,1-.49.39H8.89Z"/></svg>