<svg id="icn_wallet" xmlns="http://www.w3.org/2000/svg" viewBox="0 0 24 24"><defs><style>.a{fill:currentColor;}</style></defs><title>icn_wallet</title><path class="a" d="M22,13.5h0V9a2,2,0,0,0-2-2h-.62V6.22a2.27,2.27,0,0,0-.82-1.79A1.79,1.79,0,0,0,17,4L3.36,6.84A1.84,1.84,0,0,0,2.09,8.12,1.63,1.63,0,0,0,2,8.57H2v0s0,0,0,.05A2,2,0,0,0,2,9v9a2,2,0,0,0,2,2H20a2,2,0,0,0,2-2V13.51ZM5,19H4a1,1,0,0,1-1-1V9A1,1,0,0,1,4,8H5Zm13-5.5a1.5,1.5,0,0,1,3,0v0a1.5,1.5,0,0,1-3,0ZM17.23,5a.82.82,0,0,1,.7.18,1.32,1.32,0,0,1,.45,1V7H7.69ZM20,19H7V8H20a1,1,0,0,1,1,1v2H19a2,2,0,0,0-2,2v1a2,2,0,0,0,2,2h2v2A1,1,0,0,1,20,19Z"/></svg>