<svg id="icn_camera_webcam"  xmlns="http://www.w3.org/2000/svg" viewBox="0 0 24 24"><defs><style>.cls-1{fill:currentColor;}</style></defs><title>icn_camera_webcam</title><path class="cls-1" d="M21.75,7.07a.52.52,0,0,0-.51,0L17,9.61V8.5A2.5,2.5,0,0,0,14.5,6h-9A2.5,2.5,0,0,0,3,8.5v7A2.5,2.5,0,0,0,5.5,18h9A2.5,2.5,0,0,0,17,15.5V14.39l4.24,2.54a.48.48,0,0,0,.26.07.47.47,0,0,0,.25-.07A.49.49,0,0,0,22,16.5v-9A.49.49,0,0,0,21.75,7.07ZM16,15.5A1.5,1.5,0,0,1,14.5,17h-9A1.5,1.5,0,0,1,4,15.5v-7A1.5,1.5,0,0,1,5.5,7h9A1.5,1.5,0,0,1,16,8.5Zm5,.12-4-2.4V10.78l4-2.4Z"/></svg>