<svg id="icn_cash_note" xmlns="http://www.w3.org/2000/svg" viewBox="0 0 24 24"><defs><style>.a{fill:currentColor;}</style></defs><title>icn_cash_note</title><path class="a" d="M7,10.5v3a.5.5,0,0,1-1,0v-3a.5.5,0,0,1,1,0ZM15,12a3,3,0,1,1-3-3A3,3,0,0,1,15,12Zm-1,0a2,2,0,1,0-2,2A2,2,0,0,0,14,12Zm3.5-2a.5.5,0,0,0-.5.5v3a.5.5,0,0,0,1,0v-3A.5.5,0,0,0,17.5,10ZM22,6V18H2V6ZM3,9A2,2,0,0,0,5,7H3Zm2,8a2,2,0,0,0-2-2v2Zm16-2a2,2,0,0,0-2,2h2Zm0-5a3,3,0,0,1-3-3H6a3,3,0,0,1-3,3v4a3,3,0,0,1,3,3H18a3,3,0,0,1,3-3Zm0-3H19a2,2,0,0,0,2,2ZM6.5,10a.5.5,0,0,0-.5.5v3a.5.5,0,0,0,1,0v-3A.5.5,0,0,0,6.5,10ZM15,12a3,3,0,1,1-3-3A3,3,0,0,1,15,12Zm-1,0a2,2,0,1,0-2,2A2,2,0,0,0,14,12Zm3.5-2a.5.5,0,0,0-.5.5v3a.5.5,0,0,0,1,0v-3A.5.5,0,0,0,17.5,10Zm-11,0a.5.5,0,0,0-.5.5v3a.5.5,0,0,0,1,0v-3A.5.5,0,0,0,6.5,10Zm11,0a.5.5,0,0,0-.5.5v3a.5.5,0,0,0,1,0v-3A.5.5,0,0,0,17.5,10ZM15,12a3,3,0,1,1-3-3A3,3,0,0,1,15,12Zm-1,0a2,2,0,1,0-2,2A2,2,0,0,0,14,12Z"/></svg>