<svg id="icn_thumb_down" xmlns="http://www.w3.org/2000/svg" viewBox="0 0 24 24"><defs><style>.a{fill:currentColor;}</style></defs><title>icn_thumb_down</title><path class="a" d="M17,3h3v9H17Z"/><path class="a" d="M19.5,3H17v9h2.5a.5.5,0,0,0,.5-.5v-8A.5.5,0,0,0,19.5,3Z"/><path class="a" d="M13.5,19A2.42,2.42,0,0,1,11,16.5V13H6.5a2.4,2.4,0,0,1-1.9-.92,3,3,0,0,1-.53-2.49.3.3,0,0,1,0-.1L6.16,5C7.08,3.22,7.24,3,8.5,3h7a.5.5,0,0,1,.5.5v9a.5.5,0,0,1,0,.16l-2,6A.5.5,0,0,1,13.5,19ZM5,9.86a1.94,1.94,0,0,0,.34,1.6A1.41,1.41,0,0,0,6.5,12h5a.5.5,0,0,1,.5.5v4A1.41,1.41,0,0,0,13.15,18L15,12.42V4H8.5c-.7,0-.7,0-1.44,1.44ZM15.5,12.5h0Z"/></svg>