<svg id="icn_car"  data-name="Layer 1" xmlns="http://www.w3.org/2000/svg" viewBox="0 0 24 24"><defs><style>.cls-1{fill:currentColor;}</style></defs><title>icn_car</title><path class="cls-1" d="M5.5,13A1.5,1.5,0,1,1,7,11.5,1.5,1.5,0,0,1,5.5,13Zm13,0A1.5,1.5,0,1,0,17,11.5,1.5,1.5,0,0,0,18.5,13ZM22,11.5v7A1.5,1.5,0,0,1,20.5,20h-2A1.5,1.5,0,0,1,17,18.5V17H7v1.5A1.5,1.5,0,0,1,5.5,20h-2A1.5,1.5,0,0,1,2,18.5v-7c0-1.09,0-2.22,2-3.31C4.32,6.73,6.27,3,8.07,3h7.86c1.8,0,3.75,3.73,4,5.19C22,9.28,22,10.41,22,11.5ZM5.1,8H18.9c-.41-1.32-2-4-3-4H8.07C7.11,4,5.51,6.68,5.1,8ZM3,16H21V11.5c0-1,0-1.66-1.62-2.5H4.62C3,9.84,3,10.47,3,11.5Zm3,1H3v1.5a.5.5,0,0,0,.5.5h2a.5.5,0,0,0,.5-.5Zm15,0H18v1.5a.5.5,0,0,0,.5.5h2a.5.5,0,0,0,.5-.5Z"/></svg>