<svg id="icn_camera disabled"  data-name="Working layer" xmlns="http://www.w3.org/2000/svg" viewBox="0 0 24 24"><defs><style>.cls-1{fill:currentColor;}</style></defs><title>icn_camera disabled</title><path class="cls-1" d="M19,8.5a.5.5,0,0,1-.5.5H16.13l1-1H18.5A.5.5,0,0,1,19,8.5ZM5.7,18h0l-1,1h0L2.85,20.85A.49.49,0,0,1,2.5,21a.51.51,0,0,1-.36-.15.5.5,0,0,1,0-.7L3.5,18.79A2.49,2.49,0,0,1,2,16.5v-8A2.5,2.5,0,0,1,4.5,6H6.75V5.5A1.5,1.5,0,0,1,8.25,4h5.5a1.5,1.5,0,0,1,1.5,1.5V6h1l2.85-2.85a.5.5,0,0,1,.71,0,.48.48,0,0,1,0,.7L17.7,6h0l-1,1h0L14.28,9.42h0l-.71.71h0L8.63,15.07h0l-.71.71h0Zm7.09-8.5A3.42,3.42,0,0,0,11,9a3.5,3.5,0,0,0-3.5,3.5A3.42,3.42,0,0,0,8,14.29ZM7.75,6h6.5V5.5a.5.5,0,0,0-.5-.5H8.25a.5.5,0,0,0-.5.5ZM4.31,18l3-3a4.5,4.5,0,0,1,6.25-6.25L15.29,7H4.5A1.5,1.5,0,0,0,3,8.5v8A1.49,1.49,0,0,0,4.31,18ZM11,16a3.5,3.5,0,0,1-1.51-.36l-.74.74A4.42,4.42,0,0,0,11,17a4.51,4.51,0,0,0,4.5-4.5,4.42,4.42,0,0,0-.62-2.25l-.74.73a3.43,3.43,0,0,1,.36,1.52A3.5,3.5,0,0,1,11,16ZM19.5,6h-.37l-1,1H19.5A1.5,1.5,0,0,1,21,8.5v8A1.5,1.5,0,0,1,19.5,18H7.13l-1,1H19.5A2.5,2.5,0,0,0,22,16.5v-8A2.5,2.5,0,0,0,19.5,6Z"/></svg>