<svg id="icn_image" xmlns="http://www.w3.org/2000/svg" viewBox="0 0 24 24"><defs><style>.a{fill:currentColor;}</style></defs><title>icn_image</title><path class="a" d="M15.5,11A2.5,2.5,0,1,1,18,8.5,2.5,2.5,0,0,1,15.5,11Zm0-4A1.5,1.5,0,1,0,17,8.5,1.5,1.5,0,0,0,15.5,7Zm4-4H4.5A2.5,2.5,0,0,0,2,5.5v13A2.5,2.5,0,0,0,4.5,21h15A2.5,2.5,0,0,0,22,18.5V5.5A2.5,2.5,0,0,0,19.5,3ZM4.5,4h15A1.5,1.5,0,0,1,21,5.5V16.29l-3.15-3.14a.48.48,0,0,0-.7,0L14.2,16.09,8.87,10.17A.48.48,0,0,0,8.5,10h0a.52.52,0,0,0-.37.17L3,16.15V5.5A1.5,1.5,0,0,1,4.5,4ZM3,18.5v-.81l5.51-6.43L16.38,20H4.5A1.5,1.5,0,0,1,3,18.5ZM19.5,20H17.72l-2.85-3.17,2.63-2.62,3.5,3.5v.79A1.5,1.5,0,0,1,19.5,20Z"/></svg>