<svg id="icn_link_tile" xmlns="http://www.w3.org/2000/svg" viewBox="0 0 24 24"><defs><style>.a{fill:currentColor;}</style></defs><title>icn_link_tile</title><path class="a" d="M9.5,17h-5A2.34,2.34,0,0,1,2,14.5V6.74A2.75,2.75,0,0,1,4.75,4h9.79a1.61,1.61,0,0,1,1.14.47l2.21,2.71a.5.5,0,0,1-.78.64L14.93,5.14A.56.56,0,0,0,14.54,5H4.75A1.75,1.75,0,0,0,3,6.74V14.5A1.37,1.37,0,0,0,4.5,16h5a.5.5,0,0,1,0,1ZM14,11.5a.5.5,0,0,0-.5-.5h-8a.5.5,0,0,0,0,1h8A.5.5,0,0,0,14,11.5Zm-2,2a.5.5,0,0,0-.5-.5h-6a.5.5,0,0,0-.5.5.5.5,0,0,0,.5.5h6A.5.5,0,0,0,12,13.5ZM6.56,7A1.48,1.48,0,1,0,8,8.48,1.48,1.48,0,0,0,6.56,7Zm11.9,9.06,2.81-2.81a2.49,2.49,0,0,0-3.52-3.52L15.88,11.6a.5.5,0,1,0,.71.71l1.87-1.87a1.48,1.48,0,0,1,2.1,0A1.44,1.44,0,0,1,21,11.49a1.45,1.45,0,0,1-.44,1l-2.81,2.81a1.52,1.52,0,0,1-2.1,0,.5.5,0,0,0-.71,0,.51.51,0,0,0,0,.71,2.51,2.51,0,0,0,3.52,0Zm-4.21,4.21,1.87-1.87a.5.5,0,0,0-.71-.71l-1.87,1.87a1.48,1.48,0,0,1-2.1,0,1.44,1.44,0,0,1-.44-1,1.45,1.45,0,0,1,.44-1.05l2.81-2.81a1.52,1.52,0,0,1,2.1,0,.5.5,0,0,0,.71,0,.51.51,0,0,0,0-.71,2.55,2.55,0,0,0-3.52,0l-2.81,2.81a2.49,2.49,0,0,0,0,3.52,2.45,2.45,0,0,0,1.76.73A2.48,2.48,0,0,0,14.25,20.27Z"/></svg>