<svg id="icn_document_tax" xmlns="http://www.w3.org/2000/svg" viewBox="0 0 24 24"><defs><style>.a{fill:currentColor;}</style></defs><title>icn_document_tax</title><path class="a" d="M19.25,7H13V2.7a.7.7,0,0,0-.7-.7H2.7a.7.7,0,0,0-.7.7V16.3a.7.7,0,0,0,.7.7H10v3.23A1.76,1.76,0,0,0,11.75,22h7.5A1.76,1.76,0,0,0,21,20.23V8.77A1.76,1.76,0,0,0,19.25,7ZM3,16V3h9V7h-.25A1.76,1.76,0,0,0,10,8.77V16Zm17,4.23a.77.77,0,0,1-.75.77h-7.5a.77.77,0,0,1-.75-.77V11h9ZM11,10V8.77A.77.77,0,0,1,11.75,8h7.5a.77.77,0,0,1,.75.77V10Z"/><circle class="a" cx="13" cy="19" r="1"/><circle class="a" cx="18" cy="19" r="1"/><circle class="a" cx="15.5" cy="19" r="1"/><circle class="a" cx="13" cy="16" r="1"/><circle class="a" cx="18" cy="16" r="1"/><circle class="a" cx="15.5" cy="16" r="1"/><circle class="a" cx="13" cy="13" r="1"/><circle class="a" cx="18" cy="13" r="1"/><circle class="a" cx="15.5" cy="13" r="1"/><circle class="a" cx="5.5" cy="13.5" r="1.5"/><path class="a" d="M8.5,9h-4a.5.5,0,0,0,0,1h4a.5.5,0,0,0,0-1Z"/><path class="a" d="M8.5,7h-4a.5.5,0,0,0,0,1h4a.5.5,0,0,0,0-1Z"/><path class="a" d="M4.5,6h6a.5.5,0,0,0,0-1h-6a.5.5,0,0,0,0,1Z"/></svg>