<svg id="icn_people_1_add" xmlns="http://www.w3.org/2000/svg" viewBox="0 0 24 24"><defs><style>.a{fill:currentColor;}</style></defs><title>icn_people_1_add</title><path class="a" d="M20.5,4H19V2.5a.5.5,0,0,0-1,0V4H16.5a.5.5,0,0,0,0,1H18V6.5a.5.5,0,0,0,1,0V5h1.5a.5.5,0,0,0,0-1Z"/><path class="a" d="M11.3,11.26a4,4,0,1,0-4.6,0A6.51,6.51,0,0,0,2,17.5v.3A2.21,2.21,0,0,0,4.2,20h9.6A2.21,2.21,0,0,0,16,17.8v-.3A6.51,6.51,0,0,0,11.3,11.26ZM6,8a3,3,0,1,1,3,3A3,3,0,0,1,6,8Zm9,9.8A1.2,1.2,0,0,1,13.8,19H4.2A1.2,1.2,0,0,1,3,17.8v-.3A5.51,5.51,0,0,1,8.5,12h1A5.51,5.51,0,0,1,15,17.5Z"/></svg>