<svg id="icn_graph_line" xmlns="http://www.w3.org/2000/svg" viewBox="0 0 24 24"><defs><style>.a{fill:currentColor;}</style></defs><title>icn_graph_line</title><path class="a" d="M21.5,11a.5.5,0,0,0,.5-.5v-3a.5.5,0,0,0-.5-.5h-3a.5.5,0,0,0,0,1h1.82l-7.11,7.11L12,12.3a.52.52,0,0,0-.37-.29.48.48,0,0,0-.44.14L4,19.29V3.5a.5.5,0,0,0-1,0v17a.41.41,0,0,0,0,.19.51.51,0,0,0,.27.27.41.41,0,0,0,.19,0h18a.5.5,0,0,0,0-1H4.71l6.63-6.63,1.25,2.81a.5.5,0,0,0,.37.29.49.49,0,0,0,.44-.14L21,8.73V10.5A.5.5,0,0,0,21.5,11Z"/></svg>