<svg id="icn_send" xmlns="http://www.w3.org/2000/svg" viewBox="0 0 24 24"><defs><style>.a{fill:currentColor;}</style></defs><title>icn_send</title><path class="a" d="M21.81,3.11a.5.5,0,0,0-.5-.07l-19,8a.51.51,0,0,0-.31.47.5.5,0,0,0,.32.46l7.73,2.89,1,5.72a.48.48,0,0,0,.42.41h.07a.51.51,0,0,0,.45-.28l1.8-3.6,4.49,2.8a.5.5,0,0,0,.26.08.45.45,0,0,0,.2,0,.52.52,0,0,0,.29-.37l3-16A.48.48,0,0,0,21.81,3.11Zm-2,1.63-9.46,9.18L3.85,11.47ZM11.74,18.9l-.56-3.39,1.72,1.08Zm6.4-.21L11.3,14.42l9.34-9.06Z"/></svg>