<svg id="icn_people_lock_open" xmlns="http://www.w3.org/2000/svg" viewBox="0 0 24 24"><defs><style>.a{fill:currentColor;}</style></defs><title>icn_people_lock_open</title><path class="a" d="M15.5,19a.5.5,0,0,1-.5-.5v-2a.5.5,0,0,1,1,0v2A.5.5,0,0,1,15.5,19ZM21,13.5v6.6A1.9,1.9,0,0,1,19.1,22H11.9A1.9,1.9,0,0,1,10,20.1V16H4a2,2,0,0,1-2-2v-.5A5.5,5.5,0,0,1,5.51,8.38a3.5,3.5,0,1,1,4,0,5.53,5.53,0,0,1,2.54,2A2.76,2.76,0,0,1,14.68,8h1.64A2.77,2.77,0,0,1,19,10.64a.5.5,0,0,1-1,0A1.78,1.78,0,0,0,16.32,9H14.68A1.78,1.78,0,0,0,13,10.64V13h7.5A.5.5,0,0,1,21,13.5ZM7.5,8A2.5,2.5,0,1,0,5,5.5,2.5,2.5,0,0,0,7.5,8ZM12,13A4.49,4.49,0,0,0,3,13.5V14a1,1,0,0,0,1,1h6V13.5a.5.5,0,0,1,.5-.5ZM20,14H11v6.1a.91.91,0,0,0,.9.9h7.2a.91.91,0,0,0,.9-.9Z"/></svg>