<svg id="icn_calendar" xmlns="http://www.w3.org/2000/svg" viewBox="0 0 24 24"><defs><style>.a{fill:currentColor;}</style></defs><title>icn_calendar</title><path class="a" d="M20.5,4H18V3.5a.5.5,0,0,0-1,0V4H7V3.5a.5.5,0,0,0-1,0V4H3.5A1.5,1.5,0,0,0,2,5.5V17.9A3.07,3.07,0,0,0,5,21H19a3.07,3.07,0,0,0,3-3.1V5.5A1.5,1.5,0,0,0,20.5,4ZM3,5.5A.5.5,0,0,1,3.5,5H6v.5a.5.5,0,0,0,1,0V5H17v.5a.5.5,0,0,0,1,0V5h2.5a.5.5,0,0,1,.5.5V8H3ZM21,17.9A2.07,2.07,0,0,1,19,20H5a2.07,2.07,0,0,1-2-2.1V9H21ZM9,14H5V11H9Zm5,0H10V11h4Zm5,0H15V11h4ZM9,18H5V15H9Zm5,0H10V15h4Zm5,0H15V15h4Z"/></svg>