<svg id="icn_settings_solid" xmlns="http://www.w3.org/2000/svg" viewBox="0 0 24 24"><defs><style>.a{fill:currentColor;}</style></defs><title>icn_settings_solid</title><path class="a" d="M21.49,15a1.15,1.15,0,0,0-.53-.69l-1.18-.67a.75.75,0,0,1-.37-.76,7.08,7.08,0,0,0,0-1.84.75.75,0,0,1,.37-.76L21,9.65a1.15,1.15,0,0,0,.42-1.56L20.1,5.9a1.14,1.14,0,0,0-1.55-.42l-1.16.67a.74.74,0,0,1-.81,0,7.68,7.68,0,0,0-1.73-1,.72.72,0,0,1-.43-.68V3.13A1.14,1.14,0,0,0,13.29,2H10.71A1.14,1.14,0,0,0,9.58,3.13V4.42a.72.72,0,0,1-.43.68,7.68,7.68,0,0,0-1.73,1,.74.74,0,0,1-.81,0L5.45,5.48a1.13,1.13,0,0,0-1.54.42L2.62,8.09A1.15,1.15,0,0,0,3,9.65l1.18.67a.75.75,0,0,1,.37.76,7.08,7.08,0,0,0,0,1.84.75.75,0,0,1-.37.76L3,14.35a1.15,1.15,0,0,0-.42,1.56l1.29,2.2a1.14,1.14,0,0,0,1.54.41l1.16-.67a.74.74,0,0,1,.81,0,7.68,7.68,0,0,0,1.73,1,.72.72,0,0,1,.43.68v1.29A1.14,1.14,0,0,0,10.71,22h2.58a1.14,1.14,0,0,0,1.13-1.13V19.58a.72.72,0,0,1,.43-.68,7.68,7.68,0,0,0,1.73-1,.74.74,0,0,1,.81,0l1.16.67a1.13,1.13,0,0,0,1.54-.42l1.29-2.19A1.14,1.14,0,0,0,21.49,15ZM12,15.5A3.5,3.5,0,1,1,15.5,12,3.5,3.5,0,0,1,12,15.5Z"/></svg>