<svg id="icn_graph_international" xmlns="http://www.w3.org/2000/svg" viewBox="0 0 24 24"><defs><style>.a{fill:currentColor;}</style></defs><title>icn_graph_international</title><path class="a" d="M8.85,6.85,12.5,3.21l3.65,3.64A.47.47,0,0,0,16.5,7h0a.48.48,0,0,0,.35-.16L20,3.52v2a.5.5,0,0,0,1,0v-3a.5.5,0,0,0-.5-.5h-3a.5.5,0,0,0,0,1h1.62L16.49,5.78,12.85,2.15a.48.48,0,0,0-.7,0l-4,4a.49.49,0,0,0,.7.7Z"/><path class="a" d="M21.5,16H21V8.5a.5.5,0,0,0-1,0V16H17V10.5a.5.5,0,0,0-1,0V16H14a6,6,0,0,0-1-3.31V7.5a.5.5,0,0,0-1,0v4A5.93,5.93,0,0,0,8,10a6,6,0,1,0,5.91,7H21.5a.5.5,0,0,0,0-1ZM8,21H8c-.29-.05-.87-1-1.18-2.65.38,0,.78,0,1.18,0s.8,0,1.18,0C8.87,20,8.29,21,8,21Zm0-3.6c-.48,0-.91,0-1.33-.07,0-.42-.07-.85-.07-1.33s0-.91.07-1.33c.42,0,.85-.07,1.33-.07s.91,0,1.33.07c0,.42.07.85.07,1.33s0,.91-.07,1.33C8.91,17.37,8.48,17.4,8,17.4ZM3,16H3c0-.29,1-.87,2.65-1.18,0,.38-.05.78-.05,1.18s0,.8.05,1.18C4,16.87,3.05,16.29,3,16Zm5-5c.29.05.87,1,1.18,2.65-.38,0-.78-.05-1.18-.05s-.8,0-1.18.05C7.13,12,7.71,11.05,8,11Zm2.35,3.82C12,15.13,13,15.71,13,16h0c-.05.29-1,.87-2.65,1.18,0-.38.05-.78.05-1.18S10.38,15.2,10.35,14.82Zm2.41-.28a8.41,8.41,0,0,0-2.53-.77,8.41,8.41,0,0,0-.77-2.53A5,5,0,0,1,12.76,14.54Zm-6.22-3.3a8.41,8.41,0,0,0-.77,2.53,8.41,8.41,0,0,0-2.53.77A5,5,0,0,1,6.54,11.24Zm-3.3,6.22a8.41,8.41,0,0,0,2.53.77,8.41,8.41,0,0,0,.77,2.53A5,5,0,0,1,3.24,17.46Zm6.22,3.3a8.41,8.41,0,0,0,.77-2.53,8.41,8.41,0,0,0,2.53-.77A5,5,0,0,1,9.46,20.76Z"/></svg>