<svg id="icn_document_certificate" xmlns="http://www.w3.org/2000/svg" viewBox="0 0 24 24"><defs><style>.a{fill:currentColor;}</style></defs><title>icn_document_certificate</title><path class="a" d="M17.32,2H6.68A1.72,1.72,0,0,0,5,3.77V20.23A1.72,1.72,0,0,0,6.68,22H17.32A1.72,1.72,0,0,0,19,20.23V3.77A1.72,1.72,0,0,0,17.32,2ZM18,20.23a.73.73,0,0,1-.68.77H6.68A.73.73,0,0,1,6,20.23V3.77A.73.73,0,0,1,6.68,3H17.32a.73.73,0,0,1,.68.77Z"/><circle class="a" cx="9" cy="17" r="2"/><path class="a" d="M13.5,11h-6a.5.5,0,0,0,0,1h6a.5.5,0,0,0,0-1Z"/><path class="a" d="M16.5,7h-9a.5.5,0,0,0,0,1h9a.5.5,0,0,0,0-1Z"/><path class="a" d="M16.5,9h-9a.5.5,0,0,0,0,1h9a.5.5,0,0,0,0-1Z"/><path class="a" d="M16.5,5h-9a.5.5,0,0,0,0,1h9a.5.5,0,0,0,0-1Z"/></svg>