<svg id="icn_token" xmlns="http://www.w3.org/2000/svg" viewBox="0 0 24 24"><defs><style>.a{fill:currentColor;}</style></defs><title>icn_token</title><circle class="a" cx="4.98" cy="11" r="1"/><path class="a" d="M18.94,10.26A6,6,0,0,0,13,5H8A6,6,0,0,0,8,17h5a5.84,5.84,0,0,0,.73-.05,4.49,4.49,0,1,0,5.21-6.69ZM13,16H8A5,5,0,0,1,8,6h5a5,5,0,0,1,4.86,4c-.12,0-.24,0-.36,0a4.39,4.39,0,0,0-1.5.28V9.8a.8.8,0,0,0-.8-.8H7.8a.8.8,0,0,0-.8.8v2.4a.8.8,0,0,0,.8.8h5.48A4.39,4.39,0,0,0,13,14.5,4.52,4.52,0,0,0,13.27,16Zm.76-4H8V10h7v.76A4.57,4.57,0,0,0,13.76,12Zm3.74,6A3.5,3.5,0,1,1,21,14.5,3.5,3.5,0,0,1,17.5,18Z"/><path class="a" d="M18.65,13.15,17,14.79l-.65-.64a.49.49,0,1,0-.7.7l1,1a.48.48,0,0,0,.7,0l2-2a.49.49,0,1,0-.7-.7Z"/></svg>