<svg id="icn_people_pencil" xmlns="http://www.w3.org/2000/svg" viewBox="0 0 24 24"><defs><style>.a{fill:currentColor;}</style></defs><title>icn_people_pencil</title><path class="a" d="M21.09,6.93,21,6.85a2.92,2.92,0,0,0-4.11,0l-4.39,4.39a5.55,5.55,0,0,0-3-2.88,3.5,3.5,0,1,0-4,0A5.5,5.5,0,0,0,2,13.5V14a2,2,0,0,0,2,2H7.78L6.17,17.61A.51.51,0,0,0,6,18v3.53a.5.5,0,0,0,.5.5h3.53a.47.47,0,0,0,.35-.15L18.23,14l2.93-2.93A3,3,0,0,0,21.09,6.93ZM5,5.5A2.5,2.5,0,1,1,7.5,8,2.5,2.5,0,0,1,5,5.5ZM4,15a1,1,0,0,1-1-1v-.5A4.49,4.49,0,0,1,11.74,12l-3,3ZM16.38,8.81l1.06,1.06L8.72,18.59,7.66,17.53ZM7,21V18.3L9.71,21Zm3.46-.64L9.43,19.29l8.72-8.72,1.06,1.07Zm10-10-.54.54L17.08,8.1l.53-.53a1.91,1.91,0,0,1,2.69,0l.08.08A2,2,0,0,1,20.45,10.39Z"/></svg>