<svg id="icn_people_nametag" xmlns="http://www.w3.org/2000/svg" viewBox="0 0 24 24"><defs><style>.a{fill:currentColor;}</style></defs><title>icn_people_nametag</title><path class="a" d="M19.5,12H12.78A5.51,5.51,0,0,0,9.49,8.38a3.5,3.5,0,1,0-4,0A5.5,5.5,0,0,0,2,13.5V14a2,2,0,0,0,2,2H9v3.5A2.5,2.5,0,0,0,11.5,22h7A2.5,2.5,0,0,0,21,19.5v-6A1.5,1.5,0,0,0,19.5,12ZM5,5.5A2.5,2.5,0,1,1,7.5,8,2.5,2.5,0,0,1,5,5.5Zm4,8V15H4a1,1,0,0,1-1-1v-.5A4.49,4.49,0,0,1,11.72,12H10.5A1.5,1.5,0,0,0,9,13.5Zm11,6A1.5,1.5,0,0,1,18.5,21h-7A1.5,1.5,0,0,1,10,19.5V14H20Zm-1.5.5h-7a.5.5,0,0,1,0-1h7a.5.5,0,0,1,0,1ZM14,16.58l0-.39a1.3,1.3,0,0,0-1.4-1.2l-.39,0a1.3,1.3,0,0,0-1.2,1.4l0,.39a1.3,1.3,0,0,0,1.4,1.2l.39,0A1.3,1.3,0,0,0,14,16.58Zm5,.92a.5.5,0,0,0-.5-.5h-3a.5.5,0,0,0,0,1h3A.5.5,0,0,0,19,17.5Zm0-2a.5.5,0,0,0-.5-.5h-3a.5.5,0,0,0,0,1h3A.5.5,0,0,0,19,15.5Z"/></svg>