<svg id="icn_document_xls" xmlns="http://www.w3.org/2000/svg" viewBox="0 0 24 24"><defs><style>.a{fill:currentColor;}</style></defs><title>icn_document_xls</title><path class="a" d="M9.49,16l1.18,2H9.52l-.69-1.35L8.14,18H7l1.18-2L7,14H8.16l.67,1.33L9.5,14h1.14Zm-2-7h4a.5.5,0,0,0,0-1h-4a.5.5,0,0,0,0,1Zm0-2h4a.5.5,0,0,0,0-1h-4a.5.5,0,0,0,0,1Zm4.36,7h-1v4h2.72v-.78H11.86Zm4.64-4h-9a.5.5,0,0,0,0,1h9a.5.5,0,0,0,0-1Zm-1.06,4.71a.6.6,0,0,1,.42.13.47.47,0,0,1,.15.37h1a1,1,0,0,0-.19-.63,1.25,1.25,0,0,0-.55-.43,2,2,0,0,0-.8-.15,2.29,2.29,0,0,0-.81.14,1.33,1.33,0,0,0-.57.38.92.92,0,0,0-.2.57,1.15,1.15,0,0,0,.8,1c.17.07.38.15.64.23a2,2,0,0,1,.54.24.38.38,0,0,1,.15.32.32.32,0,0,1-.14.28.67.67,0,0,1-.39.1.92.92,0,0,1-.56-.14.61.61,0,0,1-.17-.47h-1a1.19,1.19,0,0,0,.2.68,1.34,1.34,0,0,0,.61.47,2.42,2.42,0,0,0,.91.17,1.9,1.9,0,0,0,1.11-.29.94.94,0,0,0,.41-.8,1.12,1.12,0,0,0-.67-1,3.75,3.75,0,0,0-.7-.28,2,2,0,0,1-.59-.25.34.34,0,0,1-.17-.27.33.33,0,0,1,.15-.28A.77.77,0,0,1,15.44,14.71ZM19,6.5V20a2,2,0,0,1-2,2H7a2,2,0,0,1-2-2V4A2,2,0,0,1,7,2h7.5a.47.47,0,0,1,.35.15l4,4A.47.47,0,0,1,19,6.5ZM18,7a.66.66,0,0,1-.15,0H14.5a.5.5,0,0,1-.5-.5V3.15A.66.66,0,0,1,14,3H7A1,1,0,0,0,6,4V20a1,1,0,0,0,1,1H17a1,1,0,0,0,1-1Zm-7.36,7H9.5l-.67,1.33L8.16,14H7l1.15,2L7,18H8.14l.69-1.35L9.52,18h1.15L9.49,16ZM7.5,9h4a.5.5,0,0,0,0-1h-4a.5.5,0,0,0,0,1Zm0-2h4a.5.5,0,0,0,0-1h-4a.5.5,0,0,0,0,1Zm4.36,7h-1v4h2.72v-.78H11.86ZM7.5,11h9a.5.5,0,0,0,0-1h-9a.5.5,0,0,0,0,1Zm7.94,3.71a.6.6,0,0,1,.42.13.47.47,0,0,1,.15.37h1a1,1,0,0,0-.19-.63,1.25,1.25,0,0,0-.55-.43,2,2,0,0,0-.8-.15,2.29,2.29,0,0,0-.81.14,1.33,1.33,0,0,0-.57.38.92.92,0,0,0-.2.57,1.15,1.15,0,0,0,.8,1c.17.07.38.15.64.23a2,2,0,0,1,.54.24.38.38,0,0,1,.15.32.32.32,0,0,1-.14.28.67.67,0,0,1-.39.1.92.92,0,0,1-.56-.14.61.61,0,0,1-.17-.47h-1a1.19,1.19,0,0,0,.2.68,1.34,1.34,0,0,0,.61.47,2.42,2.42,0,0,0,.91.17,1.9,1.9,0,0,0,1.11-.29.94.94,0,0,0,.41-.8,1.12,1.12,0,0,0-.67-1,3.75,3.75,0,0,0-.7-.28,2,2,0,0,1-.59-.25.34.34,0,0,1-.17-.27.33.33,0,0,1,.15-.28A.77.77,0,0,1,15.44,14.71ZM11.5,6h-4a.5.5,0,0,0,0,1h4a.5.5,0,0,0,0-1Zm0,2h-4a.5.5,0,0,0,0,1h4a.5.5,0,0,0,0-1Zm5,2h-9a.5.5,0,0,0,0,1h9a.5.5,0,0,0,0-1Zm-7,6,1.15-2H9.5l-.67,1.33L8.16,14H7l1.15,2L7,18H8.14l.69-1.35L9.52,18h1.15Zm2.37,1.24V14h-1v4h2.72v-.78Zm4.47-1.32a3.75,3.75,0,0,0-.7-.28,2,2,0,0,1-.59-.25.34.34,0,0,1-.17-.27.33.33,0,0,1,.15-.28.77.77,0,0,1,.42-.11.6.6,0,0,1,.42.13.47.47,0,0,1,.15.37h1a1,1,0,0,0-.19-.63,1.25,1.25,0,0,0-.55-.43,2,2,0,0,0-.8-.15,2.29,2.29,0,0,0-.81.14,1.33,1.33,0,0,0-.57.38.92.92,0,0,0-.2.57,1.15,1.15,0,0,0,.8,1c.17.07.38.15.64.23a2,2,0,0,1,.54.24.38.38,0,0,1,.15.32.32.32,0,0,1-.14.28.67.67,0,0,1-.39.1.92.92,0,0,1-.56-.14.61.61,0,0,1-.17-.47h-1a1.19,1.19,0,0,0,.2.68,1.34,1.34,0,0,0,.61.47,2.42,2.42,0,0,0,.91.17,1.9,1.9,0,0,0,1.11-.29.94.94,0,0,0,.41-.8A1.12,1.12,0,0,0,16.33,15.9Z"/></svg>