<svg id="icn_document_csv" xmlns="http://www.w3.org/2000/svg" viewBox="0 0 24 24"><defs><style>.a{fill:currentColor;}</style></defs><title>icn_document_csv</title><path class="a" d="M18.85,6.15l-4-4A.47.47,0,0,0,14.5,2H7A2,2,0,0,0,5,4V20a2,2,0,0,0,2,2H17a2,2,0,0,0,2-2V6.5A.47.47,0,0,0,18.85,6.15ZM18,20a1,1,0,0,1-1,1H7a1,1,0,0,1-1-1V4A1,1,0,0,1,7,3h7a.66.66,0,0,0,0,.15V6.5a.5.5,0,0,0,.5.5h3.35A.66.66,0,0,0,18,7Z"/><path class="a" d="M7.5,7h4a.5.5,0,0,0,0-1h-4a.5.5,0,0,0,0,1Z"/><path class="a" d="M7.5,9h4a.5.5,0,0,0,0-1h-4a.5.5,0,0,0,0,1Z"/><path class="a" d="M16.5,10h-9a.5.5,0,0,0,0,1h9a.5.5,0,0,0,0-1Z"/><path class="a" d="M8.09,15a.55.55,0,0,1,.5-.27.71.71,0,0,1,.5.16.66.66,0,0,1,.17.51h.91a1.45,1.45,0,0,0-.47-1A1.6,1.6,0,0,0,8.59,14a1.46,1.46,0,0,0-1.4.9,2.38,2.38,0,0,0-.19,1v.19a2.07,2.07,0,0,0,.43,1.41A1.47,1.47,0,0,0,8.6,18a1.92,1.92,0,0,0,.81-.17,1.4,1.4,0,0,0,.54-.48,1.56,1.56,0,0,0,.22-.72H9.26a.66.66,0,0,1-.18.48.69.69,0,0,1-.48.16A.54.54,0,0,1,8.08,17a2,2,0,0,1-.15-.89v-.28A1.71,1.71,0,0,1,8.09,15Z"/><path class="a" d="M11.92,14.71a.52.52,0,0,1,.38.13.46.46,0,0,1,.14.37h.91a1.15,1.15,0,0,0-.68-1.06,1.73,1.73,0,0,0-.73-.15,2,2,0,0,0-.75.14,1.11,1.11,0,0,0-.52.39.92.92,0,0,0-.18.57,1.13,1.13,0,0,0,.73,1,5.38,5.38,0,0,0,.58.23,2.34,2.34,0,0,1,.5.24.42.42,0,0,1,.14.32.32.32,0,0,1-.13.28.57.57,0,0,1-.36.1.74.74,0,0,1-.51-.14.64.64,0,0,1-.16-.46h-.91a1.22,1.22,0,0,0,.19.68,1.24,1.24,0,0,0,.56.46A2.05,2.05,0,0,0,12,18a1.66,1.66,0,0,0,1-.29,1,1,0,0,0,.37-.8,1.1,1.1,0,0,0-.61-1,2.87,2.87,0,0,0-.65-.28,2,2,0,0,1-.54-.25.36.36,0,0,1-.16-.28.37.37,0,0,1,.14-.28A.67.67,0,0,1,11.92,14.71Z"/><polygon class="a" points="15.18 16.91 14.41 14 13.37 14 14.67 18 15.69 18 17 14 15.95 14 15.18 16.91"/></svg>