<svg id="icn_signal_tower" xmlns="http://www.w3.org/2000/svg" viewBox="0 0 24 24"><defs><style>.a{fill:currentColor;}</style></defs><title>icn_signal_tower</title><path class="a" d="M16,19.34l-2.88-8.66A2,2,0,0,0,14,9a2,2,0,0,0-4,0,2,2,0,0,0,.91,1.68L8,19.34a.49.49,0,0,0,.31.63.45.45,0,0,0,.16,0A.49.49,0,0,0,9,19.66L9.53,18h4.94L15,19.66a.49.49,0,0,0,.47.34.45.45,0,0,0,.16,0A.49.49,0,0,0,16,19.34ZM12,8a1,1,0,1,1-1,1A1,1,0,0,1,12,8Zm0,3h.13l1.34,4H10.53l1.34-4ZM9.86,17l.33-1h3.62l.33,1Z"/><path class="a" d="M9.13,12a.49.49,0,0,1-.44-.26,5.79,5.79,0,0,1,0-5.48.5.5,0,1,1,.87.48,4.84,4.84,0,0,0,0,4.52.5.5,0,0,1-.19.68A.53.53,0,0,1,9.13,12Z"/><path class="a" d="M14.87,12a.53.53,0,0,1-.24-.06.5.5,0,0,1-.19-.68,4.84,4.84,0,0,0,0-4.52.5.5,0,1,1,.87-.48,5.79,5.79,0,0,1,0,5.48A.49.49,0,0,1,14.87,12Z"/><path class="a" d="M7.39,13A.49.49,0,0,1,7,12.74,7.84,7.84,0,0,1,7,5.26a.5.5,0,0,1,.88.48,6.82,6.82,0,0,0,0,6.52.5.5,0,0,1-.44.74Z"/><path class="a" d="M16.61,13a.5.5,0,0,1-.44-.74,6.82,6.82,0,0,0,0-6.52.5.5,0,1,1,.88-.48,7.84,7.84,0,0,1,0,7.48A.49.49,0,0,1,16.61,13Z"/><path class="a" d="M18.35,14a.54.54,0,0,1-.25-.06.5.5,0,0,1-.19-.68,8.87,8.87,0,0,0,0-8.52.5.5,0,1,1,.87-.48A9.61,9.61,0,0,1,20,9a9.61,9.61,0,0,1-1.22,4.74A.49.49,0,0,1,18.35,14Z"/><path class="a" d="M5.65,14a.49.49,0,0,1-.43-.26A9.61,9.61,0,0,1,4,9,9.61,9.61,0,0,1,5.22,4.26a.5.5,0,1,1,.87.48,8.87,8.87,0,0,0,0,8.52.5.5,0,0,1-.19.68A.54.54,0,0,1,5.65,14Z"/></svg>