<svg id="icn_house_rate"  xmlns="http://www.w3.org/2000/svg" viewBox="0 0 24 24"><defs><style>.cls-1{fill:currentColor;}</style></defs><title>icn_house_rate</title><path class="cls-1" d="M15.5,10a.47.47,0,0,1-.35-.15.48.48,0,0,1,0-.7l6-6a.49.49,0,0,1,.7.7l-6,6A.47.47,0,0,1,15.5,10Zm1-6a.5.5,0,1,0,.5.5.5.5,0,0,0-.5-.5Zm0-1A1.5,1.5,0,1,1,15,4.5,1.5,1.5,0,0,1,16.5,3Zm4,5a.5.5,0,1,0,.5.5.5.5,0,0,0-.5-.5Zm0-1A1.5,1.5,0,1,1,19,8.5,1.5,1.5,0,0,1,20.5,7ZM23,21.5a.5.5,0,0,1-.5.5H1.5a.5.5,0,0,1,0-1H3.09A1.39,1.39,0,0,1,3,20.5V15.32a2.49,2.49,0,0,1,.67-1.7L4,13.27V8H6v3.12L8.17,8.79a2.59,2.59,0,0,1,3.66,0l4.5,4.83a2.49,2.49,0,0,1,.67,1.7V20.5a1.39,1.39,0,0,1-.09.5H22.5A.5.5,0,0,1,23,21.5ZM15.5,21a.5.5,0,0,0,.5-.5V15.32a1.49,1.49,0,0,0-.4-1L11.1,9.48a1.53,1.53,0,0,0-2.2,0L4.4,14.3a1.49,1.49,0,0,0-.4,1V20.5a.5.5,0,0,0,.5.5H8V16.69A.69.69,0,0,1,8.7,16h2.61a.69.69,0,0,1,.69.69V21Z"/></svg>