<svg id="icn_cash_success" xmlns="http://www.w3.org/2000/svg" viewBox="0 0 24 24"><defs><style>.a{fill:currentColor;}</style></defs><title>icn_cash_success</title><path class="a" d="M10.5,8A1.5,1.5,0,1,1,9,9.5,1.5,1.5,0,0,1,10.5,8Zm0-1A2.5,2.5,0,1,0,13,9.5,2.5,2.5,0,0,0,10.5,7ZM7,10.5v-2a.5.5,0,0,0-1,0v2a.5.5,0,0,0,1,0Zm8,0v-2a.5.5,0,0,0-1,0v2a.5.5,0,0,0,1,0ZM19,10V5H2v9H14a4.07,4.07,0,0,0,0,.5A4.5,4.5,0,1,0,19,10ZM18,6V8a2,2,0,0,1-2-2ZM3,6H5A2,2,0,0,1,3,8Zm0,7V11a2,2,0,0,1,2,2Zm3,0a3,3,0,0,0-3-3V9A3,3,0,0,0,6,6h9a3,3,0,0,0,3,3v1a4.51,4.51,0,0,0-3.74,3Zm12.5,5A3.5,3.5,0,1,1,22,14.5,3.5,3.5,0,0,1,18.5,18Zm-.15-2.15,2-2a.49.49,0,1,0-.7-.7L18,14.79l-.65-.64a.49.49,0,0,0-.7.7l1,1a.48.48,0,0,0,.7,0Z"/></svg>