<svg id="icn_branch" xmlns="http://www.w3.org/2000/svg"  viewBox="0 0 24 24"><defs><style>.a{fill:currentColor;}</style><clipPath ><path class="a" d="M-326-329.27a1,1,0,0,0,1,1,1,1,0,0,0,1-1,1,1,0,0,0-1-1A1,1,0,0,0-326-329.27Zm12,0a1,1,0,0,0-1-1,1,1,0,0,0-1,1,1,1,0,0,0,1,1A1,1,0,0,0-314-329.27Zm-7-9v4h2v-1.92a7,7,0,0,1,6,6.92,7,7,0,0,1-7,7,7,7,0,0,1-7-7,6.92,6.92,0,0,1,1.58-4.42l5.42,5.42,1.41-1.41-6.8-6.8v0a9,9,0,0,0-3.61,7.19,9,9,0,0,0,9,9,9,9,0,0,0,9-9,9,9,0,0,0-9-9Zm0,14a1,1,0,0,0,1,1,1,1,0,0,0,1-1,1,1,0,0,0-1-1A1,1,0,0,0-321-324.27Z"/></clipPath></defs><title>icn_branch</title><path class="b" d="M21.5,21H21V19.5a.5.5,0,0,0-.5-.5H20V17.5a.5.5,0,0,0-.5-.5H19V10h.5a.5.5,0,0,0,.5-.5V8h.5A.49.49,0,0,0,21,7.63a.49.49,0,0,0-.23-.56l-8.5-5a.5.5,0,0,0-.5,0l-8.5,5A.49.49,0,0,0,3,7.63.49.49,0,0,0,3.5,8H4V9.5a.5.5,0,0,0,.5.5H5v7H4.5a.5.5,0,0,0-.5.5V19H3.5a.5.5,0,0,0-.5.5V21H2.5a.5.5,0,0,0,0,1h19a.5.5,0,0,0,0-1ZM18,17H17V10h1Zm-4.5,0V10H16v7ZM8,17V10h2.5v7Zm3.5-7h1v7h-1ZM12,3.08,18.66,7H5.34ZM19,8V9H5V8ZM6,10H7v7H6ZM5,18H19v1H5ZM4,21V20H20v1ZM13,5a1,1,0,1,1-1-1A1,1,0,0,1,13,5Z"/></svg>