<svg id="icn_pc" xmlns="http://www.w3.org/2000/svg" viewBox="0 0 24 24"><defs><style>.a{fill:currentColor;}</style></defs><title>icn_pc</title><path class="a" d="M20.5,5H7.5A1.5,1.5,0,0,0,6,6.5V8H2.5a.5.5,0,0,0-.5.5v11a.5.5,0,0,0,.5.5h6a.5.5,0,0,0,.5-.5V17h3v1H10.48a.5.5,0,0,0,0,1h7a.5.5,0,0,0,0-1H16V17h4.5A1.5,1.5,0,0,0,22,15.5v-9A1.5,1.5,0,0,0,20.5,5ZM8,19H3V9H8Zm7-1H13V17h2Zm6-2.5a.5.5,0,0,1-.5.5H9V8.5A.5.5,0,0,0,8.5,8H7V6.5A.5.5,0,0,1,7.5,6h13a.5.5,0,0,1,.5.5ZM7,15H4V14H7Zm0,2H4V16H7Zm0-6.5a.5.5,0,1,1-.5-.5A.5.5,0,0,1,7,10.5Z"/></svg>