<svg id="icn_people_1_strike" xmlns="http://www.w3.org/2000/svg" viewBox="0 0 24 24"><defs><style>.a{fill:currentColor;}</style></defs><title>icn_people_1_strike</title><path class="a" d="M9.11,6.23a3,3,0,1,1,3.48,3.71l1.13,1.2a5.49,5.49,0,0,1,4.2,4.48L19,16.77V16.5a6.51,6.51,0,0,0-4.7-6.24,4,4,0,1,0-6-4.86Z"/><path class="a" d="M16,18H7.2A1.2,1.2,0,0,1,6,16.8v-.3a5.51,5.51,0,0,1,3.75-5.21L9,10.52a6.48,6.48,0,0,0-4,6v.3A2.21,2.21,0,0,0,7.2,19h9.6L17,19Z"/><path class="a" d="M19.5,20a.5.5,0,0,1-.37-.16l-15-16a.5.5,0,0,1,.74-.68l15,16a.5.5,0,0,1,0,.7A.45.45,0,0,1,19.5,20Z"/></svg>