<svg id="icn_my360"  xmlns="http://www.w3.org/2000/svg" viewBox="0 0 24 24"><defs><style>.cls-1{fill:currentColor;}</style></defs><title>icn_my360</title><path class="cls-1" d="M23.43,9.93a1.85,1.85,0,0,0-1.59-.77,1.89,1.89,0,0,0-1.6.77A3.37,3.37,0,0,0,19.66,12a3.37,3.37,0,0,0,.58,2.07,1.89,1.89,0,0,0,1.6.77,1.85,1.85,0,0,0,1.59-.77A3.39,3.39,0,0,0,24,12,3.39,3.39,0,0,0,23.43,9.93ZM21.84,14a1,1,0,0,1-.92-.51A2.83,2.83,0,0,1,20.59,12c0-1.34.41-2,1.25-2a1,1,0,0,1,.91.5A2.8,2.8,0,0,1,23.07,12C23.07,13.35,22.66,14,21.84,14Z"/><path class="cls-1" d="M18.58,11.7a1.76,1.76,0,0,0-1.27-.45,2.16,2.16,0,0,0-1.45.59,2.5,2.5,0,0,1,.42-1.37,1.21,1.21,0,0,1,1-.51,1.7,1.7,0,0,1,1,.32l.45-.68a2.27,2.27,0,0,0-1.42-.44,2.17,2.17,0,0,0-1.69.77A3.21,3.21,0,0,0,15,12.1a3.18,3.18,0,0,0,.58,2,1.88,1.88,0,0,0,1.54.7,2,2,0,0,0,1.41-.52A1.75,1.75,0,0,0,19.06,13,1.66,1.66,0,0,0,18.58,11.7Zm-.69,2.08a1.05,1.05,0,0,1-.77.28c-.76,0-1.18-.5-1.25-1.5a1.62,1.62,0,0,1,.54-.38,1.88,1.88,0,0,1,.73-.16c.69,0,1,.33,1,1A1,1,0,0,1,17.89,13.78Z"/><path class="cls-1" d="M12.27,14.84a2.39,2.39,0,0,1-2-1l.65-.52a1.63,1.63,0,0,0,1.37.67,1.38,1.38,0,0,0,.82-.21.72.72,0,0,0,.29-.64.77.77,0,0,0-.37-.72,2.27,2.27,0,0,0-1.15-.22h-.25v-.76h.27a2.05,2.05,0,0,0,1.06-.2.68.68,0,0,0,.29-.6c0-.46-.31-.69-.94-.69a1.69,1.69,0,0,0-1.26.53l-.54-.58a2.5,2.5,0,0,1,.84-.57,2.66,2.66,0,0,1,1-.21,2,2,0,0,1,1.31.38,1.36,1.36,0,0,1,.19,1.83,1.31,1.31,0,0,1-.74.46,1.3,1.3,0,0,1,1.16,1.39,1.42,1.42,0,0,1-.55,1.18A2.21,2.21,0,0,1,12.27,14.84Z"/><polygon class="cls-1" points="5.87 9.26 6.28 9.26 7.89 11.98 9.49 9.26 9.88 9.26 8.06 12.3 8.06 14.74 7.69 14.74 7.69 12.3 5.87 9.26"/><path class="cls-1" d="M0,14.74V9.26H.47l2,5h0l2-5h.47v5.48H4.54V10h0c-.07.19-.19.49-.35.9L2.62,14.74H2.28L.72,10.85c-.19-.46-.3-.77-.35-.9h0v4.79Z"/></svg>