<svg id="icn_clock_standard_past" xmlns="http://www.w3.org/2000/svg" viewBox="0 0 24 24"><defs><style>.a{fill:currentColor;}</style></defs><title>icn_clock_standard_past</title><path class="b" d="M12,7.5v4.37l2.76,2.76a.5.5,0,0,1,0,.71.48.48,0,0,1-.7,0l-2.91-2.91a.47.47,0,0,1-.15-.35V7.5a.5.5,0,0,1,1,0ZM12,3a9,9,0,0,0-9,8.33L1.85,10.15a.48.48,0,0,0-.7,0,.48.48,0,0,0,0,.7l2,2a.48.48,0,0,0,.7,0l2-2a.49.49,0,0,0-.7-.7L4,11.26a8,8,0,1,1,2.29,6.39,7.57,7.57,0,0,1-.53-.6.5.5,0,0,0-.78.64q.29.35.6.66A9,9,0,1,0,12,3Z"/></svg>