<svg id="icn_card_signal" xmlns="http://www.w3.org/2000/svg" viewBox="0 0 24 24"><defs><style>.a{fill:currentColor;}</style></defs><title>icn_card_signal</title><path class="a" d="M14.5,9H2.5A1.5,1.5,0,0,0,1,10.5v7A1.5,1.5,0,0,0,2.5,19h12A1.5,1.5,0,0,0,16,17.5v-7A1.5,1.5,0,0,0,14.5,9Zm.5,8.5a.5.5,0,0,1-.5.5H2.5a.5.5,0,0,1-.5-.5V14H15ZM15,12H2V10.5a.5.5,0,0,1,.5-.5h12a.5.5,0,0,1,.5.5Z"/><path class="a" d="M3.5,16h3a.5.5,0,0,0,0-1h-3a.5.5,0,0,0,0,1Z"/><path class="a" d="M20.56,3.94A8.27,8.27,0,0,0,14.64,1.5h-.09a.5.5,0,1,0,0,1h0A7.34,7.34,0,0,1,22,9.94a.51.51,0,0,0,.5.51h0A.5.5,0,0,0,23,10,8.31,8.31,0,0,0,20.56,3.94Z"/><path class="a" d="M14.52,4a.5.5,0,0,0,0,1h0a4.92,4.92,0,0,1,5,5,.5.5,0,0,0,.49.5h0a.5.5,0,0,0,.5-.49,5.94,5.94,0,0,0-6-6Z"/><path class="a" d="M14.5,6.44A.51.51,0,0,0,14,7a.5.5,0,0,0,.5.49h0a2.5,2.5,0,0,1,1.79.74A2.55,2.55,0,0,1,17.06,10a.5.5,0,0,0,.49.51h0a.51.51,0,0,0,.5-.49,3.54,3.54,0,0,0-1-2.54A3.64,3.64,0,0,0,14.5,6.44Z"/></svg>