<svg id="icn_trailer" xmlns="http://www.w3.org/2000/svg" viewBox="0 0 24 24"><defs><style>.a{fill:currentColor;}</style></defs><title>icn_trailer</title><path class="a" d="M21.5,12a.5.5,0,0,0-.5.5V13H19V8.5a.51.51,0,0,0-.28-.45l-4-2a.54.54,0,0,0-.22,0H2.5a.5.5,0,0,0-.5.5v8a.5.5,0,0,0,.5.5H5a4,4,0,0,0,8,0h5.5a.5.5,0,0,0,.5-.5V14h2.5a.5.5,0,0,0,.5-.5v-1A.5.5,0,0,0,21.5,12ZM9,18a3,3,0,1,1,3-3A3,3,0,0,1,9,18Zm9-4H13l-.13,0a4,4,0,0,0-7.74,0L5,14H3V10H18Zm0-5H3V7H14.38L18,8.81ZM9,17a2,2,0,1,1,2-2A2,2,0,0,1,9,17Zm0-3a1,1,0,1,0,1,1A1,1,0,0,0,9,14Zm9.5-5.5-16,0"/></svg>