<svg id="icn_graduate_cap" xmlns="http://www.w3.org/2000/svg" viewBox="0 0 24 24"><defs><style>.a{fill:currentColor;}</style></defs><title>icn_graduate_cap</title><path class="a" d="M21.69,9,12.19,5a.5.5,0,0,0-.38,0L2.31,9A.5.5,0,0,0,2,9.45a.51.51,0,0,0,.3.46l2.18.93,0,2.66a.51.51,0,0,0,.3.46l7,3a.52.52,0,0,0,.4,0L16,15.33V17.5a.5.5,0,0,0,1,0V14.9L19.2,14a.51.51,0,0,0,.3-.46V10.85l2.2-.94a.51.51,0,0,0,.3-.46A.5.5,0,0,0,21.69,9ZM16,14.24,12,16,5.5,13.17v-1.9L11.8,14a.52.52,0,0,0,.4,0L16,12.34Zm2.5-1.07-1.5.64v-1.9l1.5-.63ZM12,13,3.79,9.46,12,6l8.21,3.42Z"/></svg>