<svg id="icn_graph_donut" xmlns="http://www.w3.org/2000/svg" viewBox="0 0 24 24"><defs><style>.a{fill:currentColor;}</style></defs><title>icn_graph_donut</title><path class="a" d="M21.88,13.18a.45.45,0,0,1,.11.4A10.05,10.05,0,0,1,8.82,21.46a.51.51,0,0,1-.28-.71l1.7-3.15a.48.48,0,0,1,.55-.25,5.13,5.13,0,0,0,1,.14,5.57,5.57,0,0,0,5.65-4.11.5.5,0,0,1,.49-.38H21.5A.46.46,0,0,1,21.88,13.18ZM8.54,3.25a.51.51,0,0,1,.28-.71A10.05,10.05,0,0,1,22,10.42a.45.45,0,0,1-.11.4.46.46,0,0,1-.38.18H17.92a.5.5,0,0,1-.49-.37,5.55,5.55,0,0,0-6.64-4,.49.49,0,0,1-.55-.25Zm1.17.06L10.94,5.6A6.55,6.55,0,0,1,18.29,10h2.6a9,9,0,0,0-8.82-7A9.5,9.5,0,0,0,9.71,3.31ZM8.44,16.68,6.76,19.82a.49.49,0,0,1-.34.25h-.1A.45.45,0,0,1,6,20,9.93,9.93,0,0,1,6,4a.48.48,0,0,1,.4-.09.49.49,0,0,1,.34.25L8.44,7.33a.49.49,0,0,1-.1.6,5.47,5.47,0,0,0,0,8.14A.5.5,0,0,1,8.44,16.68Zm-1.06-.14a6.47,6.47,0,0,1,0-9.08L6.16,5.18a8.94,8.94,0,0,0,0,13.64Z"/></svg>