<svg id="icn_goal" xmlns="http://www.w3.org/2000/svg" viewBox="0 0 24 24"><defs><style>.a{fill:currentColor;}</style></defs><title>icn_goal</title><path class="a" d="M22.74,5.1l-1.88-1-.92-1.83a.5.5,0,0,0-.8-.13l-2,2A.5.5,0,0,0,17,4.5V7.29l-4.33,4.33a2.92,2.92,0,1,0,.71.71l1.18-1.19a4.52,4.52,0,0,1,1,2.86,4.58,4.58,0,1,1-3.06-4.33.49.49,0,0,0,.64-.3.5.5,0,0,0-.3-.64A5.65,5.65,0,0,0,11,8.41a5.63,5.63,0,1,0,4.28,2l1-1A6.93,6.93,0,0,1,18,14a7,7,0,1,1-4-6.34.5.5,0,0,0,.42-.9A7.82,7.82,0,0,0,11,6a8,8,0,1,0,6,2.71L17.74,8l2.73,0h0a.48.48,0,0,0,.34-.14l2-2A.49.49,0,0,0,23,5.47.5.5,0,0,0,22.74,5.1ZM19.36,3.34l.53,1.06-.11.11L18,6.25V4.71ZM12.91,14a1.93,1.93,0,1,1-1-1.65l-1.3,1.3a.5.5,0,0,0,.35.85.47.47,0,0,0,.35-.15l1.3-1.29A1.89,1.89,0,0,1,12.91,14Zm7.37-7L18.72,7l1.75-1.75.13-.13,1.06.56Z"/></svg>