<svg id="icn_document_pdf" xmlns="http://www.w3.org/2000/svg" viewBox="0 0 24 24"><defs><style>.a{fill:currentColor;}</style></defs><title>icn_document_pdf</title><path class="a" d="M10.11,14.65a1.23,1.23,0,0,0-.57-.48A2.13,2.13,0,0,0,8.68,14H7v4H8V16.64h.64a1.88,1.88,0,0,0,1.22-.35,1.13,1.13,0,0,0,.44-.93A1.24,1.24,0,0,0,10.11,14.65Zm-1,1.11a.65.65,0,0,1-.45.14H8V14.74h.67a.59.59,0,0,1,.44.18.64.64,0,0,1,.16.44A.51.51,0,0,1,9.13,15.76ZM7,8.5A.5.5,0,0,1,7.5,8h4a.5.5,0,0,1,0,1h-4A.5.5,0,0,1,7,8.5Zm0-2A.5.5,0,0,1,7.5,6h4a.5.5,0,0,1,0,1h-4A.5.5,0,0,1,7,6.5Zm6.52,8.42a1.67,1.67,0,0,0-.69-.68,2.09,2.09,0,0,0-1-.24H10.47v4h1.38a1.92,1.92,0,0,0,1-.25,1.67,1.67,0,0,0,.69-.68,1.92,1.92,0,0,0,.25-1V15.9A1.91,1.91,0,0,0,13.52,14.92Zm-.78,1.16a1.42,1.42,0,0,1-.23.88.81.81,0,0,1-.67.3h-.36V14.74h.34a.83.83,0,0,1,.69.3,1.41,1.41,0,0,1,.23.87ZM17,10.5a.5.5,0,0,1-.5.5h-9a.5.5,0,0,1,0-1h9A.5.5,0,0,1,17,10.5ZM14,14h3v.74H15.08v.92h1.74v.75H15.08V18H14Zm4.85-7.85-4-4A.47.47,0,0,0,14.5,2H7A2,2,0,0,0,5,4V20a2,2,0,0,0,2,2H17a2,2,0,0,0,2-2V6.5A.47.47,0,0,0,18.85,6.15ZM18,20a1,1,0,0,1-1,1H7a1,1,0,0,1-1-1V4A1,1,0,0,1,7,3h7a.66.66,0,0,0,0,.15V6.5a.5.5,0,0,0,.5.5h3.35A.66.66,0,0,0,18,7Zm-7.89-5.35a1.23,1.23,0,0,0-.57-.48A2.13,2.13,0,0,0,8.68,14H7v4H8V16.64h.64a1.88,1.88,0,0,0,1.22-.35,1.13,1.13,0,0,0,.44-.93A1.24,1.24,0,0,0,10.11,14.65Zm-1,1.11a.65.65,0,0,1-.45.14H8V14.74h.67a.59.59,0,0,1,.44.18.64.64,0,0,1,.16.44A.51.51,0,0,1,9.13,15.76ZM7,8.5A.5.5,0,0,1,7.5,8h4a.5.5,0,0,1,0,1h-4A.5.5,0,0,1,7,8.5Zm0-2A.5.5,0,0,1,7.5,6h4a.5.5,0,0,1,0,1h-4A.5.5,0,0,1,7,6.5Zm6.52,8.42a1.67,1.67,0,0,0-.69-.68,2.09,2.09,0,0,0-1-.24H10.47v4h1.38a1.92,1.92,0,0,0,1-.25,1.67,1.67,0,0,0,.69-.68,1.92,1.92,0,0,0,.25-1V15.9A1.91,1.91,0,0,0,13.52,14.92Zm-.78,1.16a1.42,1.42,0,0,1-.23.88.81.81,0,0,1-.67.3h-.36V14.74h.34a.83.83,0,0,1,.69.3,1.41,1.41,0,0,1,.23.87ZM7,10.5a.5.5,0,0,1,.5-.5h9a.5.5,0,0,1,0,1h-9A.5.5,0,0,1,7,10.5ZM14,14h3v.74H15.08v.92h1.74v.75H15.08V18H14ZM12,6.5a.5.5,0,0,1-.5.5h-4a.5.5,0,0,1,0-1h4A.5.5,0,0,1,12,6.5Zm0,2a.5.5,0,0,1-.5.5h-4a.5.5,0,0,1,0-1h4A.5.5,0,0,1,12,8.5Zm5,2a.5.5,0,0,1-.5.5h-9a.5.5,0,0,1,0-1h9A.5.5,0,0,1,17,10.5Zm-6.89,4.15a1.23,1.23,0,0,0-.57-.48A2.13,2.13,0,0,0,8.68,14H7v4H8V16.64h.64a1.88,1.88,0,0,0,1.22-.35,1.13,1.13,0,0,0,.44-.93A1.24,1.24,0,0,0,10.11,14.65Zm-1,1.11a.65.65,0,0,1-.45.14H8V14.74h.67a.59.59,0,0,1,.44.18.64.64,0,0,1,.16.44A.51.51,0,0,1,9.13,15.76Zm4.39-.84a1.67,1.67,0,0,0-.69-.68,2.09,2.09,0,0,0-1-.24H10.47v4h1.38a1.92,1.92,0,0,0,1-.25,1.67,1.67,0,0,0,.69-.68,1.92,1.92,0,0,0,.25-1V15.9A1.91,1.91,0,0,0,13.52,14.92Zm-.78,1.16a1.42,1.42,0,0,1-.23.88.81.81,0,0,1-.67.3h-.36V14.74h.34a.83.83,0,0,1,.69.3,1.41,1.41,0,0,1,.23.87Zm2.34-1.34v.92h1.74v.75H15.08V18H14V14h3v.74Z"/></svg>