<svg id="icn_phone_settings" xmlns="http://www.w3.org/2000/svg" viewBox="0 0 24 24"><defs><style>.a{fill:currentColor;}</style></defs><title>icn_phone_settings</title><path class="a" d="M11.5,19h-3a.5.5,0,0,0,0,1h3a.5.5,0,0,0,0-1Z"/><path class="a" d="M20.57,12.61l-.65-.37a.2.2,0,0,1-.1-.2,3.67,3.67,0,0,0,0-1.08.2.2,0,0,1,.1-.2l.65-.37a.84.84,0,0,0,.4-.52.83.83,0,0,0-.09-.65L20.17,8A.85.85,0,0,0,19,7.7l-.64.36a.2.2,0,0,1-.21,0,4.06,4.06,0,0,0-1-.59.17.17,0,0,1-.1-.17V6.59a.85.85,0,0,0-.85-.85H16V4.88A2.8,2.8,0,0,0,13.3,2H6.7A2.8,2.8,0,0,0,4,4.88V19.12A2.8,2.8,0,0,0,6.7,22h6.6A2.8,2.8,0,0,0,16,19.12V17.26h.21a.85.85,0,0,0,.85-.85V15.7a.17.17,0,0,1,.1-.17,4.45,4.45,0,0,0,1-.59.2.2,0,0,1,.21,0l.64.36A.83.83,0,0,0,20.17,15l.71-1.21a.83.83,0,0,0,.09-.65A.84.84,0,0,0,20.57,12.61ZM15,19.12A1.79,1.79,0,0,1,13.3,21H6.7A1.79,1.79,0,0,1,5,19.12V4.88A1.79,1.79,0,0,1,6.7,3h6.6A1.79,1.79,0,0,1,15,4.88v.86h-.21a.85.85,0,0,0-.85.85V7.3a.17.17,0,0,1-.1.17,4.06,4.06,0,0,0-1,.59.2.2,0,0,1-.21,0L12,7.7A.85.85,0,0,0,10.83,8l-.71,1.21a.83.83,0,0,0-.09.65.84.84,0,0,0,.4.52l.65.37a.2.2,0,0,1,.1.2,3.67,3.67,0,0,0,0,1.08.2.2,0,0,1-.1.2l-.65.37a.84.84,0,0,0-.4.52.83.83,0,0,0,.09.65L10.83,15A.84.84,0,0,0,12,15.3l.64-.36a.2.2,0,0,1,.21,0,4.06,4.06,0,0,0,1,.59.17.17,0,0,1,.1.17v.71a.85.85,0,0,0,.85.85H15Zm4.39-4.76-.52-.29a1.18,1.18,0,0,0-1.31.08,3.37,3.37,0,0,1-.78.45,1.17,1.17,0,0,0-.72,1.1v.56H14.94V15.7a1.17,1.17,0,0,0-.72-1.1,3.37,3.37,0,0,1-.78-.45,1.18,1.18,0,0,0-1.31-.08l-.52.29-.55-1,.52-.3a1.2,1.2,0,0,0,.59-1.19,2.82,2.82,0,0,1,0-.82,1.2,1.2,0,0,0-.59-1.19l-.52-.3.55-1,.52.29a1.18,1.18,0,0,0,1.31-.08,3.37,3.37,0,0,1,.78-.45,1.17,1.17,0,0,0,.72-1.1V6.74h1.12V7.3a1.17,1.17,0,0,0,.72,1.1,3.37,3.37,0,0,1,.78.45,1.18,1.18,0,0,0,1.31.08l.52-.29.55,1-.52.3a1.2,1.2,0,0,0-.59,1.19,2.82,2.82,0,0,1,0,.82,1.2,1.2,0,0,0,.59,1.19l.52.3Z"/><path class="a" d="M15.5,9A2.49,2.49,0,1,0,18,11.5,2.48,2.48,0,0,0,15.5,9Zm0,4A1.49,1.49,0,1,1,17,11.5,1.49,1.49,0,0,1,15.5,13Z"/></svg>