<svg id="icn_bell_add_solid" xmlns="http://www.w3.org/2000/svg" viewBox="0 0 24 24"><defs><style>.a{fill:currentColor;}</style></defs><title>icn_bell_add_solid</title><path class="a" d="M19.21,15.42a2.4,2.4,0,0,1-1.12-2.11V9.75a5.71,5.71,0,0,0-1.64-4A5.39,5.39,0,0,0,15,4.63V4.5a2.5,2.5,0,0,0-5,0v.19a5.69,5.69,0,0,0-1.18.85A6.3,6.3,0,0,0,6.91,10v3.27a2.4,2.4,0,0,1-1.12,2.11A3.54,3.54,0,0,0,4,18.5a.5.5,0,0,0,.5.5h16a.5.5,0,0,0,.5-.5A3.54,3.54,0,0,0,19.21,15.42ZM12.5,3A1.5,1.5,0,0,1,14,4.22,5.37,5.37,0,0,0,12.71,4,5.38,5.38,0,0,0,11,4.26,1.51,1.51,0,0,1,12.5,3Zm3,10H13v2.5a.5.5,0,0,1-1,0V13H9.5a.5.5,0,0,1,0-1H12V9.5a.5.5,0,0,1,1,0V12h2.5a.5.5,0,0,1,0,1ZM15,20l0,.12a2.5,2.5,0,0,1-4.84,0l0-.12Z"/></svg>