<svg id="icn_people_settings" xmlns="http://www.w3.org/2000/svg" viewBox="0 0 24 24"><defs><style>.a{fill:currentColor;}</style></defs><title>icn_people_settings</title><path class="a" d="M21.51,17.47,20.66,17a.35.35,0,0,1-.19-.36,5.3,5.3,0,0,0,0-1.3.35.35,0,0,1,.19-.36l.85-.46A.92.92,0,0,0,22,14a.89.89,0,0,0-.11-.71l-.92-1.51a1,1,0,0,0-1.28-.33l-.84.45a.43.43,0,0,1-.45,0,5.66,5.66,0,0,0-1.27-.71.35.35,0,0,1-.22-.32V9.93a1,1,0,0,0-1-.93H14.08a1,1,0,0,0-1,.93v.88a.35.35,0,0,1-.22.32c-.13,0-.25.12-.37.18a5.53,5.53,0,0,0-3-2.93,3.5,3.5,0,1,0-4,0A5.5,5.5,0,0,0,2,13.5V14a2,2,0,0,0,2,2H9.49a4.63,4.63,0,0,0,0,.65.35.35,0,0,1-.19.36l-.85.46a.92.92,0,0,0-.46.58.89.89,0,0,0,.11.71l.92,1.51a1,1,0,0,0,1.28.33l.84-.45a.43.43,0,0,1,.45,0,5.66,5.66,0,0,0,1.27.71.35.35,0,0,1,.22.32v.88a1,1,0,0,0,1,.93h1.84a1,1,0,0,0,1-.93v-.88a.35.35,0,0,1,.22-.32,5.66,5.66,0,0,0,1.27-.71.43.43,0,0,1,.45,0l.84.45a1,1,0,0,0,1.28-.33l.92-1.51a.89.89,0,0,0,.11-.71A.92.92,0,0,0,21.51,17.47ZM5,5.5A2.5,2.5,0,1,1,7.5,8,2.5,2.5,0,0,1,5,5.5ZM3,14v-.5a4.49,4.49,0,0,1,8.65-1.68l0,0a.43.43,0,0,1-.45,0l-.84-.45a1,1,0,0,0-1.28.33l-.92,1.51A.89.89,0,0,0,8,14a.92.92,0,0,0,.46.58l.85.46H4A1,1,0,0,1,3,14Zm17.13,5.72-.83-.45a1.42,1.42,0,0,0-1.52.09,4.47,4.47,0,0,1-1.05.58,1.32,1.32,0,0,0-.85,1.25l0,.81-1.8.07v-.88a1.32,1.32,0,0,0-.85-1.25,4.47,4.47,0,0,1-1-.58,1.37,1.37,0,0,0-.82-.27,1.46,1.46,0,0,0-.7.18l-.79.47L9,18.31l.79-.42a1.35,1.35,0,0,0,.7-1.37,4.52,4.52,0,0,1,0-1,1.35,1.35,0,0,0-.7-1.37L9,13.69l.84-1.41.83.45a1.44,1.44,0,0,0,1.52-.09,4.47,4.47,0,0,1,1-.58,1.32,1.32,0,0,0,.85-1.25l0-.81,1.8-.07v.88a1.32,1.32,0,0,0,.85,1.25,4.47,4.47,0,0,1,1.05.58,1.44,1.44,0,0,0,1.52.09l.79-.47L21,13.69l-.79.42a1.35,1.35,0,0,0-.7,1.37,4.52,4.52,0,0,1,0,1,1.35,1.35,0,0,0,.7,1.37l.79.42ZM15,14a2,2,0,1,1-2,2,2,2,0,0,1,2-2m0-1a3,3,0,1,0,3,3,3,3,0,0,0-3-3Z"/></svg>