<svg id="icn_tray_empty" xmlns="http://www.w3.org/2000/svg" viewBox="0 0 24 24"><defs><style>.a{fill:currentColor;}</style></defs><title>icn_tray_empty</title><path class="a" d="M19,3H5.05A2.05,2.05,0,0,0,3,5.05V18.7A2.19,2.19,0,0,0,5.05,21H19A2.19,2.19,0,0,0,21,18.7V5.05A2.05,2.05,0,0,0,19,3ZM5.05,4H19a1,1,0,0,1,1.05,1V15H15.09a.5.5,0,0,0-.42.23A3.19,3.19,0,0,1,12,16.83a3.19,3.19,0,0,1-2.67-1.6A.5.5,0,0,0,8.91,15H4V5.05A1,1,0,0,1,5.05,4ZM20,18.7A1.19,1.19,0,0,1,19,20H5.05a1.19,1.19,0,0,1-1-1.3V16H8.64A4.13,4.13,0,0,0,12,17.83,4.13,4.13,0,0,0,15.36,16H20Z"/></svg>