<svg id="icn_phone_outgoing" xmlns="http://www.w3.org/2000/svg" viewBox="0 0 24 24"><defs><style>.a{fill:currentColor;}</style></defs><title>icn_phone_outgoing</title><path class="a" d="M21.75,17.69l-5.06-3a.49.49,0,0,0-.64.11l-2.53,3A11.62,11.62,0,0,1,6.1,10.48L9.15,8a.49.49,0,0,0,.11-.64L6.31,2.25A.48.48,0,0,0,5.88,2H5.19a3,3,0,0,0-3,2.62,14.83,14.83,0,0,0-.06,4.21,15.12,15.12,0,0,0,13,13.05,15.31,15.31,0,0,0,1.91.12,14.79,14.79,0,0,0,2.31-.18,3,3,0,0,0,2.62-3v-.69A.48.48,0,0,0,21.75,17.69ZM21,18.81a2.06,2.06,0,0,1-1.78,2,14,14,0,0,1-3.94.06A14.12,14.12,0,0,1,3.11,8.71a14.34,14.34,0,0,1,.06-3.93A2.06,2.06,0,0,1,5.19,3h.4l2.6,4.45-3,2.47a.47.47,0,0,0-.16.52A12.58,12.58,0,0,0,13.56,19a.49.49,0,0,0,.52-.16l2.47-3L21,18.41Z"/><path class="a" d="M13.9,10.6a.47.47,0,0,0,.35-.15L19,5.71V8.5a.5.5,0,0,0,1,0v-4a.5.5,0,0,0-.5-.5h-4a.5.5,0,0,0,0,1h2.79L13.55,9.75a.48.48,0,0,0,0,.7A.47.47,0,0,0,13.9,10.6Z"/></svg>