<svg id="icn_shield_plus" xmlns="http://www.w3.org/2000/svg" viewBox="0 0 24 24"><defs><style>.a{fill:currentColor;}</style></defs><title>icn_shield_plus</title><path class="a" d="M12,22a.45.45,0,0,1-.16,0A12.36,12.36,0,0,1,3.05,8.77l.55-5.6A.51.51,0,0,1,4,2.72a44.69,44.69,0,0,1,16,0,.51.51,0,0,1,.41.45L21,8.77A12.36,12.36,0,0,1,12.16,22,.45.45,0,0,1,12,22ZM4.56,3.64,4.05,8.86A11.38,11.38,0,0,0,12,21,11.38,11.38,0,0,0,20,8.86l-.51-5.22A43.23,43.23,0,0,0,4.56,3.64ZM18.46,9l-.4-4.07a42,42,0,0,0-12.12,0l-.4,4A9.81,9.81,0,0,0,12,19.37,9.92,9.92,0,0,0,18.46,9ZM15,11.5H12.5V14a.5.5,0,0,1-1,0V11.5H9a.5.5,0,0,1-.5-.5.5.5,0,0,1,.5-.5h2.5V8a.5.5,0,0,1,1,0v2.5H15a.5.5,0,0,1,.5.5A.5.5,0,0,1,15,11.5Z"/></svg>