<svg id="icn_pencil_b" xmlns="http://www.w3.org/2000/svg" viewBox="0 0 24 24"><defs><style>.a{fill:currentColor;}</style></defs><title>icn_pencil_b</title><path class="a" d="M21,3.06l-.1-.1A3.28,3.28,0,0,0,16.3,3l-.8.8-.15-.15a.48.48,0,0,0-.7,0,.5.5,0,0,0,0,.71l.15.15L2.15,17.12a.47.47,0,0,0-.15.35v4a.5.5,0,0,0,.5.5h4a.47.47,0,0,0,.35-.15L19.53,9.2l.15.15A.51.51,0,0,0,20,9.5a.5.5,0,0,0,.35-.85l-.15-.15.8-.8A3.28,3.28,0,0,0,21,3.06ZM6.43,20.89,3.11,17.57,15.5,5.17,18.83,8.5ZM20.33,7l-.8.8L16.21,4.47l.8-.8a2.29,2.29,0,0,1,3.23,0l.09.09A2.29,2.29,0,0,1,20.33,7Z"/></svg>