<svg id="icn_people_3" xmlns="http://www.w3.org/2000/svg" viewBox="0 0 24 24"><defs><style>.a{fill:currentColor;}</style></defs><title>icn_people_3</title><path class="a" d="M20.1,11.41a2.5,2.5,0,1,0-3.21,0,3.69,3.69,0,0,0-.86.67,5,5,0,0,0-2.2-1.71,3,3,0,1,0-3.66,0A5,5,0,0,0,8,12.07a3.69,3.69,0,0,0-.86-.67,2.5,2.5,0,1,0-3.21,0A3.49,3.49,0,0,0,2,14.5,1.5,1.5,0,0,0,3.5,16H7.09A1.51,1.51,0,0,0,8.5,17h7a1.51,1.51,0,0,0,1.41-1H20.5A1.5,1.5,0,0,0,22,14.5,3.49,3.49,0,0,0,20.1,11.41ZM17,9.5A1.5,1.5,0,1,1,18.5,11,1.5,1.5,0,0,1,17,9.5ZM10,8a2,2,0,1,1,2,2A2,2,0,0,1,10,8ZM4,9.5A1.5,1.5,0,1,1,5.5,11,1.5,1.5,0,0,1,4,9.5Zm-1,5A2.49,2.49,0,0,1,7.45,13,5,5,0,0,0,7,15H3.5A.5.5,0,0,1,3,14.5Zm13,1a.5.5,0,0,1-.5.5h-7a.5.5,0,0,1-.5-.5V15a4,4,0,0,1,8,0Zm4.5-.5H17A5,5,0,0,0,16.55,13,2.49,2.49,0,0,1,21,14.5.5.5,0,0,1,20.5,15Z"/></svg>