<svg id="Icn_folder_exclamation" xmlns="http://www.w3.org/2000/svg"  viewBox="0 0 24 24"><defs><style>.a{fill:currentColor;}</style><clipPath ><path class="a" d="M-149-328.27a1,1,0,0,0,1,1,1,1,0,0,0,1-1,1,1,0,0,0-1-1A1,1,0,0,0-149-328.27Zm12,0a1,1,0,0,0-1-1,1,1,0,0,0-1,1,1,1,0,0,0,1,1A1,1,0,0,0-137-328.27Zm-7-9v4h2v-1.92a7,7,0,0,1,6,6.92,7,7,0,0,1-7,7,7,7,0,0,1-7-7,6.92,6.92,0,0,1,1.58-4.42l5.42,5.42,1.41-1.41-6.8-6.8v0a9,9,0,0,0-3.61,7.19,9,9,0,0,0,9,9,9,9,0,0,0,9-9,9,9,0,0,0-9-9Zm0,14a1,1,0,0,0,1,1,1,1,0,0,0,1-1,1,1,0,0,0-1-1A1,1,0,0,0-144-323.27Z"/></clipPath></defs><title>Icn_folder_exclamation</title><path class="b" d="M22,12.69V9.5A2.5,2.5,0,0,0,19.5,7H10.71L8.85,5.15A.47.47,0,0,0,8.5,5h-4A2.5,2.5,0,0,0,2,7.5v9A2.5,2.5,0,0,0,4.5,19h7.31A6,6,0,0,0,23,16,5.9,5.9,0,0,0,22,12.69ZM3,7.5A1.5,1.5,0,0,1,4.5,6H8.29l1.86,1.85A.47.47,0,0,0,10.5,8h9A1.5,1.5,0,0,1,21,9.5V11h-.69a6,6,0,0,0-6.62,0H3ZM11.35,18H4.5A1.5,1.5,0,0,1,3,16.5V12h9.54A5.93,5.93,0,0,0,11,16,5.8,5.8,0,0,0,11.35,18Zm10.38-.37,0,.06A5,5,0,0,1,13,19a5.26,5.26,0,0,1-.59-1A5.11,5.11,0,0,1,12,16a5,5,0,0,1,2-4,5,5,0,0,1,6,0,5.26,5.26,0,0,1,1,1,4.94,4.94,0,0,1,1,3A5.16,5.16,0,0,1,21.73,17.63ZM16.51,17h1V13h-1ZM17,18a.5.5,0,1,0,.5.5A.5.5,0,0,0,17,18Z"/></svg>