<svg id="icn_slider_controls" xmlns="http://www.w3.org/2000/svg" viewBox="0 0 24 24"><defs><style>.a{fill:currentColor;}</style></defs><title>icn_slider_controls</title><path class="b" d="M11,6a.5.5,0,0,1,.5-.5h10a.5.5,0,0,1,0,1h-10A.5.5,0,0,1,11,6Zm2.5,5.5H2.5a.5.5,0,0,0,0,1h11a.5.5,0,0,0,0-1ZM2,6a.5.5,0,0,1,.5-.5H6.07a2,2,0,1,1,0,1H2.5A.5.5,0,0,1,2,6ZM7,6A1,1,0,1,0,8,5,1,1,0,0,0,7,6Zm15,6a.5.5,0,0,1-.5.5H18.93a2,2,0,1,1,0-1H21.5A.5.5,0,0,1,22,12Zm-4,0a1,1,0,1,0-1,1A1,1,0,0,0,18,12Zm3.5,5.5h-6a.5.5,0,0,0,0,1h6a.5.5,0,0,0,0-1ZM14,18a2,2,0,0,1-3.93.5H2.5a.5.5,0,0,1,0-1h7.57A2,2,0,0,1,14,18Zm-1,0a1,1,0,1,0-1,1A1,1,0,0,0,13,18Z"/></svg>