<svg id="icn_tile_add" xmlns="http://www.w3.org/2000/svg" viewBox="0 0 24 24"><defs><style>.a{fill:currentColor;}</style></defs><title>icn_tile_add</title><path class="a" d="M18,14.5a.5.5,0,0,1-.5.5H4.5a.5.5,0,0,1,0-1h13A.5.5,0,0,1,18,14.5ZM17.5,16H4.5a.5.5,0,0,0-.5.5.5.5,0,0,0,.5.5h13a.5.5,0,0,0,.5-.5A.5.5,0,0,0,17.5,16ZM6,9a2,2,0,1,0,2,2A2,2,0,0,0,6,9Zm0,4a2,2,0,1,0-2-2A2,2,0,0,0,6,13Zm11.5,3H4.5a.5.5,0,0,0-.5.5.5.5,0,0,0,.5.5h13a.5.5,0,0,0,.5-.5A.5.5,0,0,0,17.5,16Zm0-2H4.5a.5.5,0,0,0,0,1h13a.5.5,0,0,0,0-1ZM21,10.86V18a2,2,0,0,1-2,2H3a2,2,0,0,1-2-2V8A2,2,0,0,1,3,6H16.63a1,1,0,0,1,.72.31c1.28,1.33,2.08,2.52,3.36,3.86A1,1,0,0,1,21,10.86Zm-1,0c-.68-.7-1.22-1.36-1.75-2s-1-1.23-1.62-1.87H3A1,1,0,0,0,2,8V18a1,1,0,0,0,1,1H19a1,1,0,0,0,1-1ZM6,13a2,2,0,1,0-2-2A2,2,0,0,0,6,13Zm11.5,3H4.5a.5.5,0,0,0-.5.5.5.5,0,0,0,.5.5h13a.5.5,0,0,0,.5-.5A.5.5,0,0,0,17.5,16Zm-13-1h13a.5.5,0,0,0,0-1H4.5a.5.5,0,0,0,0,1Zm18-11H21V2.51a.5.5,0,1,0-1,0V4H18.49a.5.5,0,0,0,0,1H20V6.51a.5.5,0,0,0,1,0V5h1.49a.5.5,0,0,0,0-1Z"/></svg>