<svg id="icn_globe" xmlns="http://www.w3.org/2000/svg" viewBox="0 0 24 24"><defs><style>.a{fill:currentColor;}</style></defs><title>icn_globe</title><path class="a" d="M12,2A10,10,0,1,0,22,12,10,10,0,0,0,12,2Zm4.66,6.66C19.24,9.36,21,10.61,21,12s-1.76,2.64-4.34,3.34A20.73,20.73,0,0,0,16.93,12,20.73,20.73,0,0,0,16.66,8.66Zm4,.83a10.24,10.24,0,0,0-4.21-1.92,10.24,10.24,0,0,0-1.92-4.21A9,9,0,0,1,20.64,9.49ZM15.93,12a18.54,18.54,0,0,1-.34,3.59,18.54,18.54,0,0,1-3.59.34,18.54,18.54,0,0,1-3.59-.34,19.12,19.12,0,0,1,0-7.18,19.12,19.12,0,0,1,7.18,0A18.54,18.54,0,0,1,15.93,12ZM12,3c1.39,0,2.64,1.76,3.34,4.34a20.79,20.79,0,0,0-6.68,0C9.36,4.76,10.61,3,12,3Zm-2.51.36A10.24,10.24,0,0,0,7.57,7.57,10.24,10.24,0,0,0,3.36,9.49,9,9,0,0,1,9.49,3.36ZM7.34,8.66a20.79,20.79,0,0,0,0,6.68C4.76,14.64,3,13.39,3,12S4.76,9.36,7.34,8.66Zm-4,5.85a10.24,10.24,0,0,0,4.21,1.92,10.24,10.24,0,0,0,1.92,4.21A9,9,0,0,1,3.36,14.51ZM12,21c-1.39,0-2.64-1.76-3.34-4.34a20.73,20.73,0,0,0,3.34.27,20.73,20.73,0,0,0,3.34-.27C14.64,19.24,13.39,21,12,21Zm2.51-.36a10.24,10.24,0,0,0,1.92-4.21,10.24,10.24,0,0,0,4.21-1.92A9,9,0,0,1,14.51,20.64Z"/></svg>