<svg id="icn_document_will" version="1.1"  xmlns="http://www.w3.org/2000/svg"  x="0px"
	 y="0px" viewBox="0 0 24 24" style="enable-background:new 0 0 24 24;" xml:space="preserve">
<style type="text/css">
	.st0{fill:currentColor;}
</style>
<title>icn_document_will</title>
<path class="st0" d="M7,8.5C7,8.2,7.2,8,7.5,8h4C11.8,8,12,8.2,12,8.5C12,8.8,11.8,9,11.5,9h-4C7.2,9,7,8.8,7,8.5z M7.5,7h4
	C11.8,7,12,6.8,12,6.5C12,6.2,11.8,6,11.5,6h-4C7.2,6,7,6.2,7,6.5C7,6.8,7.2,7,7.5,7z M7.5,11h9c0.3,0,0.5-0.2,0.5-0.5
	c0-0.3-0.2-0.5-0.5-0.5h-9C7.2,10,7,10.2,7,10.5C7,10.8,7.2,11,7.5,11z M19,6.5V20c0,1.1-0.9,2-2,2H7c-1.1,0-2-0.9-2-2V4
	c0-1.1,0.9-2,2-2h7.5c0.1,0,0.3,0,0.3,0.1l4,4C18.9,6.2,19,6.4,19,6.5z M18,7c-0.1,0-0.1,0-0.2,0h-3.3C14.2,7,14,6.8,14,6.5V3.1
	C14,3.1,14,3,14,3H7C6.4,3,6,3.5,6,4v16c0,0.5,0.4,1,1,1h10c0.6,0,1-0.5,1-1V7z M9.2,14.5H8.4l-0.5,2.2l-0.4-2.2H6.7L7.4,18h0.9
	l0.5-2l0.5,2h0.9l0.8-3.6h-0.8l-0.4,2.2L9.2,14.5z M12,14.5h-0.9V18H12V14.5z M13.3,14.5h-0.9V18h2.3v-0.7h-1.5V14.5z M15.9,14.5H15
	V18h2.3v-0.7h-1.5V14.5z"/>
</svg>
