<svg id="icn_plant" xmlns="http://www.w3.org/2000/svg" viewBox="0 0 24 24"><defs><style>.a{fill:currentColor;}</style></defs><title>icn_plant</title><path class="a" d="M16.43,12.14A4.83,4.83,0,0,0,18,8.53a.46.46,0,0,0-.15-.38A.44.44,0,0,0,17.47,8,4.89,4.89,0,0,0,14,9.44V6.5a.5.5,0,0,0-1,0V8.82C12.05,7,10.18,5.22,6.53,5a.43.43,0,0,0-.38.15A.46.46,0,0,0,6,5.53,7.45,7.45,0,0,0,13,13v2H11.5a.52.52,0,0,0-.41.21.48.48,0,0,0-.06.45l1,3a.5.5,0,0,0,.47.34h2a.5.5,0,0,0,.47-.34l1-3a.48.48,0,0,0-.06-.45A.52.52,0,0,0,15.5,15H14V13A4,4,0,0,0,16.43,12.14Zm-1.8-1.93a3.53,3.53,0,0,1,2.31-1.15,3.49,3.49,0,0,1-1.14,2.3A3,3,0,0,1,14,12v-.17A3,3,0,0,1,14.63,10.21ZM7.05,6.05A6.38,6.38,0,0,1,13,12,6.36,6.36,0,0,1,7.05,6.05Z"/></svg>