<svg id="icn_paper_stack_arrow"  xmlns="http://www.w3.org/2000/svg" viewBox="0 0 24 24"><defs><style>.cls-1{fill:currentColor;}</style></defs><title>icn_paper_stack_arrow</title><path class="cls-1" d="M20.55,13.2l-.15-.14L20.3,13l-.45-.32-1.31-.93L20.67,11a.5.5,0,0,0,.33-.41.53.53,0,0,0-.22-.48L18.69,8.69l2-.72A.5.5,0,0,0,21,7.56a.53.53,0,0,0-.22-.48l-6-4A.54.54,0,0,0,14.33,3l-11,4A.5.5,0,0,0,3,7.44a.53.53,0,0,0,.22.48L5.31,9.31l-2,.72a.5.5,0,0,0-.33.41.53.53,0,0,0,.22.48l2.09,1.39-2,.72a.5.5,0,0,0-.33.41.53.53,0,0,0,.22.48l2.09,1.39-2,.72a.5.5,0,0,0-.33.41.53.53,0,0,0,.22.48l6,4A.57.57,0,0,0,9.5,21a.47.47,0,0,0,.17,0l4.38-1.59a4.49,4.49,0,1,0,6.5-6.18ZM4.6,7.63l9.83-3.57,5,3.31L9.57,10.94Zm0,3L6.34,10l2.88,1.92A.57.57,0,0,0,9.5,12a.47.47,0,0,0,.17,0l7.85-2.86,1.88,1.26L9.57,13.94Zm0,3L6.34,13l2.88,1.92A.57.57,0,0,0,9.5,15a.47.47,0,0,0,.17,0l4.72-1.72a4.56,4.56,0,0,0-1.3,2.36L9.56,16.94Zm5,6.31-5-3.31L6.34,16l2.88,1.92a.54.54,0,0,0,.46,0L13,16.72a4.33,4.33,0,0,0,.47,1.8ZM17.5,20A3.5,3.5,0,1,1,21,16.5,3.5,3.5,0,0,1,17.5,20Zm2.28-3.91L19.7,16l.08,0Zm.07.76-.07.07-.08,0A.42.42,0,0,0,19.85,16.85Zm-.07-.77h0L19.7,16Zm.07.77-.07.07-.08,0A.42.42,0,0,0,19.85,16.85ZM20,16.5a.43.43,0,0,1,0,.19h0a.61.61,0,0,1-.26.26l.08,0-1.93,1.93a.48.48,0,0,1-.7,0,.48.48,0,0,1,0-.7L18.3,17H15.5a.5.5,0,0,1,0-1h2.8l-1.15-1.15a.49.49,0,0,1,.7-.7l1.93,1.93-.08,0,.08.05a.13.13,0,0,1,.07.06.42.42,0,0,1,.11.15h0A.43.43,0,0,1,20,16.5Z"/></svg>