<svg id="icn_megaphone" xmlns="http://www.w3.org/2000/svg" viewBox="0 0 24 24"><defs><style>.a{fill:currentColor;}</style></defs><title>icn_megaphone</title><path class="a" d="M21,8V2.5A.5.5,0,0,0,20.65,2a.53.53,0,0,0-.57.2C20,2.38,17.47,6,11.5,6h-6A3.5,3.5,0,0,0,2,9.5v2.11A3.39,3.39,0,0,0,5.39,15H6.63l-.9,2.27a3.74,3.74,0,0,0,.41,3.4A2.86,2.86,0,0,0,8.5,22,.51.51,0,0,0,9,21.68L11.64,15c5.87.06,8.34,3.62,8.44,3.78a.52.52,0,0,0,.42.22l.15,0A.5.5,0,0,0,21,18.5V13c.87,0,1-1.57,1-2.5S21.87,8,21,8ZM5.39,14A2.39,2.39,0,0,1,3,11.61V9.5A2.5,2.5,0,0,1,5.5,7H6.92v7Zm2.82,6.86,0,.11A2,2,0,0,1,7,20.1a2.72,2.72,0,0,1-.32-2.46L7.71,15h2.84ZM20,17.17A11.81,11.81,0,0,0,12,14V7a11.81,11.81,0,0,0,8-3.16Z"/></svg>