<svg id="icn_help_centre"  data-name="Working layer" xmlns="http://www.w3.org/2000/svg"  viewBox="0 0 24 24"><defs><style>.cls-1{fill:currentColor;}</style><linearGradient  x1="4.04" y1="11.97" x2="20.04" y2="11.97" gradientUnits="userSpaceOnUse"><stop offset="0" stop-color="#fff"/><stop offset="1" stop-color="#fff"/></linearGradient><linearGradient  x1="0.19" y1="11.97" x2="23.98" y2="11.97" gradientUnits="userSpaceOnUse"><stop offset="0" stop-color="#f61"/><stop offset="1" stop-color="#ffb84e"/></linearGradient><linearGradient  x1="10.76" y1="16.51" x2="13.14" y2="16.51" xlink:href="#linear-gradient-2"/><linearGradient  x1="8.29" y1="10.08" x2="16.03" y2="10.08" xlink:href="#linear-gradient-2"/></defs><title>icn_help_centre</title><circle class="cls-1" cx="12.04" cy="11.97" r="8"/><path class="cls-2" d="M12,2A10,10,0,1,0,22,12,10,10,0,0,0,12,2Zm0,18a8,8,0,1,1,8-8A8,8,0,0,1,12,20Z"/><path class="cls-3" d="M12.94,16.51a1,1,0,1,1-1-1A1,1,0,0,1,12.94,16.51Z"/><path class="cls-4" d="M15.4,9.34A2.91,2.91,0,0,1,14,11.69,3.29,3.29,0,0,0,12.74,13a1.94,1.94,0,0,0-.07.63v.42H11v-.63a2.39,2.39,0,0,1,1-2.17c.85-.54,1.76-1.06,1.75-2a1.45,1.45,0,0,0-1.65-1.6,1.53,1.53,0,0,0-1.67,1.6H8.9A2.94,2.94,0,0,1,12.07,6.1,3.1,3.1,0,0,1,15.4,9.34Z"/></svg>