<svg id="icn_faq" version="1.1"  xmlns="http://www.w3.org/2000/svg"  x="0px" y="0px"
	 viewBox="0 0 24 24" style="enable-background:new 0 0 24 24;" xml:space="preserve">
<style type="text/css">
	.st0{fill:currentColor;}
</style>
<g>
	<path class="st0" d="M16,5H8c-3.3,0-6,2.7-6,6s2.7,6,6,6h1v1.5c0,0.2,0.1,0.3,0.2,0.4C9.3,19,9.4,19,9.5,19c0.1,0,0.1,0,0.2,0
		l4.9-2H16c3.3,0,6-2.7,6-6S19.3,5,16,5z M16,16h-1.5v0c-0.1,0-0.1,0-0.2,0L10,17.8v-1.3c0-0.3-0.2-0.5-0.5-0.5H8c-2.8,0-5-2.2-5-5
		s2.2-5,5-5h8c2.8,0,5,2.2,5,5S18.8,16,16,16z"/>
	<path class="st0" d="M12,8c-1.1,0-2,0.9-2,2c0,0.3,0.2,0.5,0.5,0.5S11,10.3,11,10c0-0.6,0.5-1,1-1s1,0.5,1,1s-0.5,1-1,1
		c-0.3,0-0.5,0.2-0.5,0.5V13c0,0.3,0.2,0.5,0.5,0.5s0.5-0.2,0.5-0.5v-1c0.9-0.2,1.5-1,1.5-2C14,8.9,13.1,8,12,8z"/>
	<circle class="st0" cx="12" cy="14.5" r="0.5"/>
</g>
</svg>
