<svg id="icn_scales" xmlns="http://www.w3.org/2000/svg" viewBox="0 0 24 24"><defs><style>.a{fill:currentColor;}</style></defs><title>icn_scales</title><path class="a" d="M22,7.5v0a.65.65,0,0,0-.06-.21,0,0,0,0,1,0,0l-3-5,0,0a.52.52,0,0,0-.56-.2L13.2,3.61a1.51,1.51,0,0,0-.7-.52V2.5a.5.5,0,0,0-1,0v.59a1.48,1.48,0,0,0-1,1.35L5.35,6l-.09.05h0a.43.43,0,0,0-.16.14s0,0,0,0l-3,5a0,0,0,0,1,0,0,.65.65,0,0,0-.06.21v0H2v1a3.5,3.5,0,0,0,7,0v-1H9v0a.65.65,0,0,0-.06-.21,0,0,0,0,1,0,0L6.26,6.79l4.54-1.4a1.51,1.51,0,0,0,.7.52V21h-4a.5.5,0,0,0,0,1h9a.5.5,0,0,0,0-1h-4V5.91a1.48,1.48,0,0,0,1-1.35l3.91-1.2L15.07,7.24a0,0,0,0,1,0,0,.65.65,0,0,0-.06.21v0h0v1a3.5,3.5,0,0,0,7,0v-1Zm-14,5a2.5,2.5,0,0,1-5,0V12H8ZM3.38,11,5.5,7.47,7.62,11ZM18.5,3.47,20.62,7H16.38Zm2.5,5a2.5,2.5,0,0,1-5,0V8h5Z"/></svg>