<svg id="icn_phone_sms_android" xmlns="http://www.w3.org/2000/svg" viewBox="0 0 24 24"><defs><style>.a{fill:currentColor;}</style></defs><title>icn_phone_sms_android
</title><path class="a" d="M9.5,20h-3a.5.5,0,0,1-.5-.5H6a.5.5,0,0,1,.5-.5h3a.5.5,0,0,1,.5.5h0A.5.5,0,0,1,9.5,20ZM15,10a1,1,0,1,0-1,1A1,1,0,0,0,15,10Zm3,0a1,1,0,1,0-1,1A1,1,0,0,0,18,10Zm-6,0a1,1,0,1,0-1,1A1,1,0,0,0,12,10Zm10,0a5,5,0,0,1-5,5H14.24l-.24.13V19.5A2.45,2.45,0,0,1,11.6,22H4.4A2.45,2.45,0,0,1,2,19.5V4.5A2.45,2.45,0,0,1,4.4,2h7.2A2.45,2.45,0,0,1,14,4.5V5h3A5,5,0,0,1,22,10Zm-9,5.67L9.74,17.44a.53.53,0,0,1-.24.06.48.48,0,0,1-.26-.07A.5.5,0,0,1,9,17V14.53A4.94,4.94,0,0,1,6,10a5,5,0,0,1,5-5h2V4.5A1.45,1.45,0,0,0,11.6,3H4.4A1.45,1.45,0,0,0,3,4.5v15A1.45,1.45,0,0,0,4.4,21h7.2A1.45,1.45,0,0,0,13,19.5ZM21,10a4,4,0,0,0-4-4H11a4,4,0,0,0-1.3,7.76h0a.54.54,0,0,1,.3.49v1.91l3.88-2.1A.45.45,0,0,1,14.2,14H17A4,4,0,0,0,21,10Z"/></svg>