<svg id="icn_arrow_swop" xmlns="http://www.w3.org/2000/svg" viewBox="0 0 24 24"><defs><style>.a{fill:currentColor;}</style></defs><title>icn_arrow_swop</title><path class="a" d="M19.85,16.85l-3,3a.36.36,0,0,1-.16.11.47.47,0,0,1-.38,0,.36.36,0,0,1-.16-.11l-3-3a.49.49,0,0,1,.7-.7L16,18.29V4.5a.5.5,0,0,1,1,0V18.29l2.15-2.14a.49.49,0,0,1,.7.7Zm-12-12.7A.36.36,0,0,0,7.69,4a.5.5,0,0,0-.38,0,.36.36,0,0,0-.16.11l-3,3a.49.49,0,0,0,.7.7L7,5.71V19.5a.5.5,0,0,0,1,0V5.71l2.15,2.14a.48.48,0,0,0,.7,0,.48.48,0,0,0,0-.7Z"/></svg>