<svg id="icn_product_instant_money" xmlns="http://www.w3.org/2000/svg" viewBox="0 0 24 24"><defs><style>.a{fill:currentColor;}</style></defs><title>icn_product_instant_money</title><path class="a" d="M6,6V17H23V6ZM7,7H9.64A4.19,4.19,0,0,1,7,9Zm0,9V14a4.19,4.19,0,0,1,2.64,2Zm15,0H19.36A4.19,4.19,0,0,1,22,14Zm0-3c-1.33,0-3.12,1.54-3.76,3H10.76c-.64-1.46-2.43-3-3.76-3V10c1.33,0,3.12-1.54,3.76-3h7.48c.64,1.46,2.43,3,3.76,3Zm0-4a4.19,4.19,0,0,1-2.64-2H22Z"/><path class="a" d="M10.5,13a.5.5,0,0,1-.5-.5v-2a.5.5,0,0,1,1,0v2A.5.5,0,0,1,10.5,13Z"/><path class="a" d="M18.5,13a.5.5,0,0,1-.5-.5v-2a.5.5,0,0,1,1,0v2A.5.5,0,0,1,18.5,13Z"/><path class="a" d="M14.5,10A1.5,1.5,0,1,1,13,11.5,1.5,1.5,0,0,1,14.5,10Zm0-1A2.5,2.5,0,1,0,17,11.5,2.5,2.5,0,0,0,14.5,9Z"/><path class="a" d="M4.5,10h-3a.5.5,0,0,1,0-1h3a.5.5,0,0,1,0,1Z"/><path class="a" d="M4.5,12h-2a.5.5,0,0,1,0-1h2a.5.5,0,0,1,0,1Z"/><path class="a" d="M4.5,14h-1a.5.5,0,0,1,0-1h1a.5.5,0,0,1,0,1Z"/></svg>