<svg id="icn_cash_notes" xmlns="http://www.w3.org/2000/svg" viewBox="0 0 24 24"><defs><style>.a{fill:currentColor;}</style></defs><title>icn_cash_notes</title><path class="a" d="M2,9V19H22V9Zm1,1H5a2,2,0,0,1-2,2Zm0,8V16a2,2,0,0,1,2,2Zm18,0H19a2,2,0,0,1,2-2Zm0-3a3,3,0,0,0-3,3H6a3,3,0,0,0-3-3V13a3,3,0,0,0,3-3H18a3,3,0,0,0,3,3Zm0-3a2,2,0,0,1-2-2h2ZM7.5,16a.5.5,0,0,1-.5-.5v-3a.5.5,0,0,1,1,0v3A.5.5,0,0,1,7.5,16Zm9,0a.5.5,0,0,1-.5-.5v-3a.5.5,0,0,1,1,0v3A.5.5,0,0,1,16.5,16ZM12,12a2,2,0,1,1-2,2,2,2,0,0,1,2-2Zm0-1a3,3,0,1,0,3,3,3,3,0,0,0-3-3Zm8.5-3H3.5a.5.5,0,0,1,0-1h17a.5.5,0,0,1,0,1Zm-2-2H5.5a.5.5,0,0,1,0-1h13a.5.5,0,0,1,0,1Z"/></svg>